<svg width="662" height="385" viewBox="0 0 662 385" fill="none" xmlns="http://www.w3.org/2000/svg">
<path d="M607.127 182.778L630.593 170.857C629.094 175.896 625.541 194.043 644.286 212.053L620.819 223.974C602.074 205.964 605.646 187.802 607.127 182.778Z" fill="#0A484A"/>
<path d="M546.015 64.2288L569.48 52.3237C579.322 47.315 592.962 48.0153 608.014 55.6121L584.548 67.5324C569.497 59.9356 555.944 59.2353 546.015 64.2288Z" fill="#319196"/>
<path d="M646.217 167.691L622.751 179.611C632.455 174.663 638.43 164.174 638.534 149.255C638.639 119.218 614.459 82.6346 584.531 67.5324L607.996 55.6121C637.907 70.7142 662.087 107.373 661.999 137.334C661.965 152.254 655.92 162.758 646.217 167.691Z" fill="#0A484A"/>
<path d="M584.549 67.5324C614.46 82.6345 638.639 119.218 638.552 149.255C638.552 171.07 625.626 183.417 607.195 182.747C605.715 187.771 602.143 205.933 620.888 223.943C618.04 223.273 615.318 222.247 612.805 220.898C602.753 215.829 585.838 203.026 577.006 172.182C550.544 155.268 530.18 122.186 530.285 94.631C530.302 64.5637 554.638 52.4454 584.549 67.5324Z" fill="#116266"/>
<path d="M581.727 158.907C580.699 157.55 580.137 155.966 580.107 154.339C580.018 153.765 580.138 153.181 580.451 152.67C580.764 152.158 581.253 151.747 581.849 151.492C582.53 151.295 583.256 151.243 583.965 151.341C584.675 151.439 585.347 151.684 585.925 152.056C587.576 152.9 588.946 154.107 589.897 155.557C590.894 156.896 591.443 158.451 591.483 160.048C591.483 161.571 590.977 162.575 589.95 163.093C589.277 163.299 588.556 163.354 587.853 163.253C587.15 163.152 586.487 162.898 585.925 162.515C584.198 161.643 582.753 160.401 581.727 158.907ZM589.601 91.6471V146.727L581.535 142.663V87.5823L589.601 91.6471Z" fill="#49999D"/>
<path d="M481.474 124.394L458.025 136.299C455.562 137.475 452.753 137.978 449.959 137.745L473.425 125.916C476.222 126.12 479.024 125.59 481.474 124.394Z" fill="#319196"/>
<path d="M505.566 132.965L482.1 144.885C486.629 142.586 490.81 138.126 494.033 130.362L517.499 118.441C514.294 126.205 510.095 130.666 505.566 132.965Z" fill="#0A484A"/>
<path d="M448.565 15.1163L472.031 3.19597C481.873 -1.81271 495.531 -1.09719 510.582 6.49956L487.117 18.4199C472.065 10.8079 458.39 10.1076 448.565 15.1163Z" fill="#319196"/>
<path d="M548.785 118.563L525.32 130.483C535.04 125.551 540.998 115.046 541.103 100.142C541.207 70.09 517.028 33.5069 487.1 18.4199L510.652 6.49957C540.563 21.5865 564.742 58.1849 564.655 88.2217C564.533 103.08 558.506 113.631 548.785 118.563Z" fill="#0A484A"/>
<path d="M487.117 18.4199C517.028 33.5068 541.207 70.09 541.12 100.142C541.033 127.697 520.547 140.166 494.085 130.362C485.061 152.208 468.129 147.93 458.077 142.86C455.194 141.427 452.49 139.733 450.012 137.806C468.808 138.735 465.376 117.056 463.948 110.54C445.5 92.5453 432.766 67.2888 432.835 45.4729C432.87 15.436 457.189 3.31775 487.117 18.4199Z" fill="#116266"/>
<path d="M479.295 85.116C479.176 82.859 479.567 80.6035 480.445 78.4784C480.973 77.2155 481.927 76.1221 483.18 75.3423C484.701 74.5933 486.285 73.947 487.919 73.4088C489.985 72.7743 491.857 71.7325 493.389 70.364C494.735 68.6998 495.353 66.6686 495.131 64.6398C495.067 61.3655 493.976 58.1692 491.978 55.3989C490.215 52.6367 487.672 50.3149 484.591 48.6547C481.578 47.1323 479.051 46.7821 476.978 47.589C475.861 48.0768 474.87 48.7614 474.07 49.5998C473.269 50.4382 472.676 51.4122 472.327 52.4607L464.94 45.275C465.663 43.4169 466.916 41.7507 468.581 40.4338C470.511 38.954 472.983 38.1276 475.55 38.1045C479.13 38.124 482.628 39.0494 485.619 40.7687C491.218 43.6839 495.922 47.7431 499.33 52.5977C502.833 57.3954 504.694 62.9678 504.695 68.6589C504.801 70.9888 504.393 73.3146 503.493 75.5097C502.877 76.9729 501.817 78.2621 500.427 79.2396C498.899 80.2011 497.243 80.9985 495.497 81.6145C494.082 82.1485 492.703 82.7534 491.368 83.4262C490.314 84.0833 489.527 85.0163 489.121 86.0904C488.428 87.8567 488.121 89.7209 488.215 91.5862V95.6206L479.295 91.1752V85.116ZM479.766 107.373C478.743 106.015 478.182 104.432 478.146 102.806C478.059 102.232 478.181 101.649 478.493 101.138C478.806 100.628 479.293 100.215 479.888 99.9594C480.569 99.7619 481.295 99.71 482.004 99.808C482.714 99.906 483.386 100.151 483.964 100.523C485.612 101.371 486.98 102.577 487.936 104.024C488.931 105.364 489.48 106.919 489.522 108.515C489.522 110.038 489.016 111.042 487.988 111.56C487.314 111.76 486.593 111.81 485.891 111.707C485.188 111.603 484.526 111.349 483.964 110.966C482.252 110.09 480.815 108.855 479.783 107.373H479.766Z" fill="#49999D"/>
<path d="M427.035 383.277L3.40722 169.837C-1.64467 167.28 -1.00012 162.834 4.81826 159.896L175.938 72.9673C181.756 70.0291 190.571 69.7094 195.623 72.2518L619.216 285.768C624.25 288.325 623.623 292.771 617.805 295.709L446.685 382.638C440.849 385.5 432.034 385.819 427.035 383.277Z" fill="#06393C"/>
<path d="M181.774 66.147L181.652 104.42L132.666 129.296L132.788 91.0229L181.774 66.147Z" fill="#0A484A"/>
<path d="M252.936 102.06L252.814 140.333L181.652 104.42L181.774 66.147L252.936 102.06Z" fill="#116266"/>
<path d="M272.744 91.9973L272.605 130.27L252.814 140.333L252.936 102.06L272.744 91.9973Z" fill="#0A484A"/>
<path d="M195.188 122.506L195.049 160.779L175.241 170.842L175.363 132.569L195.188 122.506Z" fill="#0A484A"/>
<path d="M175.363 132.569L175.242 170.842L112.859 139.359L112.981 101.086L175.363 132.569Z" fill="#116266"/>
<path d="M112.981 101.086L112.859 139.359L47.4805 172.562L47.6024 134.289L112.981 101.086Z" fill="#0A484A"/>
<path d="M47.6035 134.289L47.4816 172.562L26.6982 162.073L26.8202 123.8L47.6035 134.289Z" fill="#116266"/>
<path d="M272.743 91.9973L252.936 102.06L181.774 66.147L132.788 91.0229L195.188 122.506L175.363 132.569L112.981 101.086L47.6028 134.289L26.8203 123.8L180.781 45.6099L272.743 91.9973Z" fill="#319196"/>
<path d="M305.388 148.356L305.266 186.629L226.091 203.604L226.213 165.331L305.388 148.356Z" fill="#0A484A"/>
<path d="M200.814 170.629L200.692 208.902L143.745 221.127L143.867 182.854L200.814 170.629Z" fill="#0A484A"/>
<path d="M143.868 182.854L143.746 221.127L123.154 210.744L123.276 172.471L143.868 182.854Z" fill="#116266"/>
<path d="M260.427 200.712L260.305 238.969L200.692 208.902L200.814 170.629L260.427 200.712Z" fill="#116266"/>
<path d="M260.044 241.481L259.922 279.739L235.916 267.636L236.038 229.363L260.044 241.481Z" fill="#116266"/>
<path d="M352.667 125.855L352.527 164.128L259.921 279.739L260.043 241.481L352.667 125.855Z" fill="#0A484A"/>
<path d="M352.667 125.916L260.043 241.618L236.038 229.439L260.427 200.788L200.814 170.705L143.867 182.884L123.276 172.502L351.378 125.307L352.667 125.916ZM226.213 165.392L271.245 188.106L305.388 148.417L226.213 165.392Z" fill="#319196"/>
<path d="M510.495 248.073L510.373 286.331C510.363 282.715 509.466 279.144 507.743 275.857C504.119 268.752 497.023 262.516 486.455 257.147C474.98 251.542 462.375 247.924 449.332 246.49C435.291 244.723 421.023 244.831 407.018 246.81C394.096 248.476 381.633 252.196 370.244 257.786C359.792 263.125 352.638 269.366 348.782 276.512C346.924 279.897 345.931 283.596 345.873 287.351L345.995 249.078C346.053 245.323 347.046 241.624 348.904 238.239C352.702 231.134 359.856 224.897 370.366 219.528C381.748 213.925 394.214 210.204 407.14 208.552C421.143 206.56 435.412 206.447 449.454 208.217C462.497 209.651 475.102 213.269 486.577 218.874C497.168 224.212 504.264 230.449 507.865 237.584C509.588 240.876 510.485 244.453 510.495 248.073Z" fill="#0A484A"/>
<path d="M316.311 286.422L316.433 248.149C316.46 253.338 317.829 258.454 320.439 263.114C325.63 272.766 335.368 281.201 349.653 288.417C355.411 291.294 361.43 293.753 367.648 295.77L367.526 334.043C361.308 332.026 355.289 329.567 349.531 326.69C335.246 319.474 325.508 311.039 320.317 301.387C317.71 296.726 316.34 291.611 316.311 286.422Z" fill="#116266"/>
<path d="M539.499 248.789L539.377 287.062C539.317 292.016 538.095 296.907 535.789 301.433C530.946 311.207 521.487 319.661 507.411 326.796C495.698 332.607 483.048 336.836 469.888 339.341C455.604 342.174 440.981 343.482 426.337 343.238L426.459 304.965C441.103 305.207 455.726 303.899 470.01 301.068C483.173 298.574 495.826 294.344 507.533 288.523C521.574 281.419 531.027 272.969 535.893 263.175C538.214 258.648 539.442 253.75 539.499 248.789Z" fill="#0A484A"/>
<path d="M437.33 330.922L437.208 369.195L367.526 334.043L367.648 295.77L437.33 330.922Z" fill="#177074"/>
<path d="M457.556 320.661L457.416 358.919L437.208 369.195L437.33 330.922L457.556 320.661Z" fill="#0A484A"/>
<path d="M426.46 304.965L457.555 320.661L437.33 330.922L367.649 295.77C361.43 293.753 355.412 291.294 349.654 288.417C335.369 281.211 325.631 272.777 320.44 263.114C317.888 258.63 316.525 253.701 316.452 248.693C316.38 243.686 317.6 238.728 320.022 234.189C324.946 224.527 334.655 216.022 349.149 208.674C363.189 201.569 379.82 196.738 399.04 194.18C418.159 191.643 437.604 191.602 456.736 194.059C474.402 196.053 491.471 200.972 507.029 208.552C521.174 215.656 530.738 224.111 535.72 233.915C538.176 238.5 539.464 243.495 539.497 248.557C539.53 253.619 538.307 258.627 535.912 263.236C531.069 272.99 521.616 281.439 507.552 288.584C495.844 294.405 483.192 298.635 470.028 301.129C455.736 303.94 441.107 305.228 426.46 304.965ZM406.914 289.178C420.884 290.974 435.088 290.866 449.019 288.858C462.056 287.15 474.625 283.373 486.107 277.714C496.559 272.376 503.713 266.139 507.569 259.004C509.447 255.68 510.449 252.03 510.5 248.323C510.551 244.616 509.651 240.947 507.865 237.584C504.242 230.479 497.146 224.243 486.577 218.874C475.102 213.269 462.498 209.651 449.455 208.217C435.413 206.447 421.144 206.56 407.141 208.552C394.215 210.204 381.748 213.925 370.367 219.528C359.914 224.857 352.76 231.093 348.905 238.239C347.03 241.574 346.039 245.236 346.006 248.952C345.973 252.669 346.898 256.344 348.713 259.704C352.406 266.87 359.537 273.122 370.105 278.46C381.49 284.021 393.982 287.638 406.914 289.117V289.178Z" fill="#319196"/>
</svg>
