<svg width="130" height="130" viewBox="0 0 130 130" fill="none" xmlns="http://www.w3.org/2000/svg">
<path d="M63.207 102.649L63.9335 103.666L63.207 102.649ZM63.4942 102.444L62.7742 101.423L63.4942 102.444ZM78.9212 97.5005L78.9292 98.7505L78.9212 97.5005ZM40.0598 105.68L41.2204 106.145L40.0598 105.68ZM49.0655 112.75L48.3389 111.733L49.0655 112.75ZM118.071 78.037L119.271 78.3888L118.071 78.037ZM99.7025 96.4057L100.054 97.6052L99.7025 96.4057ZM25.6198 13.7852L26.1873 14.8989L25.6198 13.7852ZM13.7839 25.621L14.8977 26.1885L13.7839 25.621ZM104.378 13.7852L103.81 14.8989L104.378 13.7852ZM116.213 25.621L115.1 26.1885L116.213 25.621ZM69.3339 35.6035L70.0034 36.659H70.0034L69.3339 35.6035ZM87.5089 36.456L88.4014 35.5808L87.5089 36.456ZM42.4885 36.456L43.381 37.3312L42.4885 36.456ZM60.6634 35.6035L61.333 34.5479L60.6634 35.6035ZM75.832 9.58325H54.1654V12.0833H75.832V9.58325ZM9.58203 54.1666V77.0701H12.082V54.1666H9.58203ZM120.415 60.5811V54.1666H117.915V60.5811H120.415ZM31.2618 98.7499H34.5213V96.2499H31.2618V98.7499ZM49.792 113.767L63.9335 103.666L62.4804 101.632L48.3389 111.733L49.792 113.767ZM79.2738 98.7499H82.2466V96.2499H79.2738V98.7499ZM63.9335 103.666C64.079 103.562 64.1474 103.513 64.2142 103.466L62.7742 101.423C62.6993 101.475 62.6234 101.53 62.4804 101.632L63.9335 103.666ZM79.2738 96.2499C79.0981 96.2499 79.0048 96.2499 78.9132 96.2505L78.9292 98.7505C79.011 98.7499 79.095 98.7499 79.2738 98.7499V96.2499ZM64.2142 103.466C68.5232 100.43 73.658 98.7842 78.9292 98.7505L78.9132 96.2505C73.1319 96.2875 67.5002 98.0923 62.7742 101.423L64.2142 103.466ZM34.5213 98.7499C37.8571 98.7499 40.1381 102.119 38.8992 105.216L41.2204 106.145C43.1162 101.405 39.6258 96.2499 34.5213 96.2499V98.7499ZM38.8992 105.216C36.223 111.907 43.9283 117.955 49.792 113.767L48.3389 111.733C44.507 114.47 39.4715 110.517 41.2204 106.145L38.8992 105.216ZM117.915 60.5811C117.915 69.8186 117.903 74.1693 116.872 77.6853L119.271 78.3888C120.428 74.4414 120.415 69.6427 120.415 60.5811H117.915ZM82.2466 98.7499C91.3081 98.7499 96.1069 98.7626 100.054 97.6052L99.3508 95.2062C95.8347 96.2372 91.484 96.2499 82.2466 96.2499V98.7499ZM116.872 77.6853C114.396 86.1282 107.794 92.7306 99.3508 95.2062L100.054 97.6052C109.314 94.8901 116.556 87.6487 119.271 78.3888L116.872 77.6853ZM9.58203 77.0701C9.58203 89.0435 19.2884 98.7499 31.2618 98.7499V96.2499C20.6691 96.2499 12.082 87.6628 12.082 77.0701H9.58203ZM54.1654 9.58325C46.6019 9.58325 40.8542 9.58228 36.2753 9.95639C31.6818 10.3317 28.1546 11.0907 25.0523 12.6714L26.1873 14.8989C28.8784 13.5277 32.04 12.8108 36.4789 12.4481C40.9324 12.0842 46.5607 12.0833 54.1654 12.0833V9.58325ZM12.082 54.1666C12.082 46.5619 12.083 40.9336 12.4469 36.4801C12.8095 32.0412 13.5265 28.8796 14.8977 26.1885L12.6702 25.0535C11.0895 28.1558 10.3305 31.683 9.95517 36.2765C9.58106 40.8554 9.58203 46.6032 9.58203 54.1666H12.082ZM25.0523 12.6714C19.721 15.3878 15.3866 19.7223 12.6702 25.0535L14.8977 26.1885C17.3744 21.3276 21.3264 17.3756 26.1873 14.8989L25.0523 12.6714ZM75.832 12.0833C83.4367 12.0833 89.065 12.0842 93.5185 12.4481C97.9574 12.8108 101.119 13.5277 103.81 14.8989L104.945 12.6714C101.843 11.0907 98.3156 10.3317 93.7221 9.95639C89.1432 9.58228 83.3955 9.58325 75.832 9.58325V12.0833ZM120.415 54.1666C120.415 46.6032 120.416 40.8554 120.042 36.2765C119.667 31.683 118.908 28.1558 117.327 25.0535L115.1 26.1885C116.471 28.8796 117.188 32.0412 117.551 36.4801C117.914 40.9336 117.915 46.5619 117.915 54.1666H120.415ZM103.81 14.8989C108.671 17.3756 112.623 21.3276 115.1 26.1885L117.327 25.0535C114.611 19.7223 110.276 15.3878 104.945 12.6714L103.81 14.8989ZM70.0034 36.659C72.1842 35.2757 74.9443 33.9927 77.8418 33.7806C80.6768 33.573 83.723 34.3805 86.6164 37.3312L88.4014 35.5808C84.9731 32.0847 81.1982 31.0282 77.6593 31.2872C74.1829 31.5417 71.0163 33.0559 68.6643 34.5479L70.0034 36.659ZM86.6164 37.3312C90.0648 40.8478 91.1923 45.1721 90.7356 49.7883C90.2751 54.4429 88.1987 59.3729 85.2512 63.911C82.3089 68.4413 78.5493 72.5025 74.8259 75.4189C71.0481 78.3779 67.5114 79.9999 64.9987 79.9999V82.4999C68.3769 82.4999 72.4752 80.4357 76.3675 77.387C80.3141 74.2958 84.2594 70.028 87.3478 65.2727C90.4311 60.5254 92.7111 55.2135 93.2235 50.0344C93.7397 44.8171 92.4565 39.7162 88.4014 35.5808L86.6164 37.3312ZM64.9987 79.9999C62.4861 79.9999 58.9494 78.3779 55.1716 75.4189C51.4481 72.5025 47.6885 68.4413 44.7462 63.911C41.7987 59.3729 39.7223 54.4429 39.2618 49.7883C38.8051 45.1721 39.9326 40.8478 43.381 37.3312L41.596 35.5808C37.5409 39.7162 36.2577 44.8171 36.7739 50.0344C37.2863 55.2135 39.5663 60.5254 42.6496 65.2728C45.738 70.028 49.6834 74.2958 53.63 77.387C57.5223 80.4357 61.6206 82.4999 64.9987 82.4999V79.9999ZM43.381 37.3312C46.2744 34.3805 49.3206 33.5731 52.1555 33.7806C55.053 33.9927 57.8131 35.2757 59.9939 36.659L61.333 34.5479C58.981 33.0559 55.8144 31.5418 52.3381 31.2873C48.7992 31.0282 45.0243 32.0847 41.596 35.5808L43.381 37.3312ZM68.6643 34.5479C66.5118 35.9134 63.4855 35.9134 61.333 34.5479L59.9939 36.659C62.9638 38.543 67.0335 38.543 70.0034 36.659L68.6643 34.5479Z" fill="#E0E0E0"/>
</svg>
