<svg width="130" height="130" viewBox="0 0 130 130" fill="none" xmlns="http://www.w3.org/2000/svg">
<path d="M37.9154 75.8333C41.5265 82.7975 51.9987 92.0833 64.9987 92.0833C77.9987 92.0833 88.4709 82.7975 92.082 75.8333M119.165 64.9999C119.165 94.9153 94.9141 119.167 64.9987 119.167C35.0833 119.167 10.832 94.9153 10.832 64.9999C10.832 35.0845 35.0833 10.8333 64.9987 10.8333C94.9141 10.8333 119.165 35.0845 119.165 64.9999Z" stroke="#E0E0E0" stroke-width="2.5" stroke-linecap="round"/>
<path d="M54.1654 43.3332C54.1654 46.3247 51.7402 48.7498 48.7487 48.7498C45.7572 48.7498 43.332 46.3247 43.332 43.3332C43.332 40.3416 45.7572 37.9165 48.7487 37.9165C51.7402 37.9165 54.1654 40.3416 54.1654 43.3332Z" fill="#E0E0E0"/>
<path d="M86.6654 43.3332C86.6654 46.3247 84.2402 48.7498 81.2487 48.7498C78.2572 48.7498 75.832 46.3247 75.832 43.3332C75.832 40.3416 78.2572 37.9165 81.2487 37.9165C84.2402 37.9165 86.6654 40.3416 86.6654 43.3332Z" fill="#E0E0E0"/>
</svg>
