<svg width="130" height="130" viewBox="0 0 130 130" fill="none" xmlns="http://www.w3.org/2000/svg">
<path d="M32.1297 29.1764L31.8258 30.3889L32.1297 29.1764ZM50.4086 18.6231L49.2066 18.2801L50.4086 18.6231ZM17.5399 54.4468L18.438 53.5773L17.5399 54.4468ZM17.5399 75.5534L16.6418 74.6839V74.6839L17.5399 75.5534ZM32.1297 100.824L32.4337 102.036L32.1297 100.824ZM50.4086 111.377L49.2066 111.72L50.4086 111.377ZM79.5883 111.377L80.7903 111.72L79.5883 111.377ZM97.8671 100.824L98.1711 99.6112L97.8671 100.824ZM112.457 75.5534L111.559 76.4228L112.457 75.5534ZM112.457 54.4468L111.559 53.5773L112.457 54.4468ZM97.8671 29.1764L97.5632 27.9639L97.8671 29.1764ZM79.5883 18.6231L80.7903 18.2801L79.5883 18.6231ZM31.8258 30.3889C40.4226 32.5438 49.1784 27.4886 51.6106 18.9661L49.2066 18.2801C47.1446 25.5052 39.7218 29.7908 32.4337 27.9639L31.8258 30.3889ZM18.438 53.5773C8.69553 43.514 18.2395 26.9833 31.8258 30.3889L32.4337 27.9639C16.4077 23.9468 5.14994 43.4459 16.6418 55.3162L18.438 53.5773ZM18.438 76.4228C24.6026 70.0552 24.6026 59.9449 18.438 53.5773L16.6418 55.3162C21.868 60.7145 21.868 69.2857 16.6418 74.6839L18.438 76.4228ZM31.8258 99.6112C18.2395 103.017 8.69553 86.4861 18.438 76.4228L16.6418 74.6839C5.14994 86.5542 16.4077 106.053 32.4337 102.036L31.8258 99.6112ZM51.6106 111.034C49.1784 102.511 40.4226 97.4563 31.8258 99.6112L32.4337 102.036C39.7218 100.209 47.1446 104.495 49.2066 111.72L51.6106 111.034ZM78.3863 111.034C74.5424 124.503 55.4544 124.503 51.6106 111.034L49.2066 111.72C53.7407 127.607 76.2562 127.607 80.7903 111.72L78.3863 111.034ZM98.1711 99.6112C89.5743 97.4563 80.8185 102.511 78.3863 111.034L80.7903 111.72C82.8522 104.495 90.2751 100.209 97.5632 102.036L98.1711 99.6112ZM111.559 76.4228C121.301 86.4861 111.757 103.017 98.1711 99.6112L97.5632 102.036C113.589 106.053 124.847 86.5542 113.355 74.6839L111.559 76.4228ZM111.559 53.5773C105.394 59.9449 105.394 70.0552 111.559 76.4228L113.355 74.6839C108.129 69.2857 108.129 60.7145 113.355 55.3162L111.559 53.5773ZM98.1711 30.3889C111.757 26.9833 121.301 43.514 111.559 53.5773L113.355 55.3162C124.847 43.4459 113.589 23.9468 97.5632 27.9639L98.1711 30.3889ZM78.3863 18.9661C80.8185 27.4886 89.5743 32.5438 98.1711 30.3889L97.5632 27.9639C90.2751 29.7908 82.8522 25.5052 80.7903 18.2801L78.3863 18.9661ZM80.7903 18.2801C76.2562 2.39264 53.7407 2.39265 49.2066 18.2801L51.6106 18.9661C55.4544 5.49729 74.5424 5.49729 78.3863 18.9661L80.7903 18.2801ZM47.4984 65C47.4984 74.665 55.3335 82.5 64.9984 82.5V80C56.7142 80 49.9984 73.2843 49.9984 65H47.4984ZM64.9984 82.5C74.6634 82.5 82.4984 74.665 82.4984 65H79.9984C79.9984 73.2843 73.2827 80 64.9984 80V82.5ZM82.4984 65C82.4984 55.3351 74.6634 47.5 64.9984 47.5V50C73.2827 50 79.9984 56.7158 79.9984 65H82.4984ZM64.9984 47.5C55.3335 47.5 47.4984 55.3351 47.4984 65H49.9984C49.9984 56.7158 56.7142 50 64.9984 50V47.5Z" fill="#E0E0E0"/>
</svg>
