<svg width="130" height="130" viewBox="0 0 130 130" fill="none" xmlns="http://www.w3.org/2000/svg">
<path d="M23.7659 115.176L24.419 114.11L23.7659 115.176ZM14.8246 106.234L15.8904 105.581L14.8246 106.234ZM115.176 106.234L114.11 105.581L115.176 106.234ZM106.235 115.176L105.581 114.11L106.235 115.176ZM106.235 31.0742L105.581 32.14L106.235 31.0742ZM115.176 40.0156L114.11 40.6687L115.176 40.0156ZM23.7659 31.0742L24.419 32.14L23.7659 31.0742ZM14.8246 40.0156L15.8904 40.6687L14.8246 40.0156ZM100.083 13.7932L100.985 12.9279V12.9279L100.083 13.7932ZM20.8231 15.6584L21.5778 16.6548V16.6548L20.8231 15.6584ZM15.4618 21.2477L16.4874 21.9624L15.4618 21.2477ZM102.917 27.7892H104.167L104.167 27.783L102.917 27.7892ZM99.4699 70.928C100.16 70.928 100.72 70.3684 100.72 69.678C100.72 68.9877 100.16 68.428 99.4699 68.428V70.928ZM84.6972 68.428C84.0069 68.428 83.4472 68.9877 83.4472 69.678C83.4472 70.3684 84.0069 70.928 84.6972 70.928V68.428ZM56.8752 28.3333H73.1253V25.8333H56.8752V28.3333ZM73.1253 117.917H56.8752V120.417H73.1253V117.917ZM56.8752 117.917C47.9855 117.917 41.406 117.915 36.232 117.423C31.0766 116.933 27.446 115.965 24.419 114.11L23.1128 116.241C26.5986 118.377 30.657 119.405 35.9954 119.912C41.3151 120.418 48.0339 120.417 56.8752 120.417V117.917ZM9.58358 73.1249C9.58358 81.9663 9.58226 88.685 10.0881 94.0048C10.5956 99.3431 11.6227 103.402 13.7588 106.887L15.8904 105.581C14.0355 102.554 13.067 98.9235 12.5768 93.7682C12.0849 88.5942 12.0836 82.0147 12.0836 73.1249H9.58358ZM24.419 114.11C20.943 111.98 18.0205 109.057 15.8904 105.581L13.7588 106.887C16.095 110.7 19.3004 113.905 23.1128 116.241L24.419 114.11ZM73.1253 120.417C81.9666 120.417 88.6854 120.418 94.0051 119.912C99.3435 119.405 103.402 118.377 106.888 116.241L105.581 114.11C102.555 115.965 98.9239 116.933 93.7685 117.423C88.5945 117.915 82.015 117.917 73.1253 117.917V120.417ZM114.11 105.581C111.98 109.057 109.057 111.98 105.581 114.11L106.888 116.241C110.7 113.905 113.905 110.7 116.242 106.887L114.11 105.581ZM105.581 32.14C109.057 34.2702 111.98 37.1927 114.11 40.6687L116.242 39.3625C113.905 35.5501 110.7 32.3447 106.888 30.0084L105.581 32.14ZM56.8752 25.8333C48.0339 25.8333 41.3151 25.8319 35.9954 26.3377C30.657 26.8453 26.5986 27.8724 23.1128 30.0084L24.419 32.14C27.446 30.2851 31.0766 29.3167 36.232 28.8265C41.406 28.3346 47.9855 28.3333 56.8752 28.3333V25.8333ZM12.0836 73.1249C12.0836 64.2352 12.0849 57.6556 12.5768 52.4817C13.067 47.3263 14.0355 43.6956 15.8904 40.6687L13.7588 39.3625C11.6227 42.8482 10.5956 46.9067 10.0881 52.245C9.58226 57.5648 9.58358 64.2836 9.58358 73.1249H12.0836ZM23.1128 30.0084C19.3004 32.3447 16.095 35.5501 13.7588 39.3625L15.8904 40.6687C18.0205 37.1927 20.943 34.2702 24.419 32.14L23.1128 30.0084ZM54.4544 12.0833H83.5349V9.58325H54.4544V12.0833ZM83.5349 12.0833C88.1413 12.0833 91.465 12.0861 93.9978 12.4411C96.4891 12.7903 98.0297 13.4585 99.1807 14.6585L100.985 12.9279C99.2967 11.1679 97.1329 10.3561 94.3449 9.96534C91.5983 9.58037 88.0677 9.58325 83.5349 9.58325V12.0833ZM54.4544 9.58325C45.3964 9.58325 38.4982 9.58139 33.072 10.1943C27.6192 10.8102 23.504 12.0597 20.0684 14.6619L21.5778 16.6548C24.5125 14.432 28.1258 13.2689 33.3526 12.6785C38.606 12.0851 45.3384 12.0833 54.4544 12.0833V9.58325ZM12.0836 56.3096C12.0836 46.8093 12.0852 39.7804 12.6554 34.2931C13.2235 28.8263 14.3448 25.0368 16.4874 21.9624L14.4363 20.533C11.9506 24.0998 10.7577 28.3677 10.1688 34.0347C9.582 39.6813 9.58358 46.8627 9.58358 56.3096H12.0836ZM20.0684 14.6619C17.9052 16.3004 16.005 18.2821 14.4363 20.533L16.4874 21.9624C17.9081 19.9237 19.6264 18.1329 21.5778 16.6548L20.0684 14.6619ZM104.167 27.783C104.149 24.094 104.066 21.1446 103.653 18.7775C103.235 16.3786 102.461 14.4668 100.985 12.9279L99.1807 14.6585C100.2 15.7213 100.825 17.1079 101.191 19.2068C101.562 21.3375 101.649 24.0853 101.667 27.7953L104.167 27.783ZM9.58358 56.3096C9.58358 61.6934 9.47459 66.4009 9.58395 70.4503L12.083 70.3828C11.9748 66.3743 12.0836 61.7813 12.0836 56.3096H9.58358ZM116.458 83.2008H84.6972V85.7008H116.458V83.2008ZM68.6745 69.678C68.6745 78.5271 75.8481 85.7008 84.6972 85.7008V83.2008C77.2288 83.2008 71.1745 77.1464 71.1745 69.678H68.6745ZM71.1745 69.678C71.1745 62.2096 77.2288 56.1553 84.6972 56.1553V53.6553C75.8481 53.6553 68.6745 60.8289 68.6745 69.678H71.1745ZM99.4699 68.428H84.6972V70.928H99.4699V68.428ZM73.1253 28.3333C80.593 28.3333 86.4356 28.3338 91.1925 28.6273C95.948 28.9208 99.5237 29.5032 102.473 30.6233L103.361 28.2862C100.066 27.0348 96.199 26.4315 91.3464 26.1321C86.4952 25.8327 80.5642 25.8333 73.1253 25.8333V28.3333ZM102.473 30.6233C103.587 31.0464 104.614 31.5471 105.581 32.14L106.888 30.0084C105.78 29.3299 104.613 28.7617 103.361 28.2862L102.473 30.6233ZM101.667 27.7892V29.4547H104.167V27.7892H101.667ZM84.6972 56.1553H118.866V53.6553H84.6972V56.1553ZM120.417 73.1249C120.417 65.6471 120.417 59.6929 120.113 54.8273L117.618 54.9833C117.916 59.7533 117.917 65.6179 117.917 73.1249H120.417ZM120.113 54.8273C119.698 48.178 118.707 43.3858 116.242 39.3625L114.11 40.6687C116.254 44.1668 117.211 48.4651 117.618 54.9833L120.113 54.8273ZM117.917 73.1249C117.917 77.3839 117.917 81.118 117.862 84.43L120.362 84.4715C120.417 81.1345 120.417 77.378 120.417 73.1249H117.917ZM117.862 84.43C117.687 94.9813 116.943 100.959 114.11 105.581L116.242 106.887C119.475 101.611 120.187 94.9717 120.362 84.4715L117.862 84.43ZM116.458 85.7008H119.112V83.2008H116.458V85.7008Z" fill="#E0E0E0"/>
</svg>
