<svg width="690" height="645" viewBox="0 0 690 645" fill="none" xmlns="http://www.w3.org/2000/svg">
<g clip-path="url(#clip0_154_6265)">
<path d="M433.795 224.26C437.205 217.171 441.344 210.455 446.146 204.219L419.711 189.041V175.644C417.111 178.453 414.565 181.424 412.127 184.611C407.316 191.052 403.177 197.966 399.776 205.246C393.574 217.572 390.17 231.109 389.809 244.894C389.809 254.563 412.289 266.501 423.774 268.716C427.674 269.58 424.64 268.716 424.64 265.367V261.316C424.935 248.444 428.06 235.795 433.795 224.26Z" fill="#474747"/>
<path d="M433.79 224.26C427.999 235.782 424.818 248.432 424.473 261.316V265.367C424.473 268.77 426.315 269.796 429.294 268.122C430.33 267.359 431.166 266.358 431.731 265.205C432.422 264.151 432.849 262.947 432.977 261.694V259.533C433.616 244.873 438.159 230.646 446.141 218.318V204.219C441.339 210.455 437.199 217.171 433.79 224.26Z" fill="#292929"/>
<path d="M185.57 372.051V423.475L250.088 460.639V409.214L185.57 372.051Z" fill="#292626"/>
<path d="M185.57 372.051L531.134 173.106L595.653 210.27L250.089 409.215L185.57 372.051Z" fill="#3D3838"/>
<path d="M250.086 409.215L595.65 210.269V261.694L250.086 460.639V409.215Z" fill="#1A1717"/>
<path d="M319.701 400.842L316.613 402.57L320.026 412.077L351.77 430.335L343.374 406.73C340.178 397.007 330.427 394.63 319.701 400.842Z" fill="black"/>
<path d="M253.981 420.936C258.788 412.256 265.744 404.948 274.186 399.708C278.187 397.212 282.794 395.849 287.512 395.764H291.954C294.522 395.805 297.038 396.492 299.267 397.763L313.298 405.866C309.858 404.348 306.081 403.748 302.339 404.127C298.597 404.506 295.018 405.85 291.954 408.026C283.028 413.571 275.679 421.309 270.611 430.497C258.856 450.808 258.91 472.685 270.611 479.437L256.527 471.28C253.091 468.989 250.384 465.765 248.726 461.99C243.309 452.969 244.988 436.439 253.981 420.936Z" fill="#1A1A1A"/>
<path d="M270.604 430.606C275.672 421.417 283.021 413.68 291.947 408.135C295.01 405.958 298.589 404.614 302.332 404.236C306.074 403.857 309.851 404.456 313.29 405.974C317.746 409.35 320.778 414.261 321.795 419.748C322.607 423.205 283.875 480.572 283.875 480.572C279.565 481.421 275.104 481.066 270.983 479.545C258.903 472.523 258.903 450.916 270.604 430.606Z" fill="black"/>
<path d="M273.913 478.951C285.072 485.379 303.219 474.954 314.379 455.616C325.538 436.278 325.538 415.481 314.379 409.053C303.219 402.625 285.072 413.05 273.913 432.335C262.754 451.619 262.7 472.523 273.913 478.951Z" fill="black"/>
<path d="M273.849 432.389C278.656 423.708 285.612 416.4 294.055 411.16C298.072 408.657 302.698 407.294 307.435 407.217H311.823C314.388 407.271 316.901 407.957 319.136 409.215L333.166 417.318C329.684 415.739 325.846 415.107 322.04 415.487C318.234 415.866 314.597 417.243 311.498 419.478C302.584 425.039 295.238 432.772 290.154 441.95C278.399 462.26 278.453 484.137 290.154 490.889L276.124 482.733C272.668 480.449 269.943 477.224 268.27 473.442C263.177 464.529 264.857 447.892 273.849 432.389Z" fill="#1A1A1A"/>
<path d="M290.476 442.058C295.56 432.881 302.906 425.147 311.82 419.587C314.919 417.352 318.556 415.975 322.362 415.595C326.168 415.216 330.006 415.847 333.488 417.426C337.911 420.822 340.921 425.727 341.939 431.201C342.751 434.658 304.019 492.024 304.019 492.024C299.709 492.868 295.248 492.513 291.127 490.998C278.559 483.975 278.721 462.368 290.476 442.058Z" fill="#292929"/>
<path d="M293.787 490.403C304.946 496.831 323.094 486.406 334.253 467.067C345.412 447.729 345.412 426.933 334.253 420.505C323.094 414.077 304.946 424.502 293.787 443.786C282.628 463.07 282.628 483.975 293.787 490.403Z" fill="#1A1A1A"/>
<path d="M301.382 477.33C308.37 481.327 319.692 474.845 326.68 462.746C333.668 450.646 333.722 437.573 326.68 433.576C319.638 429.579 308.37 436.061 301.382 448.161C294.394 460.261 294.34 473.279 301.382 477.33Z" fill="black"/>
<path d="M300.355 479.059C307.939 483.38 320.127 476.358 327.711 463.286C335.295 450.214 335.241 436.277 327.711 431.848C320.182 427.419 307.939 434.549 300.355 447.567C292.771 460.585 292.825 474.684 300.355 479.059ZM301.384 448.161C303.474 444.466 306.144 441.129 309.293 438.276V448.323C308.618 449.143 308.003 450.009 307.451 450.916L299.055 452.645C299.724 451.149 300.502 449.705 301.384 448.323V448.161ZM329.011 435.467L320.615 443.462C320.035 443.192 319.411 443.028 318.773 442.975V432.82C320.074 432.408 321.446 432.263 322.805 432.393C324.164 432.523 325.483 432.925 326.682 433.576C327.572 434.054 328.362 434.695 329.011 435.467ZM328.036 460.261L322.619 454.859C322.918 453.904 323.154 452.929 323.324 451.942L331.72 443.948C331.836 449.603 330.572 455.201 328.036 460.261ZM307.668 478.411L312.814 467.175C313.635 466.827 314.416 466.392 315.144 465.879L320.29 471.28C316.935 474.916 312.52 477.41 307.668 478.411ZM296.076 464.798L304.472 463.07C304.599 463.803 304.837 464.514 305.176 465.177L299.759 476.412C298.33 474.865 297.263 473.021 296.635 471.012C296.007 469.004 295.835 466.881 296.13 464.798H296.076Z" fill="#E8E8EC"/>
<path d="M306.801 446.975V440.707C307.614 439.843 308.426 439.033 309.293 438.276V448.325C308.618 449.145 308.003 450.012 307.451 450.919L299.055 452.648L300.03 450.487L304.959 449.514C305.503 448.619 306.118 447.769 306.801 446.975Z" fill="#B9B9CA"/>
<path d="M302.576 463.503L304.526 463.07C304.653 463.804 304.89 464.514 305.23 465.177L299.813 476.415C299.017 475.698 298.341 474.859 297.809 473.93L302.521 463.773L302.576 463.503Z" fill="#B9B9CA"/>
<path d="M331.931 444.163C331.962 449.801 330.624 455.362 328.03 460.372L325.863 458.21C327.626 454.583 328.797 450.698 329.33 446.702L331.931 444.163Z" fill="#B9B9CA"/>
<path d="M317.848 469.931L314.544 466.581L315.194 466.149L320.34 471.552C316.933 475.098 312.502 477.497 307.664 478.413L308.748 475.982C312.152 474.583 315.245 472.527 317.848 469.931Z" fill="#B9B9CA"/>
<path d="M325.39 432.928C325.849 433.089 326.286 433.307 326.69 433.576C327.58 434.054 328.37 434.695 329.02 435.467L320.623 443.464C320.043 443.194 319.419 443.03 318.781 442.977V441.41L326.528 434.063C326.19 433.645 325.809 433.265 325.39 432.928Z" fill="#B9B9CA"/>
<path d="M312.339 458.371C313.26 458.911 314.831 458.047 315.752 456.426C316.673 454.805 316.673 453.022 315.752 452.482C314.831 451.941 313.26 452.806 312.339 454.481C311.418 456.156 311.418 457.83 312.339 458.371Z" fill="#222222"/>
<path d="M313.107 449.998C313.649 450.322 314.571 449.998 315.113 448.864C315.655 447.729 315.655 446.919 315.113 446.594C314.571 446.27 313.649 446.594 313.107 447.729C312.565 448.864 312.511 449.674 313.107 449.998Z" fill="#222222"/>
<path d="M317.912 457.398C317.491 457.634 317.127 457.96 316.846 458.352C316.565 458.744 316.373 459.193 316.285 459.667C316.285 460.585 316.719 461.126 317.478 460.855C317.899 460.625 318.26 460.3 318.533 459.906C318.806 459.512 318.983 459.06 319.05 458.586C319.158 457.668 318.508 457.127 317.912 457.398Z" fill="#222222"/>
<path d="M311.751 462.314C311.751 461.503 310.938 461.287 310.179 461.882C309.792 462.165 309.485 462.542 309.286 462.977C309.087 463.412 309.002 463.89 309.04 464.367C309.04 465.177 309.853 465.339 310.612 464.799C310.991 464.509 311.293 464.131 311.492 463.698C311.69 463.264 311.779 462.789 311.751 462.314Z" fill="#222222"/>
<path d="M308.764 457.723C309.095 457.4 309.327 456.99 309.433 456.54C309.539 456.09 309.513 455.62 309.361 455.184C309.035 454.589 308.168 454.751 307.517 455.562C307.192 455.889 306.961 456.297 306.846 456.744C306.732 457.19 306.739 457.659 306.867 458.101C307.246 458.642 308.06 458.479 308.764 457.723Z" fill="#222222"/>
<path d="M318.504 449.835C318.124 450.808 318.504 451.618 319.1 451.618C319.696 451.618 320.618 450.808 320.943 449.835C321.269 448.863 320.943 448.052 320.347 448.052C319.904 448.149 319.496 448.368 319.171 448.683C318.845 448.998 318.614 449.397 318.504 449.835Z" fill="#222222"/>
<path d="M302.259 405.704L319.539 395.765C322.515 393.616 326.011 392.297 329.668 391.946C333.325 391.595 337.009 392.223 340.341 393.766L308.489 375.4C305.149 373.905 301.474 373.312 297.832 373.682C294.19 374.052 290.71 375.371 287.741 377.507L270.515 387.446C256.566 396.532 246.61 410.573 242.671 426.717L235.412 455.616C234.953 457.412 235.096 459.308 235.82 461.016C236.544 462.723 237.809 464.146 239.421 465.069L260.764 477.385C261.325 477.715 261.955 477.91 262.605 477.954C263.255 477.998 263.906 477.89 264.506 477.638C265.107 477.386 265.639 476.997 266.062 476.503C266.485 476.009 266.785 475.423 266.94 474.792L274.469 444.974C278.405 428.844 288.338 414.807 302.259 405.704Z" fill="#333333"/>
<path d="M347.555 402.732C346.373 398.992 343.871 395.806 340.513 393.766C337.181 392.222 333.496 391.594 329.839 391.945C326.183 392.297 322.686 393.615 319.711 395.764L302.268 405.703C288.403 414.742 278.476 428.673 274.479 444.704L266.949 474.521C266.794 475.152 266.494 475.738 266.071 476.232C265.649 476.727 265.116 477.115 264.516 477.367C263.915 477.619 263.264 477.728 262.614 477.684C261.965 477.64 261.334 477.445 260.773 477.114C266.19 480.301 269.928 478.302 270.633 475.602L278.596 443.947C281.974 430.223 290.43 418.28 302.268 410.511L319.549 400.626C330.383 394.414 339.754 396.79 343.221 406.514L351.617 430.119L356.222 427.472L347.555 402.732Z" fill="#292929"/>
<path d="M248.574 454.211L243.644 457.02L114.66 382.801L118.453 380.586V379.29L113.902 376.697L108.756 379.614C105.722 381.396 105.722 384.205 108.756 385.934L238.173 460.423C239.857 461.256 241.711 461.69 243.59 461.69C245.47 461.69 247.324 461.256 249.007 460.423L254.154 457.453L248.574 454.211Z" fill="#1A1A1A"/>
<path d="M249.116 460.424C247.432 461.257 245.578 461.69 243.698 461.69C241.819 461.69 239.965 461.257 238.281 460.424L108.756 385.934C108.145 385.642 107.616 385.203 107.219 384.656C106.821 384.109 106.568 383.471 106.48 382.801V393.604C106.547 394.281 106.793 394.927 107.193 395.478C107.593 396.028 108.132 396.463 108.756 396.737L238.173 471.281C239.857 472.114 241.711 472.548 243.59 472.548C245.47 472.548 247.324 472.114 249.007 471.281L254.154 468.31V457.507L249.116 460.424Z" fill="#474747"/>
<path d="M138.651 407.055C138.273 407.294 137.958 407.62 137.732 408.005C137.506 408.391 137.375 408.824 137.35 409.27V420.508C137.339 420.664 137.368 420.82 137.434 420.962C137.501 421.104 137.602 421.226 137.73 421.318C137.73 421.318 138.272 421.318 138.651 421.318L139.41 420.886V406.568L138.651 407.055Z" fill="#10878C"/>
<path d="M137.836 405.651L114.164 392.039L113.405 392.471C113.148 392.661 112.912 392.878 112.701 393.119C112.33 393.58 112.121 394.149 112.105 394.739V405.921C112.084 406.086 112.108 406.253 112.175 406.405C112.242 406.558 112.349 406.689 112.484 406.785L137.728 421.316C137.601 421.224 137.499 421.102 137.433 420.96C137.366 420.818 137.337 420.662 137.349 420.506V409.27C137.373 408.824 137.504 408.391 137.73 408.006C137.956 407.621 138.271 407.295 138.649 407.055L139.407 406.569L137.836 405.651Z" fill="#02AAB2"/>
<path d="M140.591 405.92L139.398 406.568V420.778L140.591 420.13C141.389 418.725 141.835 417.15 141.892 415.537V409C141.949 408.419 141.86 407.834 141.633 407.296C141.406 406.758 141.048 406.285 140.591 405.92Z" fill="#292626"/>
<path d="M115.356 391.336L114.164 392.038L139.408 406.572L140.599 405.924L115.356 391.336Z" fill="#292626"/>
<path d="M229.577 459.127C229.203 459.385 228.893 459.722 228.668 460.115C228.443 460.507 228.309 460.946 228.276 461.397V472.581C228.265 472.744 228.294 472.908 228.36 473.059C228.426 473.209 228.527 473.342 228.655 473.445C228.797 473.521 228.955 473.56 229.116 473.56C229.277 473.56 229.435 473.521 229.577 473.445L230.336 473.013V459.127H229.577Z" fill="#10878C"/>
<path d="M228.756 457.994L205.084 444.381L204.271 444.813L203.621 445.408C203.236 445.886 203.009 446.471 202.971 447.082V458.264C202.96 458.428 202.989 458.592 203.055 458.742C203.121 458.892 203.222 459.025 203.35 459.128L228.648 473.659C228.52 473.555 228.419 473.423 228.353 473.273C228.287 473.122 228.258 472.958 228.269 472.794V461.613C228.301 461.162 228.435 460.724 228.66 460.331C228.885 459.939 229.196 459.601 229.569 459.344L230.327 458.912L228.756 457.994Z" fill="#02AAB2"/>
<path d="M231.517 458.263L230.324 458.911V473.121L231.517 472.418C232.32 471.036 232.767 469.477 232.818 467.88V461.343C232.875 460.762 232.786 460.176 232.559 459.639C232.331 459.101 231.973 458.628 231.517 458.263Z" fill="#292626"/>
<path d="M206.223 443.679L205.086 444.381L230.329 458.915L231.521 458.266L206.223 443.679Z" fill="#292626"/>
<path d="M648.564 133.62L600.19 105.747L579.984 117.361C579.254 117.84 578.651 118.488 578.227 119.25C577.802 120.012 577.569 120.865 577.547 121.736C578.414 143.631 578.847 165.742 578.847 188.069C578.847 189.096 579.605 189.582 580.472 189.042L616.441 168.245C617.214 167.605 618.199 167.278 619.203 167.328C620.206 167.378 621.154 167.802 621.858 168.515C625.163 172.512 628.467 176.456 631.663 180.561C632.115 180.949 632.692 181.162 633.288 181.162C633.885 181.162 634.461 180.949 634.914 180.561L648.944 172.836C649.678 172.347 650.292 171.7 650.742 170.943C651.192 170.186 651.466 169.338 651.544 168.461C651.544 162.249 651.544 155.929 651.544 149.771C651.59 145.242 650.819 140.741 649.269 136.483L648.564 133.62Z" fill="black"/>
<path d="M616.975 278.061V275.847C617.354 256.022 605.22 244.949 589.348 248.352C590.342 252.197 590.816 256.157 590.756 260.128V264.341L618.166 280.168C617.801 279.951 617.498 279.643 617.289 279.273C617.08 278.903 616.972 278.486 616.975 278.061Z" fill="#141414"/>
<path d="M541.476 278.385C546.251 269.667 553.214 262.334 561.682 257.102C565.68 254.607 570.291 253.262 575.007 253.213H579.395C581.957 253.248 584.469 253.916 586.708 255.158L600.738 263.314C597.292 261.786 593.505 261.181 589.752 261.56C585.999 261.939 582.41 263.289 579.341 265.475C570.429 271.014 563.083 278.73 557.998 287.892C546.243 308.202 546.297 330.133 557.998 336.832L543.968 328.729C540.512 326.445 537.786 323.22 536.113 319.438C530.75 310.417 532.484 293.888 541.476 278.385Z" fill="#1A1A1A"/>
<path d="M558.058 288C563.143 278.838 570.489 271.122 579.401 265.583C582.47 263.397 586.059 262.047 589.812 261.668C593.565 261.289 597.352 261.894 600.798 263.422C605.261 266.791 608.296 271.706 609.303 277.196C610.061 280.653 571.113 337.966 571.113 337.966C566.805 338.862 562.33 338.506 558.22 336.939C546.032 329.971 546.303 308.31 558.058 288Z" fill="#292929"/>
<path d="M561.365 336.399C572.525 342.827 590.672 332.402 601.831 313.064C612.99 293.726 613.044 272.875 601.831 266.447C590.618 260.019 572.525 270.444 561.365 289.782C550.206 309.121 550.206 329.917 561.365 336.399Z" fill="#1A1A1A"/>
<path d="M568.952 323.327C575.94 327.324 587.262 320.788 594.304 308.688C601.346 296.588 601.292 283.57 594.304 279.519C587.316 275.468 575.94 282.058 568.952 294.104C561.964 306.15 561.964 319.276 568.952 323.327Z" fill="black"/>
<path d="M567.707 325.002C575.291 329.377 587.534 322.301 594.793 309.283C602.052 296.264 602.322 282.274 594.793 277.844C587.263 273.415 575.02 280.545 567.707 293.564C560.394 306.582 560.394 320.68 567.707 325.002ZM568.737 294.104C570.83 290.427 573.5 287.108 576.646 284.273V294.374C575.976 295.216 575.361 296.1 574.804 297.021L566.407 298.695C567.274 297.075 568.087 295.67 568.953 294.104H568.737ZM596.364 281.464L587.967 289.458C587.402 289.141 586.772 288.957 586.125 288.918V278.817C588.769 277.996 591.631 278.248 594.088 279.519C595.019 280.029 595.86 280.686 596.58 281.464H596.364ZM595.389 306.258L589.971 300.856C590.308 299.911 590.544 298.933 590.676 297.939L599.072 289.998C599.294 295.622 598.102 301.211 595.605 306.258H595.389ZM575.075 324.353L580.492 313.172C581.295 312.822 582.057 312.388 582.767 311.875L588.184 317.277C584.764 320.96 580.241 323.442 575.291 324.353H575.075ZM563.482 310.741L571.879 309.066C572.015 309.798 572.252 310.507 572.583 311.173L567.166 322.355C565.778 320.786 564.749 318.934 564.15 316.929C563.551 314.923 563.397 312.812 563.699 310.741H563.482Z" fill="#E8E8EC"/>
<path d="M574.383 292.971V286.704C575.196 285.839 576.062 285.029 576.875 284.272V294.376C576.205 295.218 575.59 296.103 575.033 297.023L566.637 298.698C566.962 297.996 567.287 297.293 567.666 296.591L572.541 295.564C573.111 294.67 573.726 293.804 574.383 292.971Z" fill="#B9B9CA"/>
<path d="M570.158 309.445L572.108 309.067C572.244 309.798 572.481 310.507 572.812 311.174L567.395 322.358C566.6 321.66 565.924 320.839 565.391 319.926L570.103 309.715L570.158 309.445Z" fill="#B9B9CA"/>
<path d="M599.512 290.16C599.591 295.803 598.25 301.376 595.612 306.369L593.445 304.208C595.179 300.611 596.331 296.764 596.858 292.808L599.512 290.16Z" fill="#B9B9CA"/>
<path d="M585.429 315.657L582.125 312.307L582.775 311.875L588.192 317.278C584.874 320.991 580.451 323.548 575.57 324.572L576.708 322.141C580.025 320.59 582.992 318.384 585.429 315.657Z" fill="#B9B9CA"/>
<path d="M592.972 278.925L594.326 279.52C595.18 280.049 595.947 280.704 596.601 281.465L588.205 289.461C587.64 289.144 587.01 288.959 586.363 288.921V287.354L594.11 280.006C593.771 279.606 593.389 279.243 592.972 278.925Z" fill="#B9B9CA"/>
<path d="M579.903 304.369C580.878 304.909 582.394 304.044 583.315 302.423C584.236 300.803 584.29 299.02 583.315 298.479C582.34 297.939 580.878 298.804 579.903 300.424C578.927 302.045 578.982 303.828 579.903 304.369Z" fill="#222222"/>
<path d="M580.65 295.995C581.192 296.265 582.059 295.995 582.601 294.86C583.144 293.726 583.144 292.861 582.601 292.591C582.059 292.321 581.192 292.591 580.65 293.726C580.108 294.86 580.053 295.671 580.65 295.995Z" fill="#222222"/>
<path d="M585.471 303.394C585.044 303.618 584.678 303.941 584.405 304.336C584.131 304.731 583.957 305.187 583.898 305.663C583.898 306.582 584.278 307.122 585.037 306.798C585.462 306.587 585.829 306.274 586.103 305.888C586.377 305.501 586.551 305.053 586.609 304.583C586.772 303.61 586.23 303.124 585.471 303.394Z" fill="#222222"/>
<path d="M579.36 308.256C579.36 307.445 578.492 307.283 577.733 307.878C577.354 308.168 577.053 308.546 576.854 308.979C576.656 309.412 576.567 309.887 576.595 310.363C576.595 311.173 577.408 311.335 578.167 310.795C578.55 310.493 578.857 310.107 579.064 309.666C579.271 309.225 579.372 308.742 579.36 308.256Z" fill="#222222"/>
<path d="M576.319 303.666C576.644 303.35 576.876 302.951 576.991 302.513C577.106 302.075 577.098 301.614 576.969 301.18C576.59 300.586 575.776 300.748 575.072 301.559C574.739 301.869 574.506 302.27 574.4 302.712C574.294 303.154 574.32 303.617 574.475 304.044C574.801 304.638 575.668 304.476 576.319 303.666Z" fill="#222222"/>
<path d="M586.277 295.778C585.898 296.805 586.277 297.615 586.874 297.615C587.47 297.615 588.392 296.805 588.771 295.833C589.151 294.86 588.771 294.05 588.12 293.996C587.47 293.942 586.602 294.806 586.277 295.778Z" fill="#222222"/>
<path d="M664.719 142.316L664.232 142.046C663.126 141.493 661.89 141.25 660.656 141.344V148.367L664.177 146.314C666.236 145.126 666.507 143.343 664.719 142.316Z" fill="#3D3838"/>
<path d="M665.911 144.045C665.846 144.542 665.652 145.012 665.348 145.41C665.043 145.809 664.64 146.12 664.177 146.314L660.656 148.367V154.257L664.177 152.257C664.64 152.063 665.043 151.752 665.348 151.354C665.652 150.955 665.846 150.485 665.911 149.988V144.045Z" fill="#1A1717"/>
<path d="M674.843 156.093C673.842 156.07 672.867 155.77 672.026 155.228L663.251 150.15C663.128 150.087 663.02 150.001 662.932 149.896C662.844 149.791 662.777 149.669 662.737 149.538C662.697 149.407 662.683 149.27 662.697 149.133C662.71 148.997 662.751 148.865 662.817 148.745C662.955 148.495 663.185 148.309 663.459 148.228C663.733 148.148 664.028 148.178 664.28 148.313L673.055 153.445C673.456 153.658 673.902 153.769 674.355 153.769C674.809 153.769 675.255 153.658 675.656 153.445C675.997 153.207 676.264 152.879 676.427 152.496C676.59 152.114 676.641 151.694 676.576 151.284V143.666C676.576 143.527 676.605 143.389 676.66 143.26C676.715 143.132 676.795 143.017 676.897 142.92C676.998 142.824 677.118 142.75 677.249 142.702C677.381 142.653 677.52 142.632 677.66 142.64C677.795 142.64 677.929 142.666 678.054 142.718C678.179 142.769 678.292 142.845 678.388 142.94C678.483 143.036 678.559 143.149 678.611 143.273C678.662 143.398 678.689 143.531 678.689 143.666V151.23C678.689 153.769 677.985 154.688 676.685 155.444C676.139 155.819 675.504 156.043 674.843 156.093Z" fill="#292626"/>
<path d="M603.421 203.301C606.186 201.302 609.435 200.073 612.834 199.741C616.233 199.409 619.659 199.985 622.761 201.411C622.761 201.411 541.502 154.632 536.573 151.823C533.481 150.396 530.063 149.819 526.672 150.152C523.282 150.484 520.042 151.714 517.288 153.713L490.852 168.946L576.985 218.534L603.421 203.301Z" fill="#4D4848"/>
<path d="M619.237 190.175C619.319 193.059 618.627 195.913 617.233 198.441C614.309 197.625 611.242 197.458 608.247 197.953C605.252 198.447 602.402 199.592 599.898 201.305L619.237 190.175Z" fill="#1F1C1C"/>
<path d="M537.343 184.233L573.096 163.653C574.129 162.96 574.989 162.039 575.609 160.962C576.229 159.885 576.592 158.68 576.671 157.441V153.93C576.76 153.109 576.627 152.28 576.283 151.529C575.94 150.778 575.4 150.133 574.721 149.662C574.237 149.439 573.71 149.324 573.177 149.324C572.644 149.324 572.117 149.439 571.633 149.662C565.174 151.702 559.137 154.886 553.811 159.061C547.188 164.308 540.3 169.212 533.172 173.754L537.343 184.233Z" fill="#4D4545"/>
<path d="M553.903 158.845C559.229 154.67 565.266 151.486 571.725 149.446C572.209 149.223 572.736 149.108 573.269 149.108C573.802 149.108 574.329 149.223 574.813 149.446L543.556 131.404C542.564 131.016 541.461 131.016 540.469 131.404C533.991 133.463 527.936 136.665 522.592 140.857C515.979 146.1 509.089 150.986 501.953 155.496L506.07 166.299L537.327 184.287L533.264 173.484C540.39 168.959 547.279 164.074 553.903 158.845Z" fill="#393333"/>
<path d="M526.433 132.376C527.092 131.63 527.969 131.109 528.941 130.886C529.913 130.663 530.93 130.75 531.85 131.133C532.16 131.319 532.434 131.557 532.663 131.836C534.528 134.181 536.076 136.759 537.267 139.506C539.07 143.787 540.273 148.294 540.842 152.902C541.19 155.616 541.789 158.293 542.63 160.897L544.364 166.299C540.891 168.979 537.275 171.467 533.53 173.753L522.37 143.936C521.9 141.823 522.031 139.621 522.749 137.578C523.467 135.536 524.743 133.734 526.433 132.376Z" fill="#4D4545"/>
<path d="M526.443 132.377C527.102 131.631 527.979 131.109 528.951 130.887C529.923 130.664 530.94 130.75 531.86 131.134L500.549 113.092C499.625 112.74 498.616 112.669 497.651 112.891C496.686 113.112 495.809 113.615 495.132 114.335C493.44 115.664 492.143 117.426 491.38 119.434C490.617 121.442 490.415 123.619 490.799 125.732L501.958 155.496L533.268 173.538L522.109 143.72C521.712 141.615 521.907 139.441 522.671 137.439C523.436 135.437 524.742 133.685 526.443 132.377Z" fill="#393333"/>
<path d="M583.446 210.647L619.252 190.013C620.304 189.347 621.181 188.441 621.812 187.37C622.443 186.3 622.81 185.095 622.882 183.855V180.344C622.96 179.525 622.821 178.699 622.479 177.95C622.136 177.201 621.603 176.555 620.932 176.076C620.447 175.857 619.92 175.744 619.388 175.744C618.855 175.744 618.329 175.857 617.844 176.076C611.373 178.127 605.32 181.309 599.968 185.475C593.373 190.734 586.502 195.639 579.383 200.168L583.446 210.647Z" fill="#4D4545"/>
<path d="M600.181 185.368C605.533 181.201 611.586 178.019 618.057 175.969C618.542 175.749 619.068 175.636 619.601 175.636C620.133 175.636 620.66 175.749 621.145 175.969L589.834 157.927C589.349 157.707 588.823 157.594 588.29 157.594C587.758 157.594 587.231 157.707 586.746 157.927C580.273 159.998 574.221 163.198 568.87 167.38C562.262 172.604 555.391 177.49 548.285 182.018L552.348 192.822L583.442 210.648L579.379 199.844C586.567 195.392 593.51 190.559 600.181 185.368Z" fill="#393333"/>
<path d="M572.492 158.845C573.163 158.115 574.043 157.609 575.012 157.396C575.982 157.184 576.994 157.275 577.909 157.657C578.225 157.811 578.502 158.032 578.722 158.305C580.574 160.678 582.121 163.273 583.326 166.03C585.161 170.299 586.365 174.812 586.902 179.426C587.255 182.139 587.853 184.815 588.689 187.42L590.477 192.822C586.685 195.577 582.893 198.224 579.643 200.276L568.43 170.459C567.98 168.338 568.121 166.134 568.837 164.087C569.553 162.04 570.817 160.227 572.492 158.845Z" fill="#4D4545"/>
<path d="M572.5 158.845C573.17 158.114 574.05 157.609 575.02 157.396C575.99 157.183 577.001 157.274 577.917 157.656L546.661 139.614C545.737 139.254 544.726 139.18 543.76 139.402C542.793 139.623 541.916 140.13 541.244 140.857C539.542 142.167 538.233 143.917 537.459 145.917C536.686 147.917 536.477 150.09 536.856 152.2L548.069 182.018L579.38 199.844L568.166 170.026C567.83 167.947 568.054 165.815 568.816 163.851C569.577 161.886 570.849 160.158 572.5 158.845Z" fill="#393333"/>
<path d="M650.571 171.269C651.251 170.4 651.648 169.345 651.709 168.244C651.709 162.033 651.709 155.713 651.709 149.555C651.702 146.982 651.466 144.415 651.005 141.884L594.125 109.15L579.824 117.36C579.094 117.839 578.491 118.488 578.067 119.249C577.642 120.011 577.409 120.864 577.387 121.736C577.387 124.22 577.387 126.705 577.658 129.244L650.571 171.269Z" fill="#1F1E1E"/>
<path d="M651.11 141.884L594.23 109.149L600.948 105.26L648.076 132.269C649.481 135.337 650.5 138.566 651.11 141.884Z" fill="#332F2F"/>
<path d="M626.853 156.092L616.777 150.257L628.045 157.713L638.121 163.548L626.853 156.092Z" fill="black"/>
<path d="M626.853 133.62L616.777 150.257L626.853 156.091L636.983 139.453L626.853 133.62Z" fill="#3B3637"/>
<path d="M644.291 143.937L636.978 139.453L626.848 156.09L638.115 163.545L644.291 143.937Z" fill="#121011"/>
<path d="M617.152 142.534L620.511 136.969L625.549 139.886L622.19 145.451L627.716 149.071L622.678 146.154L617.152 142.534Z" fill="black"/>
<path d="M622.195 145.45L625.554 139.885L631.079 143.559L627.721 149.07L622.195 145.45Z" fill="#1F1D1D"/>
<path d="M615.861 137.402L617.865 138.752L609.848 134.16L607.844 132.809L615.861 137.402Z" fill="#393333"/>
<path d="M609.846 134.16L607.842 132.809C605.719 135.977 604.859 139.821 605.43 143.588C606.001 147.355 607.963 150.773 610.93 153.174L612.934 154.524C609.988 152.11 608.042 148.693 607.472 144.933C606.902 141.173 607.747 137.335 609.846 134.16Z" fill="#393333"/>
<path d="M611.84 127.678C614.014 125.429 616.844 123.921 619.927 123.369C623.009 122.816 626.188 123.246 629.012 124.598L629.608 124.977L631.666 126.327L631.071 125.949C628.274 124.592 625.12 124.149 622.057 124.682C618.993 125.216 616.176 126.699 614.007 128.921L611.84 127.678Z" fill="#393333"/>
<path d="M619.102 145.18L617.098 143.829C618.242 144.312 619.518 144.387 620.711 144.043C621.904 143.698 622.943 142.955 623.652 141.938L625.657 143.289C624.947 144.306 623.909 145.049 622.715 145.393C621.522 145.738 620.246 145.662 619.102 145.18Z" fill="#393333"/>
<path d="M631.9 146.639L633.959 147.989L625.887 143.397L623.883 142.046L631.9 146.639Z" fill="#393333"/>
<path d="M634.546 140.75C634.159 142.515 633.539 144.223 632.704 145.827L632.325 146.421L624.308 141.83C623.599 142.847 622.56 143.589 621.367 143.934C620.173 144.278 618.898 144.203 617.753 143.72C616.726 143.017 616.004 141.952 615.733 140.739C615.462 139.527 615.661 138.256 616.291 137.184L608.273 132.593C608.379 132.366 608.506 132.149 608.653 131.945C609.629 130.419 610.794 129.022 612.12 127.785L634.546 140.75Z" fill="#665C5C"/>
<path d="M631.783 120.061C640.505 125.085 642.617 137.725 636.063 148.204C629.508 158.684 617.428 163.113 608.707 158.089C599.985 153.066 597.872 140.48 604.427 130.001C610.982 119.521 623.062 115.092 631.783 120.061ZM611.469 153.606C615.253 155.2 619.502 155.307 623.361 153.904C627.221 152.501 630.404 149.692 632.271 146.044C634.594 142.776 635.533 138.727 634.884 134.774C634.235 130.821 632.051 127.282 628.804 124.923C625.077 123.351 620.897 123.221 617.08 124.56C613.263 125.899 610.084 128.609 608.165 132.161C606.927 133.782 606.028 135.634 605.521 137.607C605.013 139.58 604.908 141.635 605.211 143.649C605.514 145.664 606.219 147.598 607.285 149.336C608.351 151.074 609.755 152.581 611.415 153.768L611.469 153.606Z" fill="#665C5C"/>
<path d="M632.705 120.547L634.763 121.897C642.781 127.299 644.406 139.399 638.23 149.554C632.055 159.709 619.65 164.463 611.145 159.439L610.332 158.953L608.328 157.603L609.087 158.089C617.808 163.112 630.105 158.683 636.443 148.204C642.781 137.724 640.614 125.895 632.705 120.547Z" fill="#393333"/>
<path d="M660.695 142.694V241.167L624.943 261.748V260.991L611.617 246.731C607.175 233.335 596.503 229.121 576.785 239.655C564.442 246.457 553.578 255.638 544.824 266.663V251.538C545.095 173.213 548.399 132.701 548.399 132.701C548.769 129.064 549.994 125.566 551.975 122.491C553.508 119.647 555.566 117.118 558.042 115.037L631.389 72.8494C632.098 72.3266 632.936 72.0052 633.813 71.9196C634.691 71.834 635.575 71.9873 636.373 72.3633C636.778 72.5871 637.134 72.8883 637.423 73.2498C637.711 73.6113 637.925 74.0259 638.052 74.47L658.962 131.026C660.226 134.783 660.813 138.733 660.695 142.694ZM577.489 121.735C578.356 143.63 578.789 165.741 578.789 188.068C578.789 189.094 579.548 189.581 580.414 189.04L616.438 168.244C617.21 167.604 618.196 167.277 619.199 167.327C620.202 167.377 621.15 167.8 621.855 168.514C625.159 172.511 628.464 176.454 631.66 180.56C632.112 180.948 632.688 181.161 633.285 181.161C633.881 181.161 634.458 180.948 634.91 180.56L648.94 172.835C649.674 172.346 650.288 171.699 650.738 170.942C651.188 170.185 651.462 169.337 651.54 168.46C651.54 162.248 651.54 155.928 651.54 149.77C651.586 145.24 650.816 140.739 649.265 136.482C643.234 120.709 636.914 105.116 630.305 89.7028C630.035 89.0546 629.385 88.9466 628.68 89.3247L579.656 117.576C579.005 118.062 578.472 118.689 578.096 119.409C577.721 120.129 577.514 120.924 577.489 121.735Z" fill="#D7D7DE"/>
<path d="M636.217 72.4177C636.217 72.4177 512 0.844916 511.242 0.466796C510.444 0.0908303 509.56 -0.0625118 508.682 0.0230988C507.805 0.108709 506.967 0.430067 506.258 0.95295L432.909 43.1944C430.439 45.2605 428.381 47.7708 426.841 50.5948C424.9 53.6843 423.695 57.1771 423.32 60.804L548.295 132.755C548.665 129.119 549.89 125.621 551.871 122.546C553.404 119.702 555.462 117.172 557.938 115.091L631.287 72.9039C631.99 72.3911 632.818 72.0755 633.685 71.99C634.552 71.9045 635.426 72.0522 636.217 72.4177Z" fill="white"/>
<path d="M423.259 60.8042C423.259 60.8042 419.954 101.263 419.684 179.642V202.653L544.659 274.604V251.539C544.93 173.214 548.234 132.701 548.234 132.701L423.259 60.8042Z" fill="#F0F0F4"/>
<g style="mix-blend-mode:soft-light" opacity="0.4">
<path d="M525.265 133.133L422.341 73.7141C421.366 91.3237 419.795 126.759 419.633 179.372V202.383L535.179 269.202V150.365C535.16 146.883 534.237 143.466 532.5 140.446C530.762 137.426 528.27 134.906 525.265 133.133Z" fill="black"/>
</g>
<path d="M676.682 149.392L682.965 153.011C684.645 153.983 686.053 153.011 686.053 150.688V127.623C686.03 126.47 685.739 125.339 685.203 124.317C684.668 123.295 683.902 122.412 682.965 121.735L672.131 115.523C670.452 114.551 669.098 115.523 669.098 117.846V135.023C669.152 137.842 669.866 140.609 671.183 143.103C672.499 145.598 674.382 147.752 676.682 149.392Z" fill="#918D89"/>
<path d="M682.964 151.229C683.83 151.715 684.535 151.229 684.535 149.771V126.759C684.545 126.126 684.409 125.5 684.136 124.928C683.864 124.356 683.463 123.855 682.964 123.464L672.13 117.252C671.317 116.766 670.559 117.252 670.559 118.711V135.78C670.586 138.098 671.153 140.379 672.215 142.441C673.278 144.503 674.806 146.291 676.68 147.664L682.964 151.229Z" fill="#F8F8F8"/>
<path d="M676.026 115.902L686.86 122.114C687.795 122.779 688.561 123.653 689.097 124.666C689.633 125.678 689.925 126.802 689.948 127.947V148.366C690.013 148.814 690.013 149.269 689.948 149.716C689.54 150.934 688.711 151.966 687.609 152.629C686.507 153.292 685.205 153.543 683.935 153.336C685.18 153.336 686.101 152.525 686.101 150.689V127.623C686.078 126.471 685.788 125.339 685.252 124.317C684.716 123.296 683.95 122.412 683.014 121.735L672.18 115.524C671.809 115.282 671.377 115.151 670.934 115.145C672.668 114.924 674.431 115.186 676.026 115.902Z" fill="#C9C8C4"/>
<path opacity="0.3" d="M650.832 134.484C644.765 118.711 638.589 103.478 631.926 88.0832C631.601 87.2729 630.734 86.6247 629.218 87.489L578.514 116.604C577.697 117.241 577.044 118.064 576.61 119.003C576.177 119.943 575.975 120.973 576.022 122.006C576.889 143.991 577.322 166.3 577.431 188.771C577.431 190.554 578.677 191.31 580.302 190.392L616.434 169.757C617.143 169.186 618.04 168.897 618.95 168.947C619.861 168.997 620.721 169.382 621.363 170.027C624.667 174.025 627.918 178.022 631.114 182.073C631.632 182.544 632.308 182.805 633.01 182.805C633.711 182.805 634.387 182.544 634.906 182.073L649.207 173.809C650.331 173.194 651.268 172.286 651.916 171.183C652.565 170.079 652.902 168.821 652.89 167.543C652.89 160.898 652.89 154.416 652.89 147.826C653.012 143.292 652.315 138.772 650.832 134.484ZM651.699 168.245C651.635 169.173 651.351 170.074 650.871 170.872C650.391 171.67 649.728 172.343 648.936 172.836L634.906 180.939C634.454 181.327 633.877 181.54 633.281 181.54C632.684 181.54 632.108 181.327 631.655 180.939C628.459 176.833 625.155 172.89 621.851 168.893C621.146 168.179 620.198 167.756 619.195 167.706C618.192 167.656 617.206 167.983 616.434 168.623L580.41 189.041C579.543 189.582 578.785 189.041 578.785 188.069C578.785 165.778 578.352 143.667 577.485 121.736C577.507 120.865 577.74 120.012 578.165 119.25C578.589 118.488 579.192 117.84 579.923 117.361L629.001 89.1095C629.651 88.7314 630.301 88.8394 630.572 89.4876C637.181 104.937 643.501 120.53 649.532 136.267C651.082 140.524 651.853 145.025 651.807 149.555C651.807 155.713 651.753 162.033 651.699 168.245Z" fill="black"/>
<path opacity="0.5" d="M579.93 117.361L628.954 89.1098C629.658 88.7317 630.308 88.8397 630.579 89.4879C637.188 104.937 643.508 120.53 649.539 136.267C651.09 140.525 651.86 145.026 651.814 149.555C651.814 155.713 651.814 162.033 651.814 168.245C651.739 169.184 651.439 170.09 650.939 170.889C650.44 171.688 649.755 172.356 648.943 172.837L634.913 180.939C634.461 181.327 633.884 181.54 633.288 181.54C632.691 181.54 632.115 181.327 631.663 180.939C628.467 176.834 625.162 172.891 621.858 168.893C621.153 168.18 620.205 167.756 619.202 167.706C618.199 167.656 617.214 167.983 616.441 168.623L580.417 189.042C579.551 189.582 578.792 189.042 578.792 188.069C578.792 165.778 578.359 143.667 577.492 121.736C577.514 120.865 577.748 120.012 578.172 119.25C578.597 118.488 579.2 117.84 579.93 117.361Z" fill="#F8F8F8"/>
<path opacity="0.3" d="M572.449 226.043C572.449 229.014 574.399 230.148 576.945 228.69L585.883 223.288C589.028 221.174 592.563 219.703 596.283 218.961C600.003 218.219 603.833 218.221 607.552 218.967C610.44 219.827 613.07 221.387 615.206 223.508C617.342 225.629 618.918 228.244 619.794 231.121C620.39 232.687 622.015 233.119 623.911 232.093L651.917 215.888C653.242 214.993 654.352 213.817 655.167 212.444C655.982 211.072 656.481 209.536 656.63 207.947C657.389 185.908 657.768 165.868 657.768 144.207C657.835 139.958 657.138 135.732 655.709 131.729C649.209 114.876 642.438 98.1842 635.233 81.709C634.529 80.0344 632.741 79.7103 630.791 80.7907L575.537 112.661C574.228 113.475 573.145 114.604 572.388 115.944C571.631 117.285 571.223 118.793 571.203 120.331C572.72 155.713 573.099 189.743 572.449 226.043ZM572.449 119.899C572.488 118.817 572.789 117.76 573.326 116.819C573.864 115.879 574.623 115.082 575.537 114.497L630.845 82.6813C632.199 81.871 633.499 82.1411 633.987 83.3295C641.21 99.7867 648.017 116.46 654.409 133.349C655.815 137.189 656.495 141.255 656.414 145.341C656.414 166.948 656.034 187.097 655.276 209.136C655.15 210.227 654.784 211.277 654.203 212.211C653.622 213.145 652.842 213.939 651.917 214.537L623.857 230.742C622.557 231.499 621.419 231.175 620.986 229.986C620.076 227.016 618.442 224.316 616.23 222.129C614.018 219.942 611.297 218.336 608.31 217.454C604.452 216.675 600.477 216.67 596.617 217.44C592.757 218.21 589.09 219.739 585.829 221.938L576.837 227.339C575.049 228.366 573.587 227.339 573.641 225.449C574.399 189.041 574.02 154.956 572.557 119.899H572.449Z" fill="black"/>
<path d="M530.626 326.461V322.464C530.972 309.58 534.152 296.93 539.944 285.408C547.792 268.177 560.496 253.594 576.509 243.436L579.597 241.654C594.439 233.119 607.765 233.659 616.162 241.654C619.313 245.031 621.756 249.003 623.347 253.335C624.938 257.667 625.644 262.272 625.425 266.88C625.425 250.351 619.737 240.898 613.399 234.956C603.973 226.205 589.727 226.259 574.288 234.956L571.2 236.684C554.077 247.513 540.501 263.097 532.143 281.519C525.941 293.844 522.538 307.381 522.176 321.167C524.776 324.138 530.735 331.971 535.393 329.216C532.468 330.944 530.626 329.918 530.626 326.461Z" fill="#474747"/>
<path d="M539.949 285.407C543.35 278.297 547.489 271.562 552.3 265.313L518.281 245.759C513.415 252.203 509.205 259.116 505.713 266.393C499.531 278.726 496.129 292.259 495.746 306.042C495.746 315.711 518.281 327.649 529.765 329.863C533.666 330.728 534.424 329.863 535.182 329.269C532.257 330.944 530.415 329.917 530.415 326.46V322.463C530.828 309.563 534.083 296.912 539.949 285.407Z" fill="#474747"/>
<g style="mix-blend-mode:soft-light" opacity="0.2">
<path d="M505.713 266.393C499.531 278.726 496.129 292.259 495.746 306.042C495.746 312.146 504.738 319.06 514.218 323.975C515.274 324.516 516.448 324.785 517.634 324.761C518.82 324.736 519.981 324.417 521.013 323.833C522.045 323.248 522.915 322.417 523.544 321.415C524.174 320.412 524.543 319.268 524.619 318.088C526.244 289.945 535.453 278.817 535.453 255.644L518.281 245.759C513.415 252.203 509.205 259.116 505.713 266.393Z" fill="black"/>
</g>
<path d="M616.442 241.491C608.045 233.659 594.773 233.119 579.877 241.491L576.789 243.274C560.776 253.432 548.071 268.014 540.224 285.245C534.432 296.767 531.251 309.417 530.906 322.301V326.298C530.906 329.755 532.748 330.782 535.673 329.107C536.74 328.362 537.597 327.358 538.165 326.19C538.842 325.134 539.251 323.929 539.357 322.679V320.518C539.357 296.211 557.071 265.151 578.306 252.511C599.54 239.871 617.254 251.376 617.254 275.684V277.899C617.251 278.323 617.36 278.741 617.569 279.11C617.778 279.48 618.08 279.789 618.446 280.005C618.823 280.229 619.253 280.347 619.692 280.347C620.131 280.347 620.561 280.229 620.938 280.005C622.392 279.168 623.598 277.963 624.435 276.512C625.272 275.061 625.71 273.415 625.705 271.741V267.69C626.016 262.925 625.356 258.147 623.764 253.644C622.172 249.142 619.681 245.007 616.442 241.491Z" fill="#292929"/>
<path d="M618.93 244.678L668.333 216.049C671.367 214.321 673.75 215.725 673.75 219.29V226.853C673.514 233.712 671.498 240.394 667.9 246.245C664.967 251.517 660.896 256.074 655.982 259.587C655.061 260.181 620.501 280.06 620.501 280.06L618.93 244.678Z" fill="#292929"/>
<path d="M657.284 250.35L629.873 266.123C628.519 266.88 627.544 266.123 627.815 264.341C628.822 259.799 630.731 255.504 633.429 251.71C636.127 247.915 639.559 244.698 643.524 242.248C651.379 237.764 657.934 239.601 659.288 246.191C659.376 247.002 659.235 247.821 658.88 248.556C658.526 249.29 657.973 249.912 657.284 250.35Z" fill="black"/>
<path d="M654.358 247.002C652.455 245.894 650.277 245.341 648.074 245.408C645.871 245.475 643.731 246.158 641.899 247.38C635.344 251.809 628.898 257.805 627.76 264.341C627.489 266.016 628.464 266.88 629.819 266.124L657.229 250.351C657.688 250.065 658.092 249.699 658.421 249.27L654.358 247.002Z" fill="#474747"/>
<path d="M660.696 206.111L664.108 208.109C671.042 212.161 673.913 214.591 673.913 219.453C673.982 218.761 673.868 218.063 673.583 217.428C673.298 216.793 672.851 216.244 672.288 215.834C671.654 215.543 670.955 215.425 670.26 215.492C669.566 215.558 668.901 215.807 668.334 216.212L618.93 244.679C618.561 243.1 618.035 241.562 617.359 240.087L657.716 216.806C658.62 216.299 659.371 215.561 659.895 214.669C660.418 213.777 660.695 212.762 660.696 211.728V206.111Z" fill="#474747"/>
<path d="M446.118 218.321V204.219C442.331 209.148 438.944 214.369 435.988 219.834L446.118 218.321Z" fill="#292929"/>
<path d="M446.117 204.219L419.682 189.041V175.644C417.082 178.453 414.536 181.424 412.098 184.611C408.287 189.646 404.881 194.975 401.914 200.546L436.096 219.722C439.001 214.288 442.353 209.102 446.117 204.219Z" fill="#474747"/>
<path d="M598.514 199.089L584.212 207.353C582.696 208.218 581.504 207.353 581.504 205.355V204.166C581.521 203.159 581.775 202.17 582.245 201.279C582.715 200.387 583.389 199.619 584.212 199.035L598.514 190.824C600.03 189.96 601.222 190.824 601.222 192.823V194.011C601.206 195.011 600.951 195.992 600.481 196.875C600.01 197.758 599.336 198.516 598.514 199.089Z" fill="#292929"/>
<path d="M581.497 205.247V204.166C581.514 203.159 581.768 202.17 582.239 201.279C582.709 200.387 583.383 199.619 584.206 199.035L598.507 190.824C598.799 190.547 599.187 190.392 599.591 190.392C599.994 190.392 600.382 190.547 600.674 190.824C600.15 190.207 599.418 189.803 598.615 189.69C598.232 189.703 597.859 189.814 597.532 190.014L583.177 198.278C582.313 198.885 581.613 199.696 581.14 200.639C580.668 201.582 580.437 202.627 580.468 203.68V204.869C580.435 205.22 580.476 205.574 580.588 205.909C580.7 206.244 580.88 206.552 581.118 206.813C581.376 207.126 581.698 207.379 582.062 207.556C582.427 207.734 582.825 207.83 583.231 207.839C582.202 207.677 581.497 206.813 581.497 205.247Z" fill="#474747"/>
<path d="M594.771 197.036L587.62 201.142C587.113 201.462 586.691 201.899 586.39 202.416C586.088 202.934 585.915 203.516 585.887 204.113V206.274L596.721 200.169V198.008C596.667 196.928 595.908 196.495 594.771 197.036Z" fill="#141414"/>
<path d="M546.037 100.29L599.775 69.3386C600.243 69.097 600.764 68.9709 601.291 68.9709C601.819 68.9709 602.339 69.097 602.808 69.3386L607.142 71.8774C607.32 71.9413 607.475 72.0586 607.584 72.2133C607.693 72.368 607.751 72.5525 607.751 72.7417C607.751 72.9308 607.693 73.1153 607.584 73.27C607.475 73.4247 607.32 73.542 607.142 73.6059L553.459 104.558C552.979 104.796 552.45 104.919 551.915 104.919C551.379 104.919 550.85 104.796 550.371 104.558L546.037 102.019C545.869 101.942 545.725 101.821 545.62 101.668C545.515 101.516 545.454 101.339 545.441 101.155C545.447 100.969 545.507 100.789 545.612 100.636C545.718 100.482 545.865 100.363 546.037 100.29Z" fill="#F8F8F8"/>
<path opacity="0.6" d="M546.037 102.019L550.371 104.558C550.85 104.796 551.379 104.92 551.915 104.92C552.45 104.92 552.979 104.796 553.459 104.558L607.142 73.6062C607.32 73.5367 607.475 73.4189 607.59 73.2663C607.705 73.1136 607.775 72.932 607.792 72.7419V73.9303C607.775 74.1204 607.705 74.302 607.59 74.4547C607.475 74.6073 607.32 74.725 607.142 74.7946L553.459 105.692C552.979 105.93 552.45 106.054 551.915 106.054C551.379 106.054 550.85 105.93 550.371 105.692L546.037 103.208C545.865 103.135 545.718 103.016 545.612 102.862C545.507 102.709 545.447 102.529 545.441 102.343V101.155C545.454 101.339 545.515 101.517 545.62 101.669C545.725 101.821 545.869 101.942 546.037 102.019Z" fill="#D7D7DE"/>
<path d="M447.808 43.7887L501.545 12.8908C502.014 12.6493 502.534 12.5232 503.062 12.5232C503.59 12.5232 504.11 12.6493 504.579 12.8908L508.912 15.3756C509.084 15.4544 509.234 15.5747 509.347 15.7256C509.461 15.8765 509.535 16.0533 509.563 16.2399C509.543 16.4361 509.474 16.6239 509.36 16.785C509.246 16.946 509.092 17.0746 508.912 17.1582L455.229 48.056C454.75 48.2939 454.221 48.4177 453.686 48.4177C453.15 48.4177 452.621 48.2939 452.142 48.056L447.808 45.5712C447.634 45.4956 447.486 45.371 447.382 45.2127C447.278 45.0543 447.223 44.8692 447.223 44.68C447.223 44.4907 447.278 44.3056 447.382 44.1472C447.486 43.9889 447.634 43.8643 447.808 43.7887Z" fill="#F8F8F8"/>
<path opacity="0.6" d="M447.807 45.5711L452.14 48.0559C452.62 48.2938 453.148 48.4176 453.684 48.4176C454.22 48.4176 454.748 48.2938 455.228 48.0559L508.911 17.158C509.09 17.0745 509.244 16.9459 509.358 16.7848C509.472 16.6238 509.542 16.4359 509.561 16.2397V17.4281C509.542 17.6243 509.472 17.8122 509.358 17.9732C509.244 18.1342 509.09 18.2629 508.911 18.3464L455.228 49.2443C454.748 49.4822 454.22 49.606 453.684 49.606C453.148 49.606 452.62 49.4822 452.14 49.2443L447.807 46.7595C447.641 46.6652 447.5 46.5325 447.397 46.3727C447.293 46.2129 447.229 46.0306 447.211 45.8412V44.7068C447.237 44.8867 447.305 45.0582 447.408 45.208C447.511 45.3579 447.648 45.4821 447.807 45.5711Z" fill="#D7D7DE"/>
<path d="M467.482 55.0779L521.165 24.1801C521.645 23.9422 522.173 23.8184 522.709 23.8184C523.245 23.8184 523.773 23.9422 524.253 24.1801L528.586 26.6648C528.752 26.7591 528.893 26.8918 528.997 27.0516C529.1 27.2114 529.164 27.3937 529.182 27.5831C529.156 27.7631 529.089 27.9345 528.985 28.0844C528.882 28.2342 528.746 28.3584 528.586 28.4474L474.849 59.3993C474.38 59.6409 473.86 59.7669 473.332 59.7669C472.805 59.7669 472.285 59.6409 471.816 59.3993L467.482 56.9145C467.304 56.8449 467.149 56.7272 467.034 56.5745C466.919 56.4219 466.849 56.2403 466.832 56.0502C466.842 55.8446 466.907 55.6455 467.022 55.4742C467.136 55.3029 467.295 55.1659 467.482 55.0779Z" fill="#F8F8F8"/>
<path opacity="0.6" d="M467.482 56.8613L471.816 59.3461C472.285 59.5877 472.805 59.7137 473.332 59.7137C473.86 59.7137 474.38 59.5877 474.849 59.3461L528.586 28.4483C528.746 28.3593 528.882 28.2351 528.985 28.0852C529.089 27.9354 529.156 27.7639 529.182 27.584V28.7183C529.164 28.9078 529.1 29.0901 528.997 29.2499C528.893 29.4097 528.752 29.5423 528.586 29.6366L474.849 60.5345C474.38 60.7761 473.86 60.9021 473.332 60.9021C472.805 60.9021 472.285 60.7761 471.816 60.5345L467.482 58.0497C467.303 57.9661 467.149 57.8375 467.035 57.6765C466.921 57.5154 466.851 57.3276 466.832 57.1314V55.997C466.849 56.1871 466.919 56.3687 467.034 56.5214C467.149 56.674 467.304 56.7918 467.482 56.8613Z" fill="#D7D7DE"/>
<path d="M487.074 66.3674L540.595 35.4696C541.075 35.2317 541.603 35.1079 542.139 35.1079C542.674 35.1079 543.203 35.2317 543.683 35.4696L548.016 37.9544C548.195 38.038 548.349 38.1666 548.463 38.3276C548.577 38.4886 548.647 38.6765 548.666 38.8727C548.649 39.0628 548.579 39.2443 548.465 39.397C548.35 39.5497 548.194 39.6674 548.016 39.737L494.333 70.6348C493.853 70.8727 493.325 70.9965 492.789 70.9965C492.253 70.9965 491.725 70.8727 491.245 70.6348L486.912 68.15C486.734 68.0805 486.578 67.9627 486.463 67.8101C486.349 67.6574 486.279 67.4758 486.262 67.2857C486.295 67.0712 486.389 66.8706 486.533 66.7079C486.677 66.5451 486.865 66.4269 487.074 66.3674Z" fill="#F8F8F8"/>
<path opacity="0.6" d="M487.072 68.1511L491.406 70.6359C491.875 70.8775 492.395 71.0035 492.922 71.0035C493.45 71.0035 493.97 70.8775 494.439 70.6359L548.176 39.7381C548.355 39.6685 548.51 39.5508 548.625 39.3981C548.739 39.2454 548.809 39.0639 548.826 38.8738V40.0081C548.807 40.2043 548.737 40.3922 548.624 40.5532C548.51 40.7142 548.355 40.8429 548.176 40.9264L494.439 71.8243C493.97 72.0659 493.45 72.1919 492.922 72.1919C492.395 72.1919 491.875 72.0659 491.406 71.8243L487.072 69.3395C486.893 69.2559 486.739 69.1273 486.625 68.9663C486.511 68.8053 486.441 68.6174 486.422 68.4212V67.2868C486.439 67.4769 486.509 67.6585 486.624 67.8112C486.738 67.9638 486.894 68.0816 487.072 68.1511Z" fill="#D7D7DE"/>
<path d="M506.68 77.711L560.363 46.7592C560.843 46.5213 561.371 46.3975 561.907 46.3975C562.443 46.3975 562.971 46.5213 563.451 46.7592L567.784 49.2439C567.963 49.3275 568.118 49.4561 568.232 49.6172C568.346 49.7782 568.416 49.9661 568.435 50.1622C568.418 50.3523 568.348 50.5339 568.233 50.6866C568.118 50.8392 567.963 50.957 567.784 51.0265L514.101 81.9244C513.63 82.1894 513.099 82.3287 512.558 82.3287C512.017 82.3287 511.485 82.1894 511.014 81.9244L506.68 79.4396C506.501 79.3757 506.347 79.2583 506.238 79.1036C506.129 78.949 506.07 78.7644 506.07 78.5753C506.07 78.3862 506.129 78.2016 506.238 78.0469C506.347 77.8923 506.501 77.7749 506.68 77.711Z" fill="#F8F8F8"/>
<path opacity="0.6" d="M506.68 79.4407L511.014 81.9254C511.485 82.1905 512.017 82.3298 512.558 82.3298C513.099 82.3298 513.63 82.1905 514.102 81.9254L567.676 51.0276C567.855 50.9581 568.01 50.8403 568.125 50.6877C568.239 50.535 568.309 50.3534 568.326 50.1633V51.2977C568.307 51.4939 568.237 51.6817 568.124 51.8428C568.01 52.0038 567.855 52.1324 567.676 52.216L513.993 83.1138C513.514 83.3517 512.985 83.4755 512.449 83.4755C511.914 83.4755 511.385 83.3517 510.905 83.1138L506.572 80.629C506.4 80.5502 506.251 80.4299 506.137 80.279C506.024 80.1281 505.95 79.9514 505.922 79.7648V78.5764C505.947 78.7794 506.033 78.9702 506.169 79.1242C506.304 79.2782 506.482 79.3884 506.68 79.4407Z" fill="#D7D7DE"/>
<path d="M526.297 89.0008L579.98 58.049C580.46 57.8111 580.988 57.6873 581.524 57.6873C582.06 57.6873 582.588 57.8111 583.068 58.049L587.402 60.5878C587.58 60.6517 587.735 60.769 587.844 60.9237C587.953 61.0784 588.011 61.2629 588.011 61.452C588.011 61.6412 587.953 61.8257 587.844 61.9804C587.735 62.1351 587.58 62.2524 587.402 62.3163L533.719 93.2682C533.239 93.5061 532.711 93.6299 532.175 93.6299C531.639 93.6299 531.111 93.5061 530.631 93.2682L526.297 90.7294C526.119 90.6655 525.964 90.5481 525.855 90.3934C525.746 90.2388 525.687 90.0542 525.688 89.8651C525.687 89.676 525.746 89.4914 525.855 89.3367C525.964 89.1821 526.119 89.0647 526.297 89.0008Z" fill="#F8F8F8"/>
<path opacity="0.6" d="M526.298 90.7297L530.632 93.2685C531.112 93.5064 531.64 93.6302 532.176 93.6302C532.712 93.6302 533.24 93.5064 533.72 93.2685L587.403 62.3167C587.581 62.2471 587.736 62.1294 587.851 61.9767C587.966 61.824 588.036 61.6425 588.053 61.4524V62.6408C588.053 62.9649 588.053 63.235 587.403 63.505L533.72 94.4029C533.24 94.6408 532.712 94.7646 532.176 94.7646C531.64 94.7646 531.112 94.6408 530.632 94.4029L526.298 91.9181C526.12 91.8485 525.965 91.7308 525.85 91.5782C525.735 91.4255 525.665 91.2439 525.648 91.0538V89.8654C525.665 90.0555 525.735 90.2371 525.85 90.3898C525.965 90.5424 526.12 90.6602 526.298 90.7297Z" fill="#D7D7DE"/>
<path d="M662.868 188.987V206.111L660.699 207.353V190.229L662.868 188.987Z" fill="#B1BFBF"/>
<path d="M660.699 187.744V190.229L662.868 188.987L660.699 187.744Z" fill="#DBEAE5"/>
<path d="M428.969 360.762L451.341 373.618C451.809 373.967 452.361 374.186 452.942 374.252C453.522 374.319 454.11 374.23 454.645 373.996C455.133 373.654 455.521 373.189 455.768 372.647C456.016 372.106 456.114 371.509 456.054 370.918V339.75C455.965 338.117 455.492 336.528 454.673 335.111C453.854 333.694 452.713 332.489 451.341 331.593L428.969 318.683C428.492 318.327 427.927 318.109 427.335 318.052C426.742 317.995 426.146 318.101 425.61 318.359C425.144 318.706 424.776 319.166 424.539 319.696C424.302 320.225 424.204 320.806 424.256 321.384V352.552C424.336 354.194 424.805 355.794 425.624 357.221C426.443 358.648 427.589 359.861 428.969 360.762Z" fill="#C3C3D2"/>
<path d="M513.799 295.617L491.481 282.761C490.999 282.416 490.435 282.205 489.845 282.148C489.256 282.091 488.661 282.191 488.122 282.437L425.609 318.682C426.145 318.425 426.742 318.319 427.334 318.376C427.927 318.433 428.492 318.651 428.968 319.007L451.34 331.863C452.712 332.758 453.854 333.963 454.673 335.38C455.491 336.797 455.964 338.386 456.053 340.019V371.187C456.114 371.779 456.015 372.376 455.768 372.917C455.52 373.458 455.133 373.924 454.645 374.266L517.158 338.291C517.642 337.945 518.026 337.478 518.273 336.938C518.52 336.398 518.621 335.803 518.566 335.212V303.774C518.471 302.136 517.99 300.544 517.162 299.127C516.333 297.709 515.181 296.507 513.799 295.617Z" fill="#E8E8EC"/>
<path d="M484.226 335.808C482.535 335.12 481.119 333.894 480.198 332.321C479.277 330.748 478.903 328.916 479.134 327.109C479.249 326.322 479.537 325.571 479.977 324.907C480.417 324.244 480.998 323.686 481.68 323.273L478.7 324.948C478.012 325.367 477.427 325.933 476.987 326.606C476.546 327.279 476.262 328.042 476.154 328.838C475.929 330.638 476.299 332.461 477.208 334.031C478.118 335.601 479.517 336.832 481.192 337.537C481.94 337.841 482.746 337.974 483.552 337.928C484.358 337.881 485.144 337.655 485.851 337.267L488.83 335.592C488.126 335.963 487.348 336.175 486.552 336.213C485.756 336.25 484.962 336.112 484.226 335.808Z" fill="#1B1818"/>
<path d="M476.145 328.837V328.135L473.762 329.486C471.909 330.586 470.378 332.151 469.32 334.024C467.044 338.022 467.044 342.29 469.32 343.641C470.097 343.969 470.952 344.072 471.785 343.938C472.618 343.804 473.397 343.439 474.032 342.885C476.524 341.426 480.262 339.049 482.104 337.86L481.021 337.536C479.375 336.805 478.012 335.563 477.133 333.995C476.254 332.427 475.908 330.618 476.145 328.837Z" fill="#C3C3D2"/>
<path d="M486.431 323.003C485.689 322.73 484.896 322.623 484.108 322.688C483.32 322.753 482.556 322.99 481.869 323.381C481.183 323.773 480.59 324.309 480.134 324.953C479.677 325.597 479.368 326.333 479.227 327.109C478.996 328.916 479.37 330.749 480.291 332.321C481.212 333.894 482.627 335.12 484.318 335.808C485.039 336.145 485.825 336.32 486.621 336.32C487.417 336.32 488.203 336.145 488.923 335.808C489.611 335.389 490.196 334.823 490.637 334.15C491.077 333.477 491.361 332.714 491.469 331.918C491.755 330.084 491.413 328.207 490.499 326.59C489.586 324.972 488.153 323.709 486.431 323.003Z" fill="#332F2F"/>
<path d="M432.764 342.233V319.6L428.918 321.815V367.621L432.764 365.461V346.879L441.811 352.064V347.473L432.764 342.233Z" fill="#474747"/>
<path d="M432.764 365.461L428.918 367.622L438.019 372.863L441.811 370.702L432.764 365.461Z" fill="#292929"/>
<path d="M438.012 354.28V349.634L428.911 344.233V321.815L424.361 324.462V366.38C424.338 367.37 424.589 368.347 425.086 369.204C425.583 370.061 426.306 370.766 427.178 371.241L438.012 377.507V372.7L428.911 367.298V349.04L438.012 354.28Z" fill="black"/>
<path d="M367.709 379.667V357.088L363.863 359.303V405.109L367.709 402.894V384.313L376.756 389.552V384.907L367.709 379.667Z" fill="#474747"/>
<path d="M367.709 402.895L363.863 405.11L372.964 410.35L376.756 408.135L367.709 402.895Z" fill="#292929"/>
<path d="M372.957 391.714V387.122L363.856 381.72V359.303L359.306 361.896V403.813C359.284 404.803 359.535 405.78 360.031 406.638C360.528 407.495 361.252 408.2 362.123 408.675L372.957 414.941V410.512L363.856 405.11V386.474L372.957 391.714Z" fill="black"/>
<path d="M352.852 413.051L448.734 357.845L452.255 359.898L356.427 415.103L360.165 425.529L356.589 423.476L352.852 413.051Z" fill="#C7C7D0"/>
<path d="M345.746 392.902L448.724 333.646L452.246 335.698L349.321 394.955L353.005 405.38L349.43 403.328L345.746 392.902Z" fill="#C7C7D0"/>
<path d="M356.434 415.103L452.261 359.897V372.483L360.171 425.528L356.434 415.103Z" fill="#D7D7DE"/>
<path d="M349.328 394.955L452.252 335.698V348.23L353.012 405.38L349.328 394.955Z" fill="#D7D7DE"/>
<path d="M87.2461 193.741V369.297L232.265 452.807V277.197L87.2461 193.741Z" fill="#F0F0F4"/>
<path d="M522.69 110.014L232.273 277.198V452.808L522.69 285.624V110.014Z" fill="#D7D7DE"/>
<path d="M377.609 26.5571L522.681 110.014L232.265 277.197L87.2461 193.74L377.609 26.5571Z" fill="white"/>
<path d="M225.208 440.545L94.3828 365.245V206.002L225.208 281.302V440.545Z" fill="#756A6A"/>
<path d="M94.3828 365.245V206.002L225.154 281.302V289.945L94.3828 365.245Z" fill="#3D3838"/>
<path opacity="0.2" d="M225.154 281.303L94.3281 205.949L163.994 325.165L225.154 360.6V281.303Z" fill="black"/>
<path d="M225.821 286.704H221V338.345H225.821V286.704Z" fill="white"/>
<path d="M225.821 338.399H221V494.724H225.821V338.399Z" fill="#D7D7DE"/>
<path d="M94.8901 341.316V353.904C94.8901 354.445 94.0769 354.931 93.101 354.931C92.1252 354.931 91.2578 354.445 91.2578 353.904V341.316H94.8901Z" fill="#615757"/>
<path d="M93.101 342.396C94.0769 342.396 94.8901 341.91 94.8901 341.316C94.8901 340.721 94.0769 340.289 93.101 340.289C92.1252 340.289 91.2578 340.775 91.2578 341.316C91.2578 341.856 92.071 342.396 93.101 342.396Z" fill="#8F8080"/>
<path d="M94.8901 280.871V293.405C94.8901 294 94.0769 294.486 93.101 294.486C92.1252 294.486 91.2578 294 91.2578 293.405V280.871H94.8901Z" fill="#615757"/>
<path d="M93.101 282.059C94.0769 282.059 94.8901 281.627 94.8901 281.033C94.8901 280.438 94.0769 280.006 93.101 280.006C92.1252 280.006 91.2578 280.438 91.2578 281.033C91.2578 281.627 92.071 282.059 93.101 282.059Z" fill="#8F8080"/>
<path d="M94.8901 220.75V233.285C94.8901 233.879 94.0769 234.311 93.101 234.311C92.1252 234.311 91.2578 233.879 91.2578 233.285V220.75H94.8901Z" fill="#615757"/>
<path d="M93.101 221.776C94.0769 221.776 94.8901 221.29 94.8901 220.75C94.8901 220.209 94.0769 219.669 93.101 219.669C92.1252 219.669 91.2578 220.155 91.2578 220.75C91.2578 221.344 92.071 221.776 93.101 221.776Z" fill="#8F8080"/>
<path d="M91.7846 209.622H2.07812V212.377H91.7846V209.622Z" fill="white"/>
<path d="M91.7846 212.377H2.07812V368.703H91.7846V212.377Z" fill="#D7D7DE"/>
<path d="M147.485 397.062L144.235 398.953C143.91 399.059 143.627 399.266 143.426 399.542C143.225 399.819 143.117 400.151 143.117 400.493C143.117 400.834 143.225 401.167 143.426 401.443C143.627 401.72 143.91 401.926 144.235 402.032C145.071 402.468 146 402.695 146.943 402.695C147.887 402.695 148.816 402.468 149.652 402.032L152.902 400.195L147.485 397.062Z" fill="#727272"/>
<path d="M149.605 402.032C148.769 402.468 147.84 402.695 146.897 402.695C145.954 402.695 145.024 402.468 144.188 402.032C143.875 401.897 143.604 401.681 143.403 401.405C143.203 401.129 143.081 400.805 143.051 400.465V403.383C143.081 403.722 143.203 404.047 143.403 404.323C143.604 404.598 143.875 404.815 144.188 404.95C145.024 405.385 145.954 405.613 146.897 405.613C147.84 405.613 148.769 405.385 149.605 404.95L152.856 403.059V400.195L149.605 402.032Z" fill="#5B5B5B"/>
<path d="M166.837 408.135L163.641 410.026C163.316 410.132 163.033 410.339 162.832 410.615C162.632 410.892 162.523 411.224 162.523 411.566C162.523 411.907 162.632 412.24 162.832 412.516C163.033 412.793 163.316 412.999 163.641 413.105C164.477 413.541 165.406 413.768 166.35 413.768C167.293 413.768 168.222 413.541 169.058 413.105L172.308 411.268L166.837 408.135Z" fill="#727272"/>
<path d="M168.891 413.105C168.054 413.541 167.125 413.768 166.182 413.768C165.239 413.768 164.31 413.541 163.473 413.105C163.16 412.97 162.889 412.754 162.689 412.478C162.488 412.202 162.367 411.878 162.336 411.538V414.456C162.372 414.793 162.496 415.116 162.695 415.39C162.895 415.665 163.163 415.883 163.473 416.023C164.31 416.458 165.239 416.686 166.182 416.686C167.125 416.686 168.054 416.458 168.891 416.023L172.141 414.132V411.268L168.891 413.105Z" fill="#5B5B5B"/>
<path d="M166.83 243.437L163.634 245.328C163.32 245.462 163.049 245.679 162.849 245.955C162.648 246.231 162.527 246.555 162.496 246.894C162.532 247.232 162.656 247.554 162.856 247.829C163.055 248.104 163.323 248.322 163.634 248.461C164.478 248.868 165.404 249.079 166.342 249.079C167.28 249.079 168.206 248.868 169.051 248.461L172.301 246.57L166.83 243.437Z" fill="#756A6A"/>
<path d="M168.891 248.461C168.046 248.868 167.12 249.079 166.182 249.079C165.244 249.079 164.318 248.868 163.473 248.461C163.163 248.322 162.895 248.104 162.695 247.829C162.496 247.554 162.372 247.232 162.336 246.894V249.758C162.367 250.097 162.488 250.421 162.689 250.697C162.889 250.973 163.16 251.19 163.473 251.325C164.31 251.76 165.239 251.988 166.182 251.988C167.125 251.988 168.054 251.76 168.891 251.325L172.141 249.488V246.57L168.891 248.461Z" fill="#615757"/>
<path d="M167.697 247.758C167.228 248 166.707 248.126 166.179 248.126C165.651 248.126 165.13 248 164.661 247.758C164.482 247.695 164.328 247.577 164.219 247.422C164.109 247.268 164.051 247.083 164.051 246.894C164.051 246.705 164.109 246.52 164.219 246.366C164.328 246.211 164.482 246.093 164.661 246.03C165.13 245.788 165.651 245.662 166.179 245.662C166.707 245.662 167.228 245.788 167.697 246.03C168.564 246.516 168.564 247.272 167.697 247.758Z" fill="#D1D1D1"/>
<path d="M147.485 232.255L144.235 234.146C143.91 234.252 143.627 234.459 143.426 234.735C143.225 235.012 143.117 235.344 143.117 235.686C143.117 236.027 143.225 236.36 143.426 236.636C143.627 236.913 143.91 237.119 144.235 237.225C145.071 237.661 146 237.889 146.943 237.889C147.887 237.889 148.816 237.661 149.652 237.225L152.902 235.389L147.485 232.255Z" fill="#756A6A"/>
<path d="M149.605 237.333C148.769 237.769 147.84 237.996 146.897 237.996C145.954 237.996 145.024 237.769 144.188 237.333C143.875 237.198 143.604 236.982 143.403 236.706C143.203 236.43 143.081 236.105 143.051 235.766V238.684C143.087 239.021 143.211 239.343 143.41 239.618C143.61 239.893 143.878 240.111 144.188 240.251C145.024 240.686 145.954 240.914 146.897 240.914C147.84 240.914 148.769 240.686 149.605 240.251L152.856 238.36V235.496L149.605 237.333Z" fill="#615757"/>
<path d="M146.95 237.009C148.147 237.009 149.118 236.453 149.118 235.766C149.118 235.08 148.147 234.524 146.95 234.524C145.752 234.524 144.781 235.08 144.781 235.766C144.781 236.453 145.752 237.009 146.95 237.009Z" fill="#D1D1D1"/>
<path d="M175.828 593.143L200.53 578.883V545.77L175.828 559.977V593.143Z" fill="#D7D7DE"/>
<path d="M142.734 574.076L175.833 593.144V559.977L142.734 540.909V574.076Z" fill="#F0F0F4"/>
<path d="M142.734 540.909L157.902 549.66L159.31 550.47L175.833 559.977L200.534 545.77L184.012 536.263L182.604 535.453L167.436 526.702L142.734 540.909Z" fill="white"/>
<g style="mix-blend-mode:soft-light" opacity="0.6">
<path d="M157.898 549.663L159.307 550.473L184.009 536.264L182.6 535.453L157.898 549.663Z" fill="#D7D7DE"/>
</g>
<path opacity="0.7" d="M164.348 564.948L173.123 570.026V563.111L164.348 558.086V564.948Z" fill="white"/>
<path d="M148.848 608.646L173.604 594.44V561.273L148.848 575.533V608.646Z" fill="#D7D7DE"/>
<path d="M115.805 589.632L148.849 608.646V575.533L115.805 556.465V589.632Z" fill="#F0F0F4"/>
<path d="M115.805 556.465L130.972 565.216L132.381 566.026L148.849 575.533L173.605 561.273L157.083 551.766L155.674 550.956L140.506 542.259L115.805 556.465Z" fill="white"/>
<g style="mix-blend-mode:soft-light" opacity="0.6">
<path d="M130.969 565.22L132.377 566.03L157.079 551.766L155.671 550.956L130.969 565.22Z" fill="#D7D7DE"/>
</g>
<path opacity="0.7" d="M137.352 580.505L146.181 585.529V578.668L137.352 573.589V580.505Z" fill="white"/>
<path d="M121.918 624.257L146.62 610.05V576.884L121.918 591.09V624.257Z" fill="#D7D7DE"/>
<path d="M88.8242 605.189L121.922 624.258V591.091L88.8242 572.077V605.189Z" fill="#F0F0F4"/>
<path d="M88.8242 572.077L104.046 580.828L105.455 581.638L121.922 591.091L146.624 576.884L130.156 567.377L128.748 566.567L113.526 557.816L88.8242 572.077Z" fill="white"/>
<g style="mix-blend-mode:soft-light" opacity="0.6">
<path d="M104.043 580.83L105.451 581.641L130.153 567.377L128.745 566.567L104.043 580.83Z" fill="#D7D7DE"/>
</g>
<path opacity="0.7" d="M110.438 596.116L119.213 601.14V594.225L110.438 589.2V596.116Z" fill="white"/>
<path d="M212.105 613.941L236.807 599.734V566.568L212.105 580.828V613.941Z" fill="#D7D7DE"/>
<path d="M179.012 594.927L212.11 613.941V580.828L179.012 561.76V594.927Z" fill="#F0F0F4"/>
<path d="M179.012 561.76L194.179 570.511L195.588 571.321L212.11 580.828L236.812 566.568L220.344 557.114L218.935 556.25L203.714 547.553L179.012 561.76Z" fill="white"/>
<g style="mix-blend-mode:soft-light" opacity="0.6">
<path d="M194.172 570.513L195.58 571.324L220.336 557.114L218.928 556.25L194.172 570.513Z" fill="#D7D7DE"/>
</g>
<path opacity="0.7" d="M200.625 585.798L209.401 590.877V583.961L200.625 578.883V585.798Z" fill="white"/>
<path d="M185.203 629.496L209.905 615.29V582.123L185.203 596.33V629.496Z" fill="#D7D7DE"/>
<path d="M152.109 610.428L185.208 629.496V596.33L152.109 577.316V610.428Z" fill="#F0F0F4"/>
<path d="M152.109 577.316L167.277 586.013L168.686 586.823L185.208 596.33L209.909 582.124L193.387 572.617L191.979 571.806L176.811 563.056L152.109 577.316Z" fill="white"/>
<g style="mix-blend-mode:soft-light" opacity="0.6">
<path d="M167.273 586.016L168.682 586.826L193.384 572.617L191.975 571.806L167.273 586.016Z" fill="#D7D7DE"/>
</g>
<path opacity="0.7" d="M173.723 601.355L182.498 606.38V599.464L173.723 594.439V601.355Z" fill="white"/>
<path d="M158.273 645L182.975 630.793V597.626L158.273 611.887V645Z" fill="#D7D7DE"/>
<path d="M125.18 625.985L158.278 644.999V611.887L125.18 592.819V625.985Z" fill="#F0F0F4"/>
<path d="M125.18 592.819L140.347 601.57L141.756 602.38L158.224 611.887L182.98 597.627L166.458 588.12L165.049 587.31L149.881 578.559L125.18 592.819Z" fill="white"/>
<g style="mix-blend-mode:soft-light" opacity="0.6">
<path d="M140.344 601.573L141.752 602.383L166.454 588.12L165.046 587.31L140.344 601.573Z" fill="#D7D7DE"/>
</g>
<path opacity="0.7" d="M146.793 616.858L155.569 621.883V615.021L146.793 609.943V616.858Z" fill="white"/>
<path d="M175.824 559.977L200.526 545.77V512.604L175.824 526.81V559.977Z" fill="#D7D7DE"/>
<path d="M142.73 540.909L175.829 559.977V526.811L142.73 507.797V540.909Z" fill="#F0F0F4"/>
<path d="M142.73 507.797L157.898 516.547L159.307 517.358L175.829 526.811L200.53 512.604L184.009 503.097L182.6 502.287L167.432 493.536L142.73 507.797Z" fill="white"/>
<g style="mix-blend-mode:soft-light" opacity="0.6">
<path d="M157.895 516.55L159.303 517.361L184.005 503.097L182.596 502.287L157.895 516.55Z" fill="#D7D7DE"/>
</g>
<path opacity="0.7" d="M164.344 531.835L173.119 536.86V529.944L164.344 524.92V531.835Z" fill="white"/>
<path d="M212.102 580.828L236.804 566.567V533.455L212.102 547.661V580.828Z" fill="#D7D7DE"/>
<path d="M179.008 561.76L212.106 580.828V547.662L179.008 528.594V561.76Z" fill="#F0F0F4"/>
<path d="M179.008 528.594L194.176 537.345L195.584 538.155L212.106 547.662L236.808 533.455L220.34 523.948L218.932 523.138L203.71 514.387L179.008 528.594Z" fill="white"/>
<g style="mix-blend-mode:soft-light" opacity="0.6">
<path d="M194.168 537.347L195.576 538.158L220.332 523.948L218.924 523.138L194.168 537.347Z" fill="#D7D7DE"/>
</g>
<path opacity="0.7" d="M200.621 552.632L209.397 557.711V550.795L200.621 545.717V552.632Z" fill="white"/>
<path d="M185.199 596.331L209.901 582.125V548.958L185.199 563.165V596.331Z" fill="#D7D7DE"/>
<path d="M152.105 577.318L185.204 596.332V563.165L152.105 544.151V577.318Z" fill="#F0F0F4"/>
<path d="M152.105 544.15L167.273 552.901L168.682 553.711L185.204 563.164L209.906 548.958L193.383 539.451L191.975 538.641L176.807 529.944L152.105 544.15Z" fill="white"/>
<g style="mix-blend-mode:soft-light" opacity="0.6">
<path d="M167.27 552.905L168.678 553.715L193.38 539.452L191.971 538.641L167.27 552.905Z" fill="#D7D7DE"/>
</g>
<path opacity="0.7" d="M173.719 568.19L182.495 573.214V566.299L173.719 561.274V568.19Z" fill="white"/>
<path d="M158.273 611.888L182.975 597.627V564.461L158.273 578.721V611.888Z" fill="#D7D7DE"/>
<path d="M125.18 592.821L158.278 611.889V578.722L125.18 559.654V592.821Z" fill="#F0F0F4"/>
<path d="M125.18 559.653L140.347 568.404L141.756 569.214L158.224 578.721L182.98 564.461L166.458 555.008L165.049 554.198L149.881 545.447L125.18 559.653Z" fill="white"/>
<g style="mix-blend-mode:soft-light" opacity="0.6">
<path d="M140.344 568.407L141.752 569.217L166.454 555.008L165.046 554.198L140.344 568.407Z" fill="#D7D7DE"/>
</g>
<path opacity="0.7" d="M146.793 583.692L155.569 588.77V581.855L146.793 576.776V583.692Z" fill="white"/>
<path d="M1.9953 533.609C-0.0614226 534.002 -0.630298 535.616 0.770024 537.187L8.55931 546.176C9.35357 546.995 10.3302 547.615 11.4098 547.986C12.4895 548.358 13.6418 548.47 14.7732 548.314C15.1922 548.318 15.6018 548.19 15.9448 547.951C16.2879 547.711 16.5473 547.37 16.687 546.976C16.8267 546.582 16.8397 546.155 16.7241 545.753C16.6085 545.352 16.3701 544.996 16.0422 544.736L8.20922 535.747C7.41495 534.929 6.43837 534.308 5.3587 533.937C4.27903 533.565 3.1267 533.453 1.9953 533.609Z" fill="#432918"/>
<path d="M13.2006 531.078L6.2428 527.936C3.60319 529.596 1.49314 531.973 0.160156 534.787L16.6139 547.354C17.9705 544.954 16.2639 540.372 13.6383 536.619C12.5005 535.005 14.0321 532.954 13.2006 531.078Z" fill="#432918"/>
<path d="M45.0992 545.871C43.3926 547.093 43.5677 548.751 45.4931 549.624L56.3456 554.425C57.4139 554.84 58.5655 554.997 59.7064 554.884C60.8472 554.77 61.9449 554.388 62.9096 553.77C64.6162 552.505 64.4412 550.846 62.5158 549.973L51.6195 545.172C50.5573 544.753 49.4088 544.597 48.2729 544.719C47.137 544.84 46.0478 545.236 45.0992 545.871Z" fill="#432918"/>
<path d="M54.1141 538.845H46.4998C44.8134 541.446 43.9168 544.477 43.918 547.574L64.0914 551.939C64.0914 549.233 60.8093 545.741 56.7834 543.515C55.1642 542.686 55.6457 540.155 54.1141 538.845Z" fill="#432918"/>
<path d="M54.9052 501.449L39.1953 505.333L38.3639 501.973L33.5941 482.598L29.043 464.009L44.7528 460.169L54.9052 501.449Z" fill="#02AAB2"/>
<path opacity="0.2" d="M38.4904 476.314C37.0463 480.023 36.2586 485.739 38.4904 502.496L32.7578 479.325C33.8936 479.365 35.0201 479.108 36.0257 478.58C37.0312 478.052 37.8809 477.27 38.4904 476.314Z" fill="#1D1D1B"/>
<path d="M54.8975 501.449C53.9348 498.7 50.8278 494.293 47.8959 494.205C45.4441 494.408 43.1608 495.531 41.507 497.347C39.9284 499.708 39.1185 502.496 39.1877 505.333C40.0629 509.696 41.1131 527.674 41.857 540.94C41.9275 541.687 42.2188 542.397 42.6939 542.98C43.1691 543.562 43.8068 543.991 44.5264 544.212C46.3978 544.929 48.4133 545.193 50.4067 544.98C52.4002 544.768 54.3144 544.086 55.9915 542.991C56.5611 542.593 57.0339 542.073 57.3747 541.469C57.7156 540.864 57.9158 540.191 57.9607 539.5C58.0045 537.841 55.9915 504.242 54.8975 501.449Z" fill="#02AAB2"/>
<path d="M34.9053 472.475C34.9053 472.475 31.7984 502.147 29.5667 507.383C28.6477 509.914 14.8633 500.707 14.8633 500.707L15.1696 497.783L17.27 468.329L34.9053 472.475Z" fill="#02AAB2"/>
<path d="M53.8524 435.907C54.4673 437.378 54.4769 439.032 53.8791 440.509C53.2813 441.987 52.1242 443.171 50.658 443.805C49.9282 444.115 49.1443 444.278 48.3513 444.285C47.5583 444.293 46.7715 444.144 46.036 443.849C45.3005 443.553 44.6307 443.115 44.0647 442.561C43.4987 442.008 43.0477 441.348 42.7374 440.62L33.6791 419.326C33.0642 417.855 33.0547 416.201 33.6525 414.723C34.2503 413.246 35.4074 412.062 36.8736 411.427C38.3542 410.817 40.0165 410.814 41.4995 411.418C42.9825 412.023 44.1665 413.187 44.7941 414.657L53.8524 435.907Z" fill="#F0F0F4"/>
<path d="M67.1139 460.867C66.2238 461.623 65.126 462.095 63.9633 462.22C62.9656 462.33 61.9559 462.193 61.0244 461.82C60.0928 461.447 59.2684 460.85 58.6245 460.081L52.148 452.271L49.7413 449.391L47.7283 446.947L45.5403 444.329L44.0524 442.54L43.8336 442.278C42.831 441.06 42.3513 439.496 42.4988 437.927C42.6464 436.358 43.4091 434.911 44.6213 433.9C45.1316 433.507 45.7101 433.211 46.3279 433.027H47.4219H48.0346C48.9342 433.025 49.8234 433.22 50.6398 433.596C51.4562 433.973 52.18 434.524 52.7606 435.209L53.1107 435.602L67.5516 453.056C68.432 454.193 68.8723 455.608 68.7919 457.043C68.7116 458.477 68.1159 459.835 67.1139 460.867Z" fill="#F0F0F4"/>
<path d="M44.0029 466.06C41.0591 469.762 36.9897 472.411 32.4065 473.609C27.2321 474.331 22.0078 474.637 16.7842 474.525C16.9724 470.157 16.8261 465.781 16.3466 461.434C16.084 459.078 15.6902 456.765 15.2526 454.409L13.2834 444.198L11.1829 433.289C10.7463 430.396 10.7463 427.455 11.1829 424.562C11.2076 424.374 11.2076 424.183 11.1829 423.995C12.1559 421.994 13.4911 420.189 15.1213 418.671C17.5514 416.454 20.2058 414.494 23.0419 412.824C25.0487 411.562 27.3297 410.799 29.6934 410.598C32.9765 410.434 36.2059 411.476 38.7704 413.527C41.3349 415.577 43.0564 418.494 43.6091 421.726C43.9128 423.027 44.0598 424.36 44.0467 425.696L44.9656 459.034C45.2282 462.045 46.2347 463.747 44.0029 466.06Z" fill="#02AAB2"/>
<path opacity="0.2" d="M47.722 446.991L44.7901 443.5C44.7901 443.5 44.1774 422.86 43.8711 421.682C45.3128 424.879 46.1723 428.307 46.4092 431.805V432.896C46.4092 433.638 46.4092 434.424 46.4092 435.165C46.6717 438.002 46.8906 440.838 47.1094 443.631C47.1305 443.878 47.1305 444.126 47.1094 444.373L47.722 446.991Z" fill="#1D1D1B"/>
<path d="M15.5571 529.289C16.118 529.731 16.5279 530.335 16.7304 531.019C16.9328 531.702 16.9179 532.432 16.6876 533.106C16.4573 533.781 16.0229 534.368 15.4443 534.787C14.8657 535.205 14.1713 535.434 13.4566 535.443C11.5097 535.707 9.52769 535.509 7.67216 534.864C5.81664 534.22 4.14006 533.147 2.77914 531.733C0.416097 529.027 1.37884 526.278 4.92341 525.623C6.86048 525.346 8.83586 525.534 10.6853 526.172C12.5348 526.809 14.205 527.878 15.5571 529.289Z" fill="#02AAB2"/>
<path d="M1.64844 527.892C5.72366 517.609 10.6261 507.671 16.308 498.176C17.7186 496.925 19.4172 496.041 21.2529 495.601C23.6289 495.444 26.0152 495.62 28.342 496.125C25.4539 495.558 30.1362 504.372 29.5674 507.209C25.7522 516.089 21.4273 524.744 16.6144 533.128C15.5204 534.481 15.5641 534.438 13.8575 534.263L1.64844 527.892Z" fill="#02AAB2"/>
<path d="M27.6407 440.751C27.5235 441 27.3221 441.201 27.0718 441.318C25.9778 441.842 24.8838 442.278 23.7461 442.714H23.3522C22.4051 443.12 21.424 443.441 20.4203 443.674C19.5748 443.718 18.7276 443.718 17.8822 443.674H14.9065C14.3677 443.718 13.8262 443.718 13.2874 443.674L11.1869 432.765V431.936C11.1869 431.936 11.1869 431.936 11.1869 431.631V431.02C10.8567 428.654 10.9307 426.249 11.4057 423.907C11.4305 423.719 11.4305 423.528 11.4057 423.34H11.8871C14.9413 422.541 18.123 422.348 21.2517 422.773H21.8206C21.9707 422.888 22.0908 423.038 22.1707 423.209C22.5645 423.907 22.9584 424.605 23.3084 425.304C25.653 429.837 27.1366 434.763 27.6844 439.834C27.747 439.895 27.796 439.968 27.828 440.048C27.8601 440.129 27.8745 440.216 27.8703 440.302C27.8662 440.389 27.8436 440.474 27.804 440.551C27.7644 440.629 27.7087 440.697 27.6407 440.751Z" fill="#F0F0F4"/>
<path d="M63.2539 457.856C63.6269 457.138 64.1927 456.537 64.8882 456.121C65.5836 455.705 66.3813 455.49 67.1923 455.499C67.9827 455.532 68.7566 455.736 69.4596 456.098C70.1626 456.46 70.7778 456.97 71.262 457.594C71.7858 458.27 72.4406 458.834 73.1874 459.253C74.1501 459.646 75.6817 459.558 76.2944 460.431C76.4317 460.615 76.5097 460.837 76.5183 461.066C76.5268 461.296 76.4654 461.522 76.3421 461.716C76.2189 461.91 76.0396 462.062 75.828 462.152C75.6163 462.242 75.3822 462.266 75.1566 462.221C74.0056 462.19 72.8733 461.923 71.8308 461.435C70.9556 461.435 69.9929 461.784 69.1177 461.435C68.0233 461.182 67.0316 460.603 66.2734 459.777L63.2539 457.856Z" fill="#D7D7DE"/>
<path d="M70.0407 469.201C70.7846 470.598 72.0974 471.252 72.7975 470.423C73.4102 471.165 75.2481 471.209 75.2919 469.856C76.2546 470.205 76.7359 468.285 76.3421 467.281C75.9482 466.278 75.7295 465.623 75.5544 465.187C75.1269 464.213 74.5674 463.303 73.8915 462.481C73.2619 461.577 72.4588 460.806 71.5285 460.212C69.4003 458.368 66.7602 457.211 63.958 456.896C63.3991 457.46 62.9933 458.156 62.7789 458.92C62.5645 459.683 62.5486 460.488 62.7327 461.26C62.8776 462.013 63.1731 462.73 63.6016 463.367C64.0301 464.004 64.5829 464.549 65.227 464.969C66.3094 465.744 67.1571 466.8 67.6776 468.023C68.6403 470.03 70.0407 469.856 70.0407 469.201Z" fill="#D7D7DE"/>
<path opacity="0.2" d="M23.7433 442.627H23.3494C22.4024 443.032 21.4213 443.354 20.4175 443.587C19.5721 443.63 18.7249 443.63 17.8794 443.587H14.9038C14.365 443.631 13.8235 443.631 13.2847 443.587L11.1842 432.678V431.849C11.1842 431.849 11.1842 431.849 11.1842 431.543V430.932C10.7665 428.572 10.841 426.151 11.403 423.82C14.2036 425.609 18.6234 430.496 20.155 429.667C21.7364 433.872 22.9373 438.209 23.7433 442.627Z" fill="#1D1D1B"/>
<path d="M41.5076 428.009C41.5076 428.009 33.1494 432.373 29.9111 434.293C29.2224 430.468 27.9065 426.782 26.0165 423.383C25.1118 421.794 23.8011 420.473 22.2176 419.553C20.6341 418.633 18.8345 418.148 17.0019 418.147C16.4504 418.2 15.9071 418.318 15.3828 418.496C17.8129 416.279 20.4673 414.319 23.3034 412.649C25.3102 411.388 27.5912 410.624 29.9549 410.424C31.1802 410.86 32.2742 411.645 33.4557 412.169C42.4265 416.096 41.5076 428.009 41.5076 428.009Z" fill="#F0F0F4"/>
<path opacity="0.2" d="M41.984 467.674C42.2106 466.823 42.2087 465.927 41.9782 465.077C41.7478 464.227 41.297 463.452 40.6712 462.831L28.112 444.46L23.4297 428.184C24.934 430.238 26.0601 432.543 26.7555 434.991C27.5364 437.984 28.5759 440.904 29.8624 443.718C30.5388 444.951 31.2838 446.146 32.0942 447.296C36.3001 452.547 40.0618 458.137 43.3405 464.009C43.7016 464.67 43.9249 465.397 43.9969 466.147C43.3965 466.743 42.7197 467.256 41.984 467.674Z" fill="#1D1D1B"/>
<path d="M35.6489 415.443C35.3038 416.094 34.7701 416.626 34.1173 416.971C32.7572 417.644 31.2595 417.994 29.7413 417.994C28.223 417.994 26.7253 417.644 25.3653 416.971C22.9147 415.53 22.9147 413.261 25.3653 411.864C25.9467 411.546 26.5636 411.297 27.2032 411.122H28.2972C30.29 410.844 32.3204 411.179 34.1173 412.082C34.8224 412.446 35.3904 413.028 35.7364 413.741C35.8396 414.015 35.885 414.308 35.87 414.601C35.8549 414.894 35.7797 415.18 35.6489 415.443Z" fill="#D7D7DE"/>
<path d="M35.913 398.293H23.4414V414.394H35.913V398.293Z" fill="#D7D7DE"/>
<path d="M25.3613 401.129C25.409 402.904 25.614 404.671 25.9739 406.409C26.3299 408.165 27.128 409.802 28.2932 411.166C29.2093 412.121 30.3477 412.835 31.6072 413.247C32.8668 413.658 34.2086 413.752 35.5137 413.522C36.1258 413.413 36.7076 413.175 37.2203 412.824C38.1423 412.033 38.7735 410.958 39.0144 409.769C40.3036 404.891 40.7476 399.829 40.3272 394.802C40.2962 394.05 40.1787 393.303 39.9771 392.577C39.5569 391.548 38.8613 390.653 37.9661 389.992C37.0709 389.33 36.0106 388.926 34.901 388.824C32.6858 388.663 30.4703 389.132 28.512 390.177C27.9561 390.418 27.4397 390.742 26.9804 391.137C26.5778 391.568 26.1981 392.019 25.8427 392.49C25.3279 395.339 25.1663 398.241 25.3613 401.129Z" fill="#D7D7DE"/>
<path opacity="0.1" d="M35.6516 415.443C34.3568 415.691 33.0202 415.609 31.7657 415.204C30.5112 414.8 29.3793 414.086 28.475 413.13C27.9486 412.514 27.4935 411.84 27.1183 411.123C26.6875 410.248 26.3642 409.325 26.1556 408.374C25.8007 406.634 25.5958 404.868 25.543 403.094C25.543 402.221 25.543 401.043 25.543 399.865C25.543 400.344 25.543 400.781 25.543 401.174C25.5931 402.962 25.798 404.744 26.1556 406.497C26.4915 408.091 27.1957 409.586 28.2123 410.861L28.475 411.166C29.3911 412.121 30.5293 412.836 31.7889 413.247C33.0484 413.658 34.3903 413.753 35.6953 413.523C35.8387 413.824 35.9094 414.154 35.9018 414.488C35.8942 414.821 35.8085 415.148 35.6516 415.443Z" fill="#1D1D1B"/>
<path d="M26.4118 400.518C26.4118 400.518 25.1865 399.777 24.7052 399.558C25.4974 402.396 25.8225 405.344 25.6679 408.286C25.6792 408.699 25.5391 409.102 25.274 409.42C25.06 409.59 24.8021 409.696 24.5301 409.726C23.9397 409.727 23.3598 409.57 22.8515 409.271C22.3432 408.971 21.9253 408.54 21.6419 408.024C21.0909 407.008 20.7348 405.898 20.5917 404.751C20.3291 403.267 20.1103 401.828 19.9353 400.388C19.2803 397.411 19.4008 394.316 20.2853 391.398C21.1611 389.309 22.6978 387.562 24.6614 386.424C26.8233 385.367 29.2129 384.858 31.6192 384.94C33.5657 384.912 35.4895 385.361 37.2205 386.249C38.9835 387.177 40.3283 388.736 40.9839 390.613C41.2238 391.395 41.2238 392.231 40.9839 393.013C40.6744 393.762 40.1784 394.419 39.5427 394.923C38.9071 395.427 38.153 395.761 37.3518 395.893C34.7053 396.57 31.905 396.308 29.4312 395.151C28.9399 394.879 28.4081 394.688 27.8559 394.584C27.5815 394.53 27.2974 394.56 27.04 394.669C26.7826 394.778 26.5638 394.961 26.4118 395.195C26.3255 395.494 26.3255 395.812 26.4118 396.111C26.4118 397.028 26.4556 400.431 26.4118 400.518Z" fill="#E9E9F0"/>
<path d="M24.663 398.25C24.9977 398.26 25.3226 398.364 25.6012 398.549C25.8798 398.734 26.101 398.993 26.2396 399.297C26.5569 400.016 26.7494 400.783 26.809 401.567C27.0519 402.541 27.0519 403.56 26.809 404.534C26.7764 404.67 26.717 404.798 26.6343 404.91C26.5516 405.023 26.4472 405.117 26.3272 405.189C26.1462 405.311 25.9326 405.376 25.7141 405.376C25.4956 405.376 25.282 405.311 25.101 405.189C24.8068 404.9 24.5951 404.539 24.4879 404.142C24.0967 403.055 23.8322 401.928 23.6996 400.781C23.5897 400.322 23.5897 399.843 23.6996 399.384C23.7458 399.127 23.8593 398.887 24.0285 398.688C24.1976 398.489 24.4165 398.338 24.663 398.25Z" fill="#D7D7DE"/>
<path d="M27.0246 450.656C26.2365 451.477 25.2374 452.066 24.1364 452.358C23.554 452.531 22.9497 452.619 22.3422 452.62C21.3093 452.636 20.2906 452.378 19.3909 451.872C18.4911 451.366 17.7426 450.63 17.2223 449.74C17.0503 449.417 16.904 449.082 16.7847 448.736L10.8771 428.227C10.6961 427.482 10.6662 426.708 10.7891 425.951C10.912 425.194 11.1852 424.469 11.5928 423.819C12.0004 423.169 12.5341 422.606 13.1627 422.164C13.7912 421.722 14.5019 421.41 15.2531 421.246C15.8348 421.07 16.4395 420.982 17.0473 420.984C18.2688 420.955 19.4665 421.323 20.4608 422.031C21.455 422.739 22.192 423.75 22.561 424.911L23.5238 428.227L28.206 444.504L28.4687 445.42C28.7031 446.343 28.6933 447.31 28.4402 448.228C28.1871 449.146 27.6993 449.983 27.0246 450.656Z" fill="#F0F0F4"/>
<path d="M56.5718 484.431L36.6172 472.954V446.206L56.5718 457.682V484.431Z" fill="#F0F0F4"/>
<path d="M83.2756 469.071L56.582 484.431V457.682L83.2756 442.322V469.071Z" fill="#D7D7DE"/>
<path d="M83.2653 442.322L71.0125 449.391L69.8748 450.002L56.5718 457.682L36.6172 446.205L49.9639 438.525L51.1018 437.871L63.3545 430.845L83.2653 442.322Z" fill="white"/>
<g style="mix-blend-mode:soft-light" opacity="0.6">
<path d="M71.0095 449.393L69.8718 450.004L49.9609 438.526L51.0987 437.871L71.0095 449.393Z" fill="black"/>
</g>
<path d="M65.8508 461.697L58.7617 465.799V460.213L65.8508 456.154V461.697Z" fill="white"/>
<path d="M37.3147 477.537C37.7143 478.295 38.248 478.975 38.89 479.544C39.4016 479.872 39.9439 480.149 40.5092 480.373L44.8852 482.162L46.2418 482.642C47.2778 482.991 48.4002 482.991 49.4362 482.642C49.592 482.615 49.7383 482.549 49.8609 482.45C49.9835 482.351 50.0785 482.221 50.1364 482.075C50.179 481.903 50.179 481.723 50.1364 481.551C50.1364 480.809 49.1299 480.329 48.4735 479.893C47.3302 478.93 46.3799 477.761 45.6729 476.446C44.9727 475.137 44.3601 473.74 43.5724 472.518C44.0063 473.513 44.6653 474.394 45.4979 475.093C45.9079 475.458 46.4125 475.7 46.9541 475.793C47.4957 475.885 48.0525 475.824 48.561 475.617C48.5815 475.53 48.5815 475.441 48.561 475.355C48.5633 475.048 48.4978 474.744 48.3693 474.465C48.2407 474.186 48.0522 473.938 47.8171 473.74C47.467 473.435 47.0294 473.26 46.6793 472.955C46.2807 472.548 45.9551 472.075 45.7166 471.558C44.4798 469.459 42.4957 467.901 40.1591 467.195C39.7094 467.128 39.2523 467.128 38.8026 467.195C37.7178 467.256 36.6718 467.619 35.7831 468.242C35.5568 468.353 35.3613 468.518 35.2142 468.722C35.0856 468.856 34.995 469.022 34.9517 469.202C34.4692 470.706 34.4692 472.323 34.9517 473.827C35.5913 475.152 36.3844 476.396 37.3147 477.537Z" fill="#D7D7DE"/>
<path d="M41.3853 468.809C40.0574 470.427 38.32 471.662 36.3529 472.387C34.1211 473.347 32.5458 472.387 30.7079 469.551L17.5799 450.438C17.4098 450.206 17.2632 449.957 17.1422 449.696C16.5183 448.401 16.3828 446.926 16.7605 445.54C17.1382 444.153 18.0038 442.949 19.199 442.147C20.1796 441.445 21.3615 441.078 22.5685 441.1H23.2687C24.1427 441.183 24.9875 441.457 25.7437 441.902C26.4998 442.347 27.1488 442.952 27.6447 443.674L28.1261 444.416L40.6852 462.787C41.5014 463.543 42.0202 464.565 42.1486 465.669C42.2769 466.773 42.0063 467.886 41.3853 468.809Z" fill="#F0F0F4"/>
<path d="M41.6889 389.609L42.1265 395.064C37.6673 395.871 33.4399 397.643 29.7424 400.256C26.5416 399.864 23.5976 398.311 21.4718 395.893C20.9428 395.321 20.4599 394.708 20.0277 394.06C19.7708 392.434 19.9514 390.77 20.5511 389.236C21.1508 387.703 22.1481 386.356 23.4409 385.333C25.9698 383.654 28.979 382.844 32.0117 383.025C35.0443 383.206 37.9349 384.369 40.2448 386.336C40.7036 386.749 41.0695 387.254 41.3184 387.819C41.5673 388.383 41.6936 388.993 41.6889 389.609Z" fill="#02AAB2"/>
<path opacity="0.1" d="M29.7433 400.258C26.5425 399.866 23.5985 398.312 21.4727 395.894L21.9978 396.243C22.9647 396.816 24.0119 397.243 25.1047 397.509C25.3584 397.626 25.6347 397.687 25.9143 397.687C26.1939 397.687 26.4702 397.626 26.7238 397.509C27.0279 397.234 27.2286 396.865 27.2927 396.461C27.811 394.437 28.0466 392.352 27.9929 390.263L28.2555 394.628C28.2217 395.662 28.4633 396.686 28.9557 397.596C29.2977 397.933 29.5921 398.314 29.8308 398.731C29.9335 398.975 29.9789 399.24 29.9638 399.504C29.9486 399.769 29.8732 400.027 29.7433 400.258Z" fill="black"/>
<path d="M47.4608 400.956C47.4608 400.956 47.7672 400.956 47.4608 400.607C45.727 398.659 43.8862 396.808 41.947 395.064C41.0972 394.745 40.2177 394.511 39.3215 394.365C37.0821 394.394 34.8752 394.904 32.8514 395.861C30.8275 396.817 29.0342 398.198 27.5938 399.908C28.6016 401.129 29.7636 402.215 31.0508 403.138C31.7072 403.691 32.522 404.023 33.3789 404.085C34.2357 404.148 35.0904 403.939 35.8207 403.487C37.462 402.251 39.3526 401.384 41.3622 400.947C43.3718 400.51 45.4525 400.513 47.4608 400.956Z" fill="#65B8BC"/>
<path d="M30.4414 443.197L43.3943 435.734V432.417L30.4414 439.88V443.197Z" fill="#02AAB2"/>
<path d="M5.10246 519.733L6.50281 516.722C6.24792 517.409 6.18248 518.153 6.31331 518.874C6.44415 519.596 6.76646 520.269 7.24673 520.824C8.47202 522.485 10.0651 523.841 11.9018 524.788C13.7386 525.734 15.7696 526.245 17.8366 526.28C18.5382 526.312 19.2363 526.164 19.8644 525.851C20.4925 525.538 21.0298 525.069 21.425 524.491L19.9809 527.284C19.5878 527.896 19.0318 528.388 18.3751 528.704C17.7184 529.02 16.9866 529.148 16.2613 529.073C14.1935 529.067 12.1565 528.573 10.3163 527.633C8.47598 526.692 6.88446 525.331 5.67136 523.661C5.21798 523.125 4.92437 522.473 4.82382 521.778C4.72327 521.084 4.81978 520.376 5.10246 519.733Z" fill="#02AAB2"/>
<path d="M41.2539 529.9C41.3773 530.613 41.6899 531.281 42.1593 531.834C42.6286 532.386 43.2377 532.804 43.9233 533.042C45.7716 533.779 47.7707 534.06 49.7512 533.863C51.7318 533.665 53.6354 532.995 55.3008 531.907C55.8947 531.546 56.3869 531.04 56.7312 530.437C57.0756 529.834 57.261 529.153 57.27 528.459V531.646C57.2938 532.352 57.1278 533.053 56.7893 533.674C56.4508 534.296 55.9521 534.816 55.3446 535.181C53.6645 536.272 51.746 536.945 49.7508 537.142C47.7555 537.34 45.7419 537.056 43.8795 536.316C42.2166 535.53 41.2977 534.439 41.2539 533.217V529.9Z" fill="#02AAB2"/>
<path d="M483.961 564.892L508.663 550.632V517.519L483.961 531.726V564.892Z" fill="#D7D7DE"/>
<path d="M450.867 545.824L483.966 564.892V531.726L450.867 512.711V545.824Z" fill="#D7D7DE"/>
<path d="M450.867 512.712L466.035 521.409L467.443 522.219L483.966 531.726L508.667 517.519L492.145 508.012L490.737 507.202L475.569 498.451L450.867 512.712Z" fill="white"/>
<g style="mix-blend-mode:soft-light" opacity="0.6">
<path d="M466.035 521.411L467.443 522.222L492.145 508.012L490.737 507.202L466.035 521.411Z" fill="black"/>
</g>
<path opacity="0.7" d="M472.484 536.697L481.26 541.776V534.86L472.484 529.835V536.697Z" fill="white"/>
<path d="M456.984 580.395L481.74 566.189V533.022L456.984 547.228V580.395Z" fill="#D7D7DE"/>
<path d="M423.941 561.381L456.986 580.395V547.228L423.941 528.214V561.381Z" fill="#D7D7DE"/>
<path d="M423.941 528.214L439.109 536.965L440.518 537.775L456.986 547.228L481.742 533.022L465.219 523.515L463.811 522.705L448.643 514.008L423.941 528.214Z" fill="white"/>
<g style="mix-blend-mode:soft-light" opacity="0.6">
<path d="M439.109 536.969L440.518 537.779L465.219 523.516L463.811 522.705L439.109 536.969Z" fill="black"/>
</g>
<path opacity="0.7" d="M445.547 552.253L454.322 557.277V550.362L445.547 545.337V552.253Z" fill="white"/>
<path d="M430.055 596.006L454.756 581.799V548.633L430.055 562.839V596.006Z" fill="#D7D7DE"/>
<path d="M397.012 576.938L430.056 596.007V562.84L397.012 543.826V576.938Z" fill="#F0F0F4"/>
<path d="M397.012 543.826L412.18 552.577L413.588 553.387L430.056 562.84L454.758 548.633L438.29 539.126L436.881 538.316L421.714 529.565L397.012 543.826Z" fill="white"/>
<g style="mix-blend-mode:soft-light" opacity="0.6">
<path d="M412.18 552.579L413.588 553.39L438.29 539.126L436.881 538.316L412.18 552.579Z" fill="black"/>
</g>
<path opacity="0.7" d="M418.578 567.865L427.408 572.889V565.974L418.578 560.949V567.865Z" fill="white"/>
<path d="M520.238 585.744L544.94 571.483V538.316L520.238 552.577V585.744Z" fill="#D7D7DE"/>
<path d="M487.145 566.675L520.243 585.743V552.577L487.145 533.509V566.675Z" fill="#D7D7DE"/>
<path d="M487.145 533.509L502.366 542.26L503.775 543.07L520.243 552.577L544.944 538.316L528.477 528.863L527.068 528.053L511.846 519.302L487.145 533.509Z" fill="white"/>
<g style="mix-blend-mode:soft-light" opacity="0.6">
<path d="M502.363 542.262L503.772 543.072L528.474 528.863L527.065 528.052L502.363 542.262Z" fill="black"/>
</g>
<path opacity="0.7" d="M508.762 557.548L517.537 562.627V555.711L508.762 550.632V557.548Z" fill="white"/>
<path d="M493.34 601.245L518.042 586.985V553.872L493.34 568.079V601.245Z" fill="#D7D7DE"/>
<path d="M460.246 582.178L493.344 601.246V568.08L460.246 549.011V582.178Z" fill="#D7D7DE"/>
<path d="M460.246 549.011L475.414 557.762L476.822 558.572L493.344 568.079L518.046 553.873L501.578 544.366L500.116 543.555L484.948 534.805L460.246 549.011Z" fill="white"/>
<g style="mix-blend-mode:soft-light" opacity="0.6">
<path d="M475.414 557.764L476.823 558.575L501.579 544.365L500.116 543.555L475.414 557.764Z" fill="black"/>
</g>
<path opacity="0.7" d="M481.848 573.05L490.623 578.129V571.213L481.848 566.188V573.05Z" fill="white"/>
<path d="M466.41 616.75L491.112 602.543V569.376L466.41 583.637V616.75Z" fill="#D7D7DE"/>
<path d="M433.312 597.735L466.411 616.749V583.637L433.312 564.569V597.735Z" fill="#F0F0F4"/>
<path d="M433.312 564.569L448.48 573.319L449.889 574.13L466.411 583.637L491.112 569.376L474.59 559.923L473.182 559.059L458.014 550.362L433.312 564.569Z" fill="white"/>
<g style="mix-blend-mode:soft-light" opacity="0.6">
<path d="M448.48 573.323L449.889 574.133L474.591 559.924L473.182 559.059L448.48 573.323Z" fill="black"/>
</g>
<path opacity="0.7" d="M454.93 588.608L463.705 593.687V586.771L454.93 581.692V588.608Z" fill="white"/>
<path d="M483.961 531.726L508.663 517.52V484.353L483.961 498.56V531.726Z" fill="#D7D7DE"/>
<path d="M450.867 512.712L483.966 531.727V498.56L450.867 479.546V512.712Z" fill="#D7D7DE"/>
<path d="M450.867 479.546L466.035 488.296L467.443 489.107L483.966 498.56L508.667 484.353L492.145 474.846L490.737 474.036L475.569 465.285L450.867 479.546Z" fill="white"/>
<g style="mix-blend-mode:soft-light" opacity="0.6">
<path d="M466.035 488.299L467.443 489.11L492.145 474.846L490.737 474.036L466.035 488.299Z" fill="black"/>
</g>
<path opacity="0.7" d="M472.484 503.585L481.26 508.61V501.748L472.484 496.669V503.585Z" fill="white"/>
<path d="M456.984 547.229L481.74 533.022V499.91L456.984 514.116V547.229Z" fill="#D7D7DE"/>
<path d="M423.941 528.215L456.986 547.229V514.117L423.941 495.049V528.215Z" fill="#D7D7DE"/>
<path d="M423.941 495.048L439.109 503.799L440.518 504.609L456.986 514.116L481.742 499.91L465.219 490.403L463.811 489.592L448.643 480.842L423.941 495.048Z" fill="white"/>
<g style="mix-blend-mode:soft-light" opacity="0.6">
<path d="M439.109 503.802L440.518 504.612L465.219 490.403L463.811 489.592L439.109 503.802Z" fill="black"/>
</g>
<path opacity="0.7" d="M445.547 519.088L454.322 524.166V517.251L445.547 512.172V519.088Z" fill="white"/>
<path d="M430.055 562.841L454.756 548.635V515.468L430.055 529.729V562.841Z" fill="#D7D7DE"/>
<path d="M397.012 543.827L430.056 562.841V529.729L397.012 510.661V543.827Z" fill="#F0F0F4"/>
<path d="M397.012 510.66L412.18 519.411L413.588 520.221L430.056 529.728L454.758 515.467L438.29 506.014L436.881 505.204L421.714 496.453L397.012 510.66Z" fill="white"/>
<g style="mix-blend-mode:soft-light" opacity="0.6">
<path d="M412.18 519.414L413.588 520.224L438.29 506.015L436.881 505.204L412.18 519.414Z" fill="black"/>
</g>
<path opacity="0.7" d="M418.578 534.699L427.408 539.778V532.862L418.578 527.784V534.699Z" fill="white"/>
<path d="M520.238 552.577L544.94 538.317V505.204L520.238 519.411V552.577Z" fill="#D7D7DE"/>
<path d="M487.145 533.51L520.243 552.578V519.411L487.145 500.343V533.51Z" fill="#D7D7DE"/>
<path d="M487.145 500.343L502.366 509.094L503.775 509.904L520.243 519.411L544.944 505.204L528.477 495.697L527.068 494.887L511.846 486.136L487.145 500.343Z" fill="white"/>
<g style="mix-blend-mode:soft-light" opacity="0.6">
<path d="M502.363 509.096L503.772 509.907L528.474 495.697L527.065 494.887L502.363 509.096Z" fill="black"/>
</g>
<path opacity="0.7" d="M508.762 524.382L517.537 529.46V522.545L508.762 517.52V524.382Z" fill="white"/>
<path d="M493.34 568.08L518.042 553.874V520.707L493.34 534.914V568.08Z" fill="#D7D7DE"/>
<path d="M460.246 549.012L493.344 568.081V534.914L460.246 515.9V549.012Z" fill="#D7D7DE"/>
<path d="M460.246 515.899L475.414 524.65L476.822 525.46L493.344 534.913L518.046 520.707L501.578 511.2L500.116 510.39L484.948 501.693L460.246 515.899Z" fill="white"/>
<g style="mix-blend-mode:soft-light" opacity="0.6">
<path d="M475.414 524.653L476.823 525.464L501.579 511.2L500.116 510.39L475.414 524.653Z" fill="black"/>
</g>
<path opacity="0.7" d="M481.848 539.939L490.623 544.963V538.048L481.848 533.023V539.939Z" fill="white"/>
<path d="M466.41 583.637L491.112 569.376V536.264L466.41 550.47V583.637Z" fill="#D7D7DE"/>
<path d="M433.312 564.57L466.411 583.638V550.471L433.312 531.403V564.57Z" fill="#F0F0F4"/>
<path d="M433.312 531.402L448.48 540.153L449.889 540.963L466.411 550.47L491.112 536.264L474.59 526.757L473.182 525.947L458.014 517.196L433.312 531.402Z" fill="white"/>
<g style="mix-blend-mode:soft-light" opacity="0.6">
<path d="M448.48 540.156L449.889 540.966L474.591 526.757L473.182 525.947L448.48 540.156Z" fill="black"/>
</g>
<path opacity="0.7" d="M454.93 555.442L463.705 560.52V553.605L454.93 548.526V555.442Z" fill="white"/>
</g>
<defs>
<clipPath id="clip0_154_6265">
<rect width="690" height="645" fill="white"/>
</clipPath>
</defs>
</svg>
