<svg width="249" height="178" viewBox="0 0 249 178" fill="none" xmlns="http://www.w3.org/2000/svg">
<g clip-path="url(#clip0_281_30956)">
<path d="M0 19.3483L8.00843 14.7285L20.4555 19.7937L12.4399 24.4134L0 19.3483Z" fill="#319196"/>
<path d="M26.9724 44.8179L34.9808 40.1981L37.0662 55.5446L29.0506 60.1643L26.9724 44.8179Z" fill="#0A484A"/>
<path d="M18.0444 14.7501L26.0529 10.1304L31.5777 26.1737L23.5692 30.7935L18.0444 14.7501Z" fill="#319196"/>
<path d="M23.5691 30.7934L31.5775 26.1737L44.0101 35.3557L36.0017 39.9754L23.5691 30.7934Z" fill="#319196"/>
<path d="M18.0443 14.7501L23.5691 30.7935L36.0017 39.9755L26.9723 44.8179L29.0505 60.1644L17.9502 47.1242L6.80645 47.4188L8.96423 34.5079L0 19.3483L12.4399 24.4135L18.0443 14.7501Z" fill="#116266"/>
<path d="M37.9133 10.7842L45.9218 6.16443L62.5975 12.9467L54.5891 17.5665L37.9133 10.7842Z" fill="#319196"/>
<path d="M74.0598 44.9256L82.0682 40.3059L84.8632 60.8612L76.8476 65.481L74.0598 44.9256Z" fill="#0A484A"/>
<path d="M62.0906 4.61974L70.099 0L77.5064 21.4893L69.498 26.1091L62.0906 4.61974Z" fill="#319196"/>
<path d="M69.498 26.1091L77.5065 21.4894L94.1678 33.8039L86.1594 38.4236L69.498 26.1091Z" fill="#319196"/>
<path d="M62.0907 4.61975L69.4981 26.1091L86.1594 38.4236L74.0599 44.9257L76.8476 65.481L61.9676 48.0007L47.0369 48.3959L49.9332 31.1024L37.9133 10.7842L54.5891 17.5665L62.0907 4.61975Z" fill="#116266"/>
<path d="M93.7046 19.5207L101.72 14.901L120.344 22.4808L112.328 27.1006L93.7046 19.5207Z" fill="#319196"/>
<path d="M134.073 57.6426L142.081 53.0228L145.202 75.9778L137.193 80.5976L134.073 57.6426Z" fill="#0A484A"/>
<path d="M120.713 12.6378L128.722 8.01807L136.991 32.022L128.975 36.6418L120.713 12.6378Z" fill="#319196"/>
<path d="M128.975 36.6417L136.991 32.022L155.593 45.7662L147.584 50.386L128.975 36.6417Z" fill="#319196"/>
<path d="M120.713 12.6378L128.975 36.6418L147.584 50.386L134.073 57.6425L137.193 80.5975L120.576 61.084L103.893 61.5223L107.129 42.2099L93.7046 19.5207L112.328 27.1005L120.713 12.6378Z" fill="#116266"/>
<path d="M154.463 77.9608L162.471 73.3411L179.147 80.1306L171.139 84.7431L154.463 77.9608Z" fill="#319196"/>
<path d="M190.609 112.095L198.618 107.475L201.413 128.038L193.404 132.658L190.609 112.095Z" fill="#0A484A"/>
<path d="M178.64 71.7964L186.656 67.1766L194.056 88.6731L186.048 93.2857L178.64 71.7964Z" fill="#319196"/>
<path d="M186.048 93.2856L194.056 88.6731L210.717 100.98L202.709 105.6L186.048 93.2856Z" fill="#319196"/>
<path d="M178.64 71.7964L186.048 93.2857L202.709 105.6L190.609 112.095L193.404 132.658L178.517 115.177L163.586 115.573L166.483 98.2719L154.463 77.9608L171.139 84.7431L178.64 71.7964Z" fill="#116266"/>
<path d="M204.983 137.184L212.991 132.564L225.445 137.636L217.43 142.256L204.983 137.184Z" fill="#319196"/>
<path d="M231.962 162.661L239.971 158.041L242.056 173.387L234.04 178L231.962 162.661Z" fill="#0A484A"/>
<path d="M223.034 132.593L231.043 127.973L236.567 144.009L228.552 148.629L223.034 132.593Z" fill="#319196"/>
<path d="M228.552 148.629L236.567 144.009L249 153.191L240.992 157.811L228.552 148.629Z" fill="#319196"/>
<path d="M223.034 132.593L228.552 148.629L240.992 157.811L231.962 162.661L234.04 178L222.94 164.967L211.789 165.254L213.954 152.351L204.983 137.184L217.43 142.256L223.034 132.593Z" fill="#116266"/>
</g>
<defs>
<clipPath id="clip0_281_30956">
<rect width="249" height="178" fill="white"/>
</clipPath>
</defs>
</svg>
