<svg width="40" height="40" viewBox="0 0 40 40" fill="none" xmlns="http://www.w3.org/2000/svg">
<path fill-rule="evenodd" clip-rule="evenodd" d="M5.76413 19.2571C5.12481 20.2983 4.85549 23.577 5.07573 25.7533C5.15375 26.472 5.28212 27.0708 5.46712 27.4283C5.72259 27.922 6.15298 28.217 6.6438 28.2332C6.95842 28.2507 7.1535 28.1958 13.0634 26.2645C13.0634 26.2645 15.6899 25.4145 15.7012 25.4083C16.3556 25.2408 16.7961 24.6283 16.8401 23.8458C16.8817 23.0458 16.4739 22.3371 15.8031 22.0821C15.8031 22.0821 13.9532 21.3146 13.9481 21.3146C7.59776 18.6534 7.31333 18.5484 6.99241 18.5446C6.50286 18.5259 6.06491 18.7759 5.76413 19.2571ZM19.971 39.0865C20.0742 38.7853 20.0856 38.5765 20.1032 32.2679C20.1032 32.2679 20.1183 29.4816 20.1195 29.4516C20.1611 28.7704 19.7281 28.1491 19.0133 27.8679C18.2796 27.5816 17.4905 27.7591 17.0475 28.3216C17.0475 28.3216 15.7526 29.8841 15.7475 29.8841C11.2962 35.1928 11.1137 35.4378 11.0043 35.7528C10.9388 35.9403 10.9111 36.1353 10.935 36.3315C10.9615 36.6115 11.0848 36.8915 11.2937 37.149C12.3244 38.3965 17.2728 40.2465 18.8522 39.9727C19.4022 39.8702 19.7999 39.5565 19.971 39.0865ZM30.0055 36.8913C31.4968 36.2875 34.7526 32.0813 34.9816 30.4626C35.0596 29.9001 34.8872 29.4139 34.5046 29.1051C34.2555 28.9139 34.0616 28.8389 28.1568 26.8702C28.1568 26.8702 25.5668 26.0001 25.5328 25.9839C24.9074 25.7376 24.19 25.9639 23.7093 26.5701C23.2109 27.1889 23.1329 28.0026 23.5318 28.6214L24.5751 30.3451C28.0825 36.1313 28.3493 36.5401 28.6023 36.7401C28.9924 37.0526 29.4883 37.1038 30.0055 36.8913ZM26.9562 21.9982C33.6677 20.347 33.927 20.2582 34.1925 20.082C34.5978 19.8057 34.8016 19.3395 34.7677 18.772C34.7677 18.7532 34.7702 18.7357 34.7677 18.7145C34.5952 17.042 31.7058 12.6845 30.2837 11.9783C29.7803 11.7321 29.2743 11.7495 28.859 12.0333C28.5998 12.2058 28.4072 12.4646 24.8142 17.457C24.8142 17.457 23.1895 19.7057 23.1706 19.727C22.7415 20.2545 22.7377 21.0144 23.1543 21.6644C23.5872 22.3369 24.3196 22.6644 24.9904 22.4757C24.9904 22.4757 24.9627 22.5232 24.9552 22.5332C25.2862 22.4045 25.8789 22.2582 26.9562 21.9982ZM20.2156 16.3672C20.101 13.666 19.3019 1.63118 19.2075 1.07244C19.0691 0.568694 18.6827 0.20743 18.1227 0.0636809C16.4111 -0.368814 9.86317 1.49739 8.64873 2.76988C8.25985 3.18237 8.11385 3.69239 8.23089 4.14113C8.42092 4.54113 16.537 17.511 16.537 17.511C17.7376 19.4872 18.7154 19.181 19.0351 19.0797C19.3535 18.9785 20.3263 18.6722 20.2156 16.3672Z" fill="#D32200"/>
</svg>
