<svg width="40" height="40" viewBox="0 0 40 40" fill="none" xmlns="http://www.w3.org/2000/svg">
<path d="M33.1688 6.67226L20.4421 2.06885C20.1568 1.97705 19.8506 1.97705 19.5653 2.06885L6.83558 6.67226C6.59451 6.7618 6.3857 6.92347 6.23657 7.13603C6.08744 7.34859 6.00497 7.60209 6 7.86324V22.5164C6 25.9484 7.96295 28.7773 10.5213 31.1908C13.0811 33.6012 16.3011 35.6952 19.2573 37.7726C19.4773 37.9209 19.7354 38 19.9993 38C20.2632 38 20.5212 37.9209 20.7413 37.7726C23.7034 35.6952 26.9219 33.6027 29.4802 31.1908C32.04 28.7803 34 25.9484 34 22.5164V7.86324C33.9972 7.60216 33.9161 7.34819 33.7676 7.13533C33.619 6.92248 33.4101 6.76091 33.1688 6.67226ZM21.6947 23.8649C21.6947 25.1339 21.3558 26.3804 20.7147 27.4798L20.0029 28.6948L19.2926 27.4798C18.6523 26.3866 18.3137 25.1377 18.3126 23.8649V18.063C19.1512 16.9126 20.4038 16.5031 21.6947 16.5031V23.8649ZM26.9528 15.1906H13.0501V12.0677H26.9528V15.1906Z" fill="#009FD9"/>
</svg>
