<svg width="100" height="100" viewBox="0 0 100 100" fill="none" xmlns="http://www.w3.org/2000/svg">
<path d="M15.5432 76.896L16.1107 75.7822L15.5432 76.896ZM6.43867 67.7915L7.55242 67.224L6.43867 67.7915ZM93.5639 67.7915L92.4502 67.224L93.5639 67.7915ZM84.4594 76.896L83.8919 75.7822L84.4594 76.896ZM84.4594 14.7707L83.8919 15.8845L84.4594 14.7707ZM93.5639 23.8752L92.4502 24.4427L93.5639 23.8752ZM15.5432 14.7707L16.1107 15.8845L15.5432 14.7707ZM6.43867 23.8752L7.55242 24.4427L6.43867 23.8752ZM33.0315 94.6207C32.3617 94.7881 31.9545 95.4668 32.122 96.1365C32.2894 96.8063 32.9681 97.2135 33.6378 97.046L33.0315 94.6207ZM39.8957 94.1931L39.5925 92.9804H39.5925L39.8957 94.1931ZM60.1069 94.1931L60.4101 92.9804L60.1069 94.1931ZM66.3648 97.046C67.0345 97.2135 67.7132 96.8063 67.8806 96.1365C68.0481 95.4668 67.6409 94.7881 66.9711 94.6207L66.3648 97.046ZM51.2513 79.1667C51.2513 78.4763 50.6917 77.9167 50.0013 77.9167C49.3109 77.9167 48.7513 78.4763 48.7513 79.1667H51.2513ZM50.0013 65.4167C49.3109 65.4167 48.7513 65.9763 48.7513 66.6667C48.7513 67.357 49.3109 67.9167 50.0013 67.9167V65.4167ZM75.0013 67.9167C75.6917 67.9167 76.2513 67.357 76.2513 66.6667C76.2513 65.9763 75.6917 65.4167 75.0013 65.4167V67.9167ZM50.0013 92.949V94.199V92.949ZM37.5013 13.75H62.5013V11.25H37.5013V13.75ZM62.5013 77.9167H37.5013V80.4167H62.5013V77.9167ZM37.5013 77.9167C31.6468 77.9167 27.3311 77.9157 23.9198 77.637C20.5231 77.3595 18.1333 76.8128 16.1107 75.7822L14.9757 78.0097C17.4095 79.2498 20.1649 79.8385 23.7162 80.1287C27.2529 80.4176 31.688 80.4167 37.5013 80.4167V77.9167ZM2.91797 45.8333C2.91797 51.6466 2.917 56.0817 3.20596 59.6184C3.49611 63.1697 4.08481 65.9251 5.32491 68.359L7.55242 67.224C6.52183 65.2013 5.97518 62.8115 5.69765 59.4148C5.41894 56.0035 5.41797 51.6878 5.41797 45.8333H2.91797ZM16.1107 75.7822C12.4258 73.9047 9.42994 70.9088 7.55242 67.224L5.32491 68.359C7.44211 72.5142 10.8204 75.8925 14.9757 78.0097L16.1107 75.7822ZM94.5846 45.8333C94.5846 51.6878 94.5837 56.0035 94.3049 59.4148C94.0274 62.8115 93.4808 65.2013 92.4502 67.224L94.6777 68.359C95.9178 65.9251 96.5065 63.1697 96.7966 59.6184C97.0856 56.0817 97.0846 51.6466 97.0846 45.8333H94.5846ZM62.5013 80.4167C68.3146 80.4167 72.7497 80.4176 76.2864 80.1287C79.8377 79.8385 82.5931 79.2498 85.0269 78.0097L83.8919 75.7822C81.8693 76.8128 79.4795 77.3595 76.0828 77.637C72.6715 77.9157 68.3558 77.9167 62.5013 77.9167V80.4167ZM92.4502 67.224C90.5727 70.9088 87.5768 73.9047 83.8919 75.7822L85.0269 78.0097C89.1822 75.8925 92.5605 72.5142 94.6777 68.359L92.4502 67.224ZM62.5013 13.75C68.3558 13.75 72.6715 13.751 76.0828 14.0297C79.4795 14.3072 81.8693 14.8539 83.8919 15.8845L85.0269 13.6569C82.5931 12.4168 79.8377 11.8281 76.2864 11.538C72.7497 11.249 68.3146 11.25 62.5013 11.25V13.75ZM97.0846 45.8333C97.0846 40.0201 97.0856 35.585 96.7966 32.0483C96.5065 28.4969 95.9178 25.7415 94.6777 23.3077L92.4502 24.4427C93.4808 26.4653 94.0274 28.8551 94.3049 32.2518C94.5837 35.6631 94.5846 39.9788 94.5846 45.8333H97.0846ZM83.8919 15.8845C87.5768 17.762 90.5727 20.7578 92.4502 24.4427L94.6777 23.3077C92.5605 19.1525 89.1822 15.7741 85.0269 13.6569L83.8919 15.8845ZM37.5013 11.25C31.688 11.25 27.2529 11.249 23.7162 11.538C20.1649 11.8281 17.4095 12.4168 14.9757 13.6569L16.1107 15.8845C18.1333 14.8539 20.5231 14.3072 23.9198 14.0297C27.3311 13.751 31.6468 13.75 37.5013 13.75V11.25ZM5.41797 45.8333C5.41797 39.9788 5.41894 35.6631 5.69765 32.2518C5.97518 28.8551 6.52183 26.4653 7.55242 24.4427L5.32491 23.3077C4.08481 25.7415 3.49611 28.4969 3.20596 32.0483C2.917 35.585 2.91797 40.0201 2.91797 45.8333H5.41797ZM14.9757 13.6569C10.8204 15.7741 7.44211 19.1525 5.32491 23.3077L7.55242 24.4427C9.42994 20.7578 12.4258 17.762 16.1107 15.8845L14.9757 13.6569ZM33.6378 97.046L40.1988 95.4058L39.5925 92.9804L33.0315 94.6207L33.6378 97.046ZM59.8038 95.4058L66.3648 97.046L66.9711 94.6207L60.4101 92.9804L59.8038 95.4058ZM51.2513 91.6667V79.1667H48.7513V91.6667H51.2513ZM50.0013 67.9167L75.0013 67.9167V65.4167L50.0013 65.4167V67.9167ZM40.1988 95.4058C43.4168 94.6013 46.709 94.199 50.0013 94.199V91.699C46.5054 91.699 43.0095 92.1262 39.5925 92.9804L40.1988 95.4058ZM50.0013 94.199C53.2936 94.199 56.5858 94.6013 59.8038 95.4058L60.4101 92.9804C56.9931 92.1262 53.4972 91.699 50.0013 91.699V94.199ZM48.7513 91.6667V92.949H51.2513V91.6667H48.7513Z" fill="#E0E0E0"/>
<path d="M8 16C8 16.5523 7.55228 17 7 17C6.44772 17 6 16.5523 6 16C6 15.4477 6.44772 15 7 15C7.55228 15 8 15.4477 8 16Z" fill="#E0E0E0"/>
</svg>
