<svg width="100" height="100" viewBox="0 0 100 100" fill="none" xmlns="http://www.w3.org/2000/svg">
<path d="M51.2487 34.3749C51.2487 33.6846 50.6891 33.1249 49.9987 33.1249C49.3084 33.1249 48.7487 33.6846 48.7487 34.3749H51.2487ZM40.7559 63.1896C40.2823 63.6919 40.3056 64.483 40.8079 64.9566C41.3102 65.4302 42.1013 65.4069 42.5749 64.9046L40.7559 63.1896ZM11.7178 12.5655C11.1788 12.9968 11.0914 13.7834 11.5226 14.3225C11.9539 14.8615 12.7405 14.9489 13.2796 14.5177L11.7178 12.5655ZM23.6962 6.18434C24.2353 5.75308 24.3227 4.96646 23.8915 4.42738C23.4602 3.88831 22.6736 3.8009 22.1345 4.23217L23.6962 6.18434ZM86.7178 14.5177C87.2569 14.9489 88.0435 14.8615 88.4748 14.3225C88.9061 13.7834 88.8186 12.9968 88.2796 12.5655L86.7178 14.5177ZM77.8629 4.23217C77.3238 3.8009 76.5372 3.88831 76.1059 4.42738C75.6747 4.96646 75.7621 5.75308 76.3012 6.18434L77.8629 4.23217ZM49.4539 55.7861L48.5444 54.9286L49.4539 55.7861ZM48.7487 34.3749V54.4141H51.2487V34.3749H48.7487ZM42.5749 64.9046L50.3634 56.6436L48.5444 54.9286L40.7559 63.1896L42.5749 64.9046ZM13.2796 14.5177L23.6962 6.18434L22.1345 4.23217L11.7178 12.5655L13.2796 14.5177ZM88.2796 12.5655L77.8629 4.23217L76.3012 6.18434L86.7178 14.5177L88.2796 12.5655ZM90.4154 51.0416C90.4154 73.3631 72.3202 91.4582 49.9987 91.4582V93.9582C73.7009 93.9582 92.9154 74.7438 92.9154 51.0416H90.4154ZM49.9987 91.4582C27.6772 91.4582 9.58203 73.3631 9.58203 51.0416H7.08203C7.08203 74.7438 26.2965 93.9582 49.9987 93.9582V91.4582ZM9.58203 51.0416C9.58203 28.7201 27.6772 10.6249 49.9987 10.6249V8.12491C26.2965 8.12491 7.08203 27.3394 7.08203 51.0416H9.58203ZM49.9987 10.6249C72.3202 10.6249 90.4154 28.7201 90.4154 51.0416H92.9154C92.9154 27.3394 73.7009 8.12491 49.9987 8.12491V10.6249ZM48.7487 54.4141C48.7487 54.6054 48.6756 54.7894 48.5444 54.9286L50.3634 56.6436C50.932 56.0405 51.2487 55.243 51.2487 54.4141H48.7487Z" fill="#E0E0E0"/>
</svg>
