<svg width="210" height="82" viewBox="0 0 210 82" fill="none" xmlns="http://www.w3.org/2000/svg">
<g clip-path="url(#clip0_82_371)">
<path d="M108.815 77.7097H105.859V66.8761L100.789 77.7097H97.577L92.5071 66.9214V77.7097H89.5512V64.1225H94.3282L99.1968 74.7658L104.038 64.1225H108.815V77.7097ZM117.175 77.9814C115.894 77.9814 114.759 77.755 113.771 77.3021C112.789 76.8492 112.026 76.2151 111.483 75.3999C110.94 74.5784 110.668 73.6335 110.668 72.5647C110.668 71.4896 110.94 70.5418 111.483 69.7204C112.026 68.899 112.789 68.262 113.771 67.8091C114.759 67.3562 115.894 67.1298 117.175 67.1298C118.456 67.1298 119.588 67.3562 120.57 67.8091C121.558 68.262 122.324 68.899 122.867 69.7204C123.41 70.5418 123.682 71.4896 123.682 72.5647C123.682 73.6335 123.41 74.5784 122.867 75.3999C122.324 76.2151 121.558 76.8492 120.57 77.3021C119.588 77.755 118.456 77.9814 117.175 77.9814ZM113.761 72.5647C113.761 73.2049 113.899 73.7603 114.173 74.2314C114.448 74.6962 114.841 75.0556 115.354 75.3093C115.866 75.5629 116.473 75.6897 117.175 75.6897C117.877 75.6897 118.481 75.5629 118.987 75.3093C119.499 75.0556 119.893 74.6962 120.167 74.2314C120.442 73.7603 120.579 73.2049 120.579 72.5647C120.579 71.9244 120.442 71.369 120.167 70.898C119.893 70.4269 119.499 70.0646 118.987 69.811C118.474 69.5574 117.87 69.4305 117.175 69.4305C116.473 69.4305 115.866 69.5574 115.354 69.811C114.841 70.0646 114.448 70.4269 114.173 70.898C113.899 71.369 113.761 71.9244 113.761 72.5647ZM127.17 67.4106L130.547 75.0556L133.933 67.4106H137.2L132.231 77.7097H128.762L123.793 67.4106H127.17ZM139.958 67.5827L141.487 67.2928V77.7097H138.421V67.2928L139.958 67.5827ZM138.082 64.6569C138.082 64.1859 138.253 63.8083 138.595 63.5246C138.943 63.2348 139.397 63.0898 139.958 63.0898C140.513 63.0898 140.962 63.2348 141.304 63.5246C141.651 63.8083 141.825 64.1859 141.825 64.6569C141.825 65.1279 141.651 65.5084 141.304 65.7982C140.962 66.0819 140.513 66.224 139.958 66.224C139.397 66.224 138.943 66.0819 138.595 65.7982C138.253 65.5084 138.082 65.1279 138.082 64.6569ZM146.354 67.4106L146.739 69.7204C147.172 68.8871 147.758 68.2468 148.496 67.8001C149.24 67.3534 150.07 67.1298 150.985 67.1298C151.967 67.1298 152.806 67.3262 153.502 67.7186C154.203 68.1052 154.737 68.6635 155.103 69.3943C155.469 70.119 155.652 70.9795 155.652 71.9759V77.7097H152.596V72.4378C152.596 71.5201 152.367 70.8193 151.909 70.3364C151.458 69.8534 150.805 69.6117 149.951 69.6117C149.353 69.6117 148.831 69.7414 148.386 70.0012C147.947 70.2548 147.605 70.6172 147.361 71.0882C147.123 71.553 147.004 72.0965 147.004 72.7186V77.7097H143.947V70.8708L143.289 67.4106H146.354ZM167.066 74.5846C166.523 75.2306 165.846 75.756 165.035 76.1607C164.224 76.5655 163.323 76.7676 162.335 76.7676C161.377 76.7676 160.511 76.5684 159.736 76.1698C158.967 75.765 158.363 75.1977 157.924 74.4669C157.485 73.736 157.265 72.8969 157.265 71.9487C157.265 71.0005 157.485 70.1614 157.924 69.4305C158.363 68.6997 158.967 68.1352 159.736 67.7367C160.511 67.3319 161.377 67.1298 162.335 67.1298C163.323 67.1298 164.22 67.341 165.026 67.7638C165.837 68.1805 166.517 68.724 167.066 69.3943V67.4106H170.123V74.9651C170.123 76.2332 169.836 77.3173 169.263 78.2169C168.695 79.1227 167.896 79.8083 166.865 80.2731C165.834 80.738 164.638 80.9706 163.278 80.9706C162.344 80.9706 161.475 80.85 160.669 80.6083C159.864 80.3728 159.071 80.0042 158.29 79.5032V77.13C159.681 78.1807 161.28 78.7061 163.085 78.7061C164.385 78.7061 165.373 78.4072 166.05 77.8093C166.728 77.2177 167.066 76.33 167.066 75.1462V74.5846ZM160.349 71.9487C160.349 72.486 160.465 72.957 160.697 73.3618C160.935 73.7665 161.277 74.0802 161.722 74.3038C162.174 74.5274 162.71 74.639 163.333 74.639C164.956 74.639 166.237 73.7422 167.176 71.9487C166.237 70.149 164.956 69.2494 163.333 69.2494C162.716 69.2494 162.183 69.3609 161.731 69.5845C161.286 69.8081 160.944 70.1252 160.706 70.5356C160.468 70.9404 160.349 71.4114 160.349 71.9487Z" fill="#02AAB2"/>
<path d="M1.28344 52.8431L16.2953 37.7055H1.39302V33.4756H23.3864V37.3491L8.39021 52.5022H23.4803V56.7324H1.28344V52.8431ZM35.9155 57.1972C33.8074 57.1972 31.9186 56.8101 30.2488 56.0349C28.5791 55.2502 27.2747 54.1551 26.3354 52.7506C25.3962 51.3351 24.9266 49.7085 24.9266 47.8697C24.9266 46.062 25.3754 44.461 26.2728 43.0665C27.1703 41.6617 28.4174 40.5719 30.014 39.7972C31.6107 39.0225 33.4161 38.6352 35.4302 38.6352C37.4547 38.6352 39.2184 39.0845 40.7212 39.9831C42.2239 40.8715 43.3771 42.142 44.1806 43.7947C44.9946 45.4371 45.4016 47.3532 45.4016 49.5431H30.5306C30.9272 50.7411 31.6994 51.6655 32.8474 52.3163C33.9953 52.967 35.4511 53.2927 37.2147 53.2927C38.5609 53.2927 39.9124 53.1015 41.269 52.7191C42.6257 52.3373 43.8414 51.8 44.9163 51.1077V54.5784C43.7371 55.4051 42.3648 56.0506 40.7994 56.5154C39.2445 56.9698 37.6165 57.1972 35.9155 57.1972ZM40.3142 46.1033C40.0115 44.9361 39.4376 44.0375 38.5923 43.4074C37.7574 42.767 36.7138 42.4467 35.4615 42.4467C34.1362 42.4467 33.0247 42.7772 32.1273 43.4383C31.2402 44.0891 30.6558 44.9774 30.3741 46.1033H40.3142ZM52.8129 39.1155L53.611 43.8722C54.1851 42.2401 55.0198 40.9593 56.1156 40.0296C57.2114 39.1 58.5841 38.6352 60.2328 38.6352C61.0154 38.6352 61.7928 38.7281 62.5649 38.914V43.3764C61.5318 43.1388 60.4779 43.02 59.4029 43.02C58.3384 43.02 57.3891 43.2421 56.5539 43.6863C55.7192 44.1304 55.0617 44.8122 54.5815 45.7315C54.1119 46.6405 53.8774 47.7715 53.8774 49.1245V56.7324H48.649V44.8948L47.5219 39.1155H52.8129ZM74.6096 57.1972C72.4181 57.1972 70.477 56.8101 68.7864 56.0349C67.1064 55.2602 65.8016 54.1756 64.873 52.7811C63.9444 51.3766 63.4801 49.76 63.4801 47.9317C63.4801 46.093 63.9444 44.4713 64.873 43.0665C65.8016 41.6617 67.1064 40.5719 68.7864 39.7972C70.477 39.0225 72.4181 38.6352 74.6096 38.6352C76.8011 38.6352 78.7368 39.0225 80.4173 39.7972C82.1079 40.5719 83.4175 41.6617 84.3462 43.0665C85.2748 44.4713 85.7396 46.093 85.7396 47.9317C85.7396 49.76 85.2748 51.3766 84.3462 52.7811C83.4175 54.1756 82.1079 55.2602 80.4173 56.0349C78.7368 56.8101 76.8011 57.1972 74.6096 57.1972ZM68.771 47.9317C68.771 49.0267 69.0056 49.9769 69.4752 50.7826C69.9448 51.5778 70.6181 52.1923 71.4947 52.6262C72.3713 53.06 73.4093 53.2769 74.6096 53.2769C75.8099 53.2769 76.843 53.06 77.709 52.6262C78.5856 52.1923 79.259 51.5778 79.7286 50.7826C80.1982 49.9769 80.4327 49.0267 80.4327 47.9317C80.4327 46.8367 80.1982 45.8864 79.7286 45.0807C79.259 44.275 78.5856 43.6553 77.709 43.2214C76.8324 42.7876 75.7993 42.5707 74.6096 42.5707C73.4093 42.5707 72.3713 42.7876 71.4947 43.2214C70.6181 43.6553 69.9448 44.275 69.4752 45.0807C69.0056 45.8864 68.771 46.8367 68.771 47.9317Z" fill="#6A53A3"/>
<path d="M122.16 56.7325H117.104V38.2014L108.432 56.7325H102.937L94.2649 38.2789V56.7325H89.209V33.4912H97.3802L105.708 51.6966L113.989 33.4912H122.16V56.7325ZM142.142 52.766C141.255 54.1709 140.133 55.2603 138.776 56.035C137.43 56.8102 135.933 57.1973 134.283 57.1973C132.561 57.1973 131.027 56.8102 129.681 56.035C128.335 55.2603 127.286 54.1709 126.535 52.766C125.794 51.361 125.423 49.7496 125.423 47.9318C125.423 46.1035 125.794 44.4869 126.535 43.0821C127.286 41.667 128.33 40.5721 129.666 39.7973C131.012 39.0226 132.551 38.6353 134.283 38.6353C135.933 38.6353 137.43 39.0226 138.776 39.7973C140.133 40.5617 141.26 41.6463 142.157 43.0511L142.611 39.1156H148.027L146.994 47.9161L148.027 56.7325H142.611L142.142 52.766ZM130.73 47.9318C130.73 48.9439 130.944 49.8478 131.372 50.643C131.8 51.4387 132.39 52.0585 133.141 52.5023C133.902 52.9467 134.764 53.1688 135.724 53.1688C136.694 53.1688 137.618 52.9467 138.494 52.5023C139.371 52.0585 140.138 51.444 140.795 50.6588C141.463 49.8636 141.985 48.9544 142.361 47.9318C141.985 46.9092 141.463 46.0002 140.795 45.2048C140.138 44.4095 139.371 43.7897 138.494 43.3455C137.618 42.891 136.694 42.6638 135.724 42.6638C134.764 42.6638 133.902 42.891 133.141 43.3455C132.39 43.7897 131.8 44.4146 131.372 45.2203C130.944 46.0157 130.73 46.9195 130.73 47.9318ZM156.892 47.7301L149.769 39.1156H155.655L160.32 44.6625L164.985 39.1156H170.745L163.529 47.6839L171.246 56.7325H165.282L160.179 50.736L155.123 56.7325H149.284L156.892 47.7301Z" fill="#02AAB2"/>
<path fill-rule="evenodd" clip-rule="evenodd" d="M161.353 0.953488C161.353 1.48009 160.922 1.90698 160.39 1.90698C159.858 1.90698 159.427 1.48009 159.427 0.953488C159.427 0.426892 159.858 0 160.39 0C160.922 0 161.353 0.426892 161.353 0.953488ZM145.459 5.72093C145.991 5.72093 146.422 5.29405 146.422 4.76744C146.422 4.24084 145.991 3.81395 145.459 3.81395C144.927 3.81395 144.496 4.24084 144.496 4.76744C144.496 5.29405 144.927 5.72093 145.459 5.72093ZM149.312 10.4884C149.312 11.2783 148.665 11.9186 147.867 11.9186C147.069 11.9186 146.422 11.2783 146.422 10.4884C146.422 9.69845 147.069 9.05814 147.867 9.05814C148.665 9.05814 149.312 9.69845 149.312 10.4884ZM150.275 18.593C151.339 18.593 152.202 17.7392 152.202 16.686C152.202 15.6329 151.339 14.7791 150.275 14.7791C149.211 14.7791 148.349 15.6329 148.349 16.686C148.349 17.7392 149.211 18.593 150.275 18.593ZM153.165 25.7442C154.495 25.7442 155.574 24.6769 155.574 23.3605C155.574 22.044 154.495 20.9767 153.165 20.9767C151.835 20.9767 150.757 22.044 150.757 23.3605C150.757 24.6769 151.835 25.7442 153.165 25.7442ZM174.84 3.33721C175.372 3.33721 175.803 2.91032 175.803 2.38372C175.803 1.85712 175.372 1.43023 174.84 1.43023C174.307 1.43023 173.876 1.85712 173.876 2.38372C173.876 2.91032 174.307 3.33721 174.84 3.33721ZM188.326 7.15116C188.326 7.67777 187.895 8.10465 187.362 8.10465C186.83 8.10465 186.399 7.67777 186.399 7.15116C186.399 6.62455 186.83 6.19767 187.362 6.19767C187.895 6.19767 188.326 6.62455 188.326 7.15116ZM198.44 17.6395C198.973 17.6395 199.404 17.2127 199.404 16.686C199.404 16.1594 198.973 15.7326 198.44 15.7326C197.908 15.7326 197.477 16.1594 197.477 16.686C197.477 17.2127 197.908 17.6395 198.44 17.6395ZM207.11 29.5581C207.11 30.0847 206.679 30.5116 206.147 30.5116C205.615 30.5116 205.184 30.0847 205.184 29.5581C205.184 29.0315 205.615 28.6046 206.147 28.6046C206.679 28.6046 207.11 29.0315 207.11 29.5581ZM209.037 44.8139C209.569 44.8139 210 44.3871 210 43.8605C210 43.3339 209.569 42.907 209.037 42.907C208.505 42.907 208.074 43.3339 208.074 43.8605C208.074 44.3871 208.505 44.8139 209.037 44.8139ZM209.037 56.7326C209.037 57.2594 208.606 57.686 208.074 57.686C207.541 57.686 207.11 57.2594 207.11 56.7326C207.11 56.2057 207.541 55.7791 208.074 55.7791C208.606 55.7791 209.037 56.2057 209.037 56.7326ZM204.702 67.6977C205.234 67.6977 205.665 67.271 205.665 66.7442C205.665 66.2174 205.234 65.7907 204.702 65.7907C204.17 65.7907 203.739 66.2174 203.739 66.7442C203.739 67.271 204.17 67.6977 204.702 67.6977ZM161.835 7.15116C161.835 7.94108 161.188 8.58139 160.39 8.58139C159.592 8.58139 158.945 7.94108 158.945 7.15116C158.945 6.36124 159.592 5.72093 160.39 5.72093C161.188 5.72093 161.835 6.36124 161.835 7.15116ZM172.913 9.53488C173.711 9.53488 174.358 8.89457 174.358 8.10465C174.358 7.31473 173.711 6.67442 172.913 6.67442C172.115 6.67442 171.468 7.31473 171.468 8.10465C171.468 8.89457 172.115 9.53488 172.913 9.53488ZM185.436 12.3953C185.436 13.1853 184.789 13.8256 183.991 13.8256C183.193 13.8256 182.546 13.1853 182.546 12.3953C182.546 11.6054 183.193 10.9651 183.991 10.9651C184.789 10.9651 185.436 11.6054 185.436 12.3953ZM193.624 22.407C194.422 22.407 195.069 21.7667 195.069 20.9767C195.069 20.1868 194.422 19.5465 193.624 19.5465C192.826 19.5465 192.179 20.1868 192.179 20.9767C192.179 21.7667 192.826 22.407 193.624 22.407ZM201.33 31.9419C201.33 32.7318 200.684 33.3721 199.885 33.3721C199.087 33.3721 198.44 32.7318 198.44 31.9419C198.44 31.1519 199.087 30.5116 199.885 30.5116C200.684 30.5116 201.33 31.1519 201.33 31.9419ZM202.294 45.2907C203.092 45.2907 203.739 44.6504 203.739 43.8605C203.739 43.0705 203.092 42.4302 202.294 42.4302C201.496 42.4302 200.849 43.0705 200.849 43.8605C200.849 44.6504 201.496 45.2907 202.294 45.2907ZM203.257 54.8256C203.257 55.6155 202.61 56.2558 201.812 56.2558C201.014 56.2558 200.367 55.6155 200.367 54.8256C200.367 54.0356 201.014 53.3953 201.812 53.3953C202.61 53.3953 203.257 54.0356 203.257 54.8256ZM198.44 65.7907C199.239 65.7907 199.885 65.1504 199.885 64.3605C199.885 63.5705 199.239 62.9302 198.44 62.9302C197.642 62.9302 196.996 63.5705 196.996 64.3605C196.996 65.1504 197.642 65.7907 198.44 65.7907ZM162.317 13.8256C162.317 14.8788 161.454 15.7326 160.39 15.7326C159.326 15.7326 158.463 14.8788 158.463 13.8256C158.463 12.7724 159.326 11.9186 160.39 11.9186C161.454 11.9186 162.317 12.7724 162.317 13.8256ZM170.986 16.686C172.05 16.686 172.913 15.8322 172.913 14.7791C172.913 13.7259 172.05 12.8721 170.986 12.8721C169.922 12.8721 169.06 13.7259 169.06 14.7791C169.06 15.8322 169.922 16.686 170.986 16.686ZM182.546 18.1163C182.546 19.1695 181.683 20.0233 180.619 20.0233C179.555 20.0233 178.693 19.1695 178.693 18.1163C178.693 17.0631 179.555 16.2093 180.619 16.2093C181.683 16.2093 182.546 17.0631 182.546 18.1163ZM188.326 27.1744C189.39 27.1744 190.252 26.3206 190.252 25.2674C190.252 24.2143 189.39 23.3605 188.326 23.3605C187.262 23.3605 186.399 24.2143 186.399 25.2674C186.399 26.3206 187.262 27.1744 188.326 27.1744ZM195.069 34.3256C195.069 35.3788 194.206 36.2326 193.142 36.2326C192.078 36.2326 191.216 35.3788 191.216 34.3256C191.216 33.2724 192.078 32.4186 193.142 32.4186C194.206 32.4186 195.069 33.2724 195.069 34.3256ZM195.551 45.7674C196.615 45.7674 197.477 44.9136 197.477 43.8605C197.477 42.8073 196.615 41.9535 195.551 41.9535C194.487 41.9535 193.624 42.8073 193.624 43.8605C193.624 44.9136 194.487 45.7674 195.551 45.7674ZM196.996 53.3953C196.996 54.4485 196.133 55.3023 195.069 55.3023C194.005 55.3023 193.142 54.4485 193.142 53.3953C193.142 52.3422 194.005 51.4884 195.069 51.4884C196.133 51.4884 196.996 52.3422 196.996 53.3953ZM192.179 63.8837C193.243 63.8837 194.106 63.0299 194.106 61.9767C194.106 60.9236 193.243 60.0698 192.179 60.0698C191.115 60.0698 190.252 60.9236 190.252 61.9767C190.252 63.0299 191.115 63.8837 192.179 63.8837ZM163.28 20.9767C163.28 22.2932 162.202 23.3605 160.872 23.3605C159.542 23.3605 158.463 22.2932 158.463 20.9767C158.463 19.6603 159.542 18.593 160.872 18.593C162.202 18.593 163.28 19.6603 163.28 20.9767ZM168.578 23.8372C169.908 23.8372 170.986 22.77 170.986 21.4535C170.986 20.137 169.908 19.0698 168.578 19.0698C167.248 19.0698 166.17 20.137 166.17 21.4535C166.17 22.77 167.248 23.8372 168.578 23.8372ZM179.174 24.7907C179.174 26.1072 178.096 27.1744 176.766 27.1744C175.436 27.1744 174.358 26.1072 174.358 24.7907C174.358 23.4742 175.436 22.407 176.766 22.407C178.096 22.407 179.174 23.4742 179.174 24.7907ZM183.028 31.9419C184.357 31.9419 185.436 30.8746 185.436 29.5581C185.436 28.2417 184.357 27.1744 183.028 27.1744C181.698 27.1744 180.619 28.2417 180.619 29.5581C180.619 30.8746 181.698 31.9419 183.028 31.9419ZM188.807 36.7093C188.807 38.0258 187.729 39.093 186.399 39.093C185.069 39.093 183.991 38.0258 183.991 36.7093C183.991 35.3928 185.069 34.3256 186.399 34.3256C187.729 34.3256 188.807 35.3928 188.807 36.7093ZM188.326 46.7209C189.656 46.7209 190.734 45.6537 190.734 44.3372C190.734 43.0207 189.656 41.9535 188.326 41.9535C186.996 41.9535 185.918 43.0207 185.918 44.3372C185.918 45.6537 186.996 46.7209 188.326 46.7209ZM190.734 51.9651C190.734 53.2814 189.656 54.3488 188.326 54.3488C186.996 54.3488 185.918 53.2814 185.918 51.9651C185.918 50.6488 186.996 49.5814 188.326 49.5814C189.656 49.5814 190.734 50.6488 190.734 51.9651ZM185.436 61.5C186.766 61.5 187.844 60.4326 187.844 59.1163C187.844 57.8 186.766 56.7326 185.436 56.7326C184.106 56.7326 183.028 57.8 183.028 59.1163C183.028 60.4326 184.106 61.5 185.436 61.5Z" fill="url(#paint0_radial_82_371)"/>
</g>
<defs>
<radialGradient id="paint0_radial_82_371" cx="0" cy="0" r="1" gradientUnits="userSpaceOnUse" gradientTransform="translate(164.725 43.8605) rotate(-29.3531) scale(48.6286 46.3284)">
<stop stop-color="#02AAB2"/>
<stop offset="0.348739" stop-color="#02AAB2"/>
<stop offset="1" stop-color="#6A53A3"/>
</radialGradient>
<clipPath id="clip0_82_371">
<rect width="210" height="82" fill="white"/>
</clipPath>
</defs>
</svg>
