<svg width="130" height="130" viewBox="0 0 130 130" fill="none" xmlns="http://www.w3.org/2000/svg">
<path d="M63.75 102.917C63.75 103.607 64.3096 104.167 65 104.167C65.6903 104.167 66.25 103.607 66.25 102.917L63.75 102.917ZM66.25 27.0833C66.25 26.393 65.6903 25.8333 65 25.8333C64.3096 25.8333 63.75 26.393 63.75 27.0833H66.25ZM80.6397 44.374C80.9849 44.9719 81.7494 45.1768 82.3473 44.8316C82.9451 44.4864 83.15 43.7219 82.8048 43.124L80.6397 44.374ZM79.688 40.2255L80.7705 39.6005V39.6005L79.688 40.2255ZM60.2875 63.2666L60.719 62.0934L60.2875 63.2666ZM69.713 66.7334L70.1446 65.5603V65.5603L69.713 66.7334ZM50.3126 89.7745L49.23 90.3995L50.3126 89.7745ZM49.3608 85.626C49.0156 85.0281 48.2511 84.8232 47.6533 85.1684C47.0554 85.5136 46.8505 86.2781 47.1957 86.876L49.3608 85.626ZM72.1924 95.6372L71.5674 94.5546L72.1924 95.6372ZM57.8082 34.3628L58.4332 35.4454L57.8082 34.3628ZM27.4141 108.578L28.1489 107.566L27.4141 108.578ZM21.4225 102.586L22.4337 101.851L21.4225 102.586ZM108.578 102.586L107.566 101.851L108.578 102.586ZM102.586 108.578L101.851 107.566L102.586 108.578ZM102.586 21.4225L101.851 22.4337L102.586 21.4225ZM108.578 27.4141L107.566 28.1489L108.578 27.4141ZM27.4141 21.4225L28.1489 22.4337L27.4141 21.4225ZM21.4225 27.4141L22.4337 28.1489L21.4225 27.4141ZM82.8048 43.124L80.7705 39.6005L78.6054 40.8505L80.6397 44.374L82.8048 43.124ZM51.3951 89.1495L49.3608 85.626L47.1957 86.876L49.23 90.3995L51.3951 89.1495ZM69.2815 67.9066C81.032 72.2286 82.4101 88.2946 71.5674 94.5546L72.8174 96.7197C85.4957 89.3998 83.8843 70.614 70.1446 65.5603L69.2815 67.9066ZM57.1832 33.2803C44.5048 40.6002 46.1163 59.386 59.856 64.4397L60.719 62.0934C48.9686 57.7714 47.5904 41.7054 58.4332 35.4454L57.1832 33.2803ZM65 112.5C54.8166 112.5 47.2795 112.498 41.3948 111.861C35.5335 111.226 31.4599 109.972 28.1489 107.566L26.6794 109.589C30.4877 112.356 35.0515 113.688 41.1255 114.346C47.1761 115.002 54.8723 115 65 115V112.5ZM15 65C15 75.1277 14.9983 82.8238 15.6538 88.8745C16.3119 94.9485 17.6443 99.5123 20.4112 103.321L22.4337 101.851C20.0281 98.5401 18.7743 94.4665 18.1393 88.6052C17.5017 82.7205 17.5 75.1834 17.5 65H15ZM28.1489 107.566C25.9558 105.973 24.0271 104.044 22.4337 101.851L20.4112 103.321C22.1588 105.726 24.2741 107.841 26.6794 109.589L28.1489 107.566ZM112.5 65C112.5 75.1834 112.498 82.7205 111.861 88.6052C111.226 94.4665 109.972 98.5401 107.566 101.851L109.589 103.321C112.356 99.5123 113.688 94.9485 114.346 88.8745C115.002 82.8238 115 75.1277 115 65H112.5ZM65 115C75.1277 115 82.8238 115.002 88.8745 114.346C94.9485 113.688 99.5123 112.356 103.321 109.589L101.851 107.566C98.5401 109.972 94.4665 111.226 88.6052 111.861C82.7205 112.498 75.1834 112.5 65 112.5V115ZM107.566 101.851C105.973 104.044 104.044 105.973 101.851 107.566L103.321 109.589C105.726 107.841 107.841 105.726 109.589 103.321L107.566 101.851ZM65 17.5C75.1834 17.5 82.7205 17.5017 88.6052 18.1393C94.4665 18.7743 98.5401 20.0281 101.851 22.4337L103.321 20.4112C99.5123 17.6443 94.9485 16.3119 88.8745 15.6538C82.8238 14.9983 75.1277 15 65 15V17.5ZM115 65C115 54.8723 115.002 47.1761 114.346 41.1255C113.688 35.0515 112.356 30.4877 109.589 26.6794L107.566 28.1489C109.972 31.4599 111.226 35.5335 111.861 41.3948C112.498 47.2795 112.5 54.8166 112.5 65H115ZM101.851 22.4337C104.044 24.0271 105.973 25.9558 107.566 28.1489L109.589 26.6794C107.841 24.2741 105.726 22.1588 103.321 20.4112L101.851 22.4337ZM65 15C54.8723 15 47.1761 14.9983 41.1255 15.6538C35.0515 16.3119 30.4877 17.6443 26.6794 20.4112L28.1489 22.4337C31.4599 20.0281 35.5335 18.7743 41.3948 18.1393C47.2795 17.5017 54.8166 17.5 65 17.5V15ZM17.5 65C17.5 54.8166 17.5017 47.2795 18.1393 41.3948C18.7743 35.5335 20.0281 31.4599 22.4337 28.1489L20.4112 26.6794C17.6443 30.4877 16.3119 35.0515 15.6538 41.1255C14.9983 47.1761 15 54.8723 15 65H17.5ZM26.6794 20.4112C24.2741 22.1588 22.1588 24.2741 20.4112 26.6794L22.4337 28.1489C24.0271 25.9558 25.9558 24.0271 28.1489 22.4337L26.6794 20.4112ZM80.7705 39.6005C77.4171 33.7923 71.1998 30.6714 64.9373 30.986L65.0627 33.4828C70.4249 33.2135 75.7392 35.8861 78.6054 40.8505L80.7705 39.6005ZM64.9373 30.986C62.2895 31.119 59.6333 31.8657 57.1832 33.2803L58.4332 35.4454C60.5322 34.2335 62.8015 33.5964 65.0627 33.4828L64.9373 30.986ZM66.25 32.2344V27.0833H63.75V32.2344H66.25ZM66.2503 65L66.25 32.2344L63.75 32.2344L63.7503 65L66.2503 65ZM59.856 64.4397L64.5688 66.1732L65.4318 63.8269L60.719 62.0934L59.856 64.4397ZM64.5688 66.1732L69.2815 67.9066L70.1446 65.5603L65.4318 63.8269L64.5688 66.1732ZM66.25 102.917L66.25 97.7656L63.75 97.7656L63.75 102.917L66.25 102.917ZM66.25 97.7656L66.2503 65L63.7503 65L63.75 97.7656L66.25 97.7656ZM71.5674 94.5546C69.4682 95.7666 67.1987 96.4037 64.9374 96.5172L65.0627 99.0141C67.7107 98.8811 70.367 98.1344 72.8174 96.7197L71.5674 94.5546ZM64.9374 96.5172C59.5753 96.7864 54.2612 94.1137 51.3951 89.1495L49.23 90.3995C52.5833 96.2075 58.8004 99.3284 65.0627 99.0141L64.9374 96.5172Z" fill="#E0E0E0"/>
</svg>
