<svg width="130" height="130" viewBox="0 0 130 130" fill="none" xmlns="http://www.w3.org/2000/svg">
<path d="M16.3843 38.4832L17.4965 39.0537L16.3843 38.4832ZM17.7273 36.157L18.7775 36.835L17.7273 36.157ZM39.1988 109.688L38.5738 110.77L39.1988 109.688ZM17.7273 93.8434L18.7775 93.1655L17.7273 93.8434ZM16.3843 91.5173L17.4965 90.9467L16.3843 91.5173ZM90.7995 109.688L91.4245 110.77L90.7995 109.688ZM66.3421 120.36L66.4041 121.609L66.3421 120.36ZM63.6561 120.36L63.5941 121.609L63.6561 120.36ZM113.614 91.5173L112.502 90.9467L113.614 91.5173ZM112.271 93.8434L111.221 93.1655L112.271 93.8434ZM112.271 36.157L111.221 36.835L112.271 36.157ZM113.614 38.4832L112.502 39.0537L113.614 38.4832ZM66.3421 9.64001L66.4041 8.39155L66.3421 9.64001ZM63.6561 9.64001L63.5941 8.39155L63.6561 9.64001ZM102.028 102.174L100.829 102.528L100.839 102.561L100.85 102.593L102.028 102.174ZM27.9325 102.304L26.7317 101.957L26.7155 102.013L26.7046 102.07L27.9325 102.304ZM27.8157 102.917L27.1397 103.968L27.8157 102.917ZM85.4158 48.7502C85.4158 60.026 76.2749 69.1669 64.9991 69.1669V71.6669C77.6556 71.6669 87.9158 61.4067 87.9158 48.7502H85.4158ZM64.9991 69.1669C53.7233 69.1669 44.5825 60.026 44.5825 48.7502H42.0825C42.0825 61.4067 52.3426 71.6669 64.9991 71.6669V69.1669ZM44.5825 48.7502C44.5825 37.4744 53.7233 28.3335 64.9991 28.3335V25.8335C52.3426 25.8335 42.0825 36.0937 42.0825 48.7502H44.5825ZM64.9991 28.3335C76.2749 28.3335 85.4158 37.4744 85.4158 48.7502H87.9158C87.9158 36.0937 77.6556 25.8335 64.9991 25.8335V28.3335ZM14.6484 65.0002C14.6484 58.0794 14.6496 52.9701 15.0167 48.8614C15.3817 44.7766 16.1028 41.7705 17.4965 39.0537L15.2721 37.9126C13.6799 41.0162 12.9081 44.3697 12.5266 48.6389C12.1473 52.8843 12.1484 58.1232 12.1484 65.0002H14.6484ZM38.5738 19.2302C32.6181 22.6687 28.0805 25.2872 24.5936 27.7384C21.0871 30.2033 18.5688 32.5485 16.6771 35.4791L18.7775 36.835C20.4334 34.2696 22.6763 32.1421 26.0313 29.7836C29.4059 27.4113 33.8302 24.8556 39.8238 21.3952L38.5738 19.2302ZM17.4965 39.0537C17.8865 38.2934 18.314 37.5529 18.7775 36.835L16.6771 35.4791C16.1688 36.2666 15.6999 37.0787 15.2721 37.9126L17.4965 39.0537ZM12.1484 65.0002C12.1484 71.8772 12.1473 77.1162 12.5266 81.3615C12.9081 85.6307 13.6799 88.9842 15.2721 92.0878L17.4965 90.9467C16.1028 88.2299 15.3817 85.2238 15.0167 81.139C14.6496 77.0304 14.6484 71.921 14.6484 65.0002H12.1484ZM18.7775 93.1655C18.314 92.4475 17.8865 91.707 17.4965 90.9467L15.2721 92.0878C15.6999 92.9217 16.1688 93.7339 16.6771 94.5213L18.7775 93.1655ZM90.1745 108.605C84.1809 112.066 79.7555 114.619 76.0137 116.356C72.2937 118.082 69.3298 118.961 66.2801 119.112L66.4041 121.609C69.888 121.436 73.1781 120.428 77.0661 118.623C80.9323 116.829 85.4688 114.209 91.4245 110.77L90.1745 108.605ZM38.5738 110.77C44.5294 114.209 49.0659 116.829 52.9322 118.623C56.8201 120.428 60.1103 121.436 63.5941 121.609L63.7181 119.112C60.6685 118.961 57.7045 118.082 53.9845 116.356C50.2428 114.619 45.8174 112.066 39.8238 108.605L38.5738 110.77ZM66.2801 119.112C65.4266 119.154 64.5716 119.154 63.7181 119.112L63.5941 121.609C64.5302 121.655 65.468 121.655 66.4041 121.609L66.2801 119.112ZM115.35 65.0002C115.35 71.921 115.349 77.0304 114.982 81.139C114.617 85.2238 113.895 88.2299 112.502 90.9467L114.726 92.0878C116.318 88.9842 117.09 85.6307 117.472 81.3615C117.851 77.1162 117.85 71.8772 117.85 65.0002H115.35ZM112.502 90.9467C112.112 91.707 111.684 92.4475 111.221 93.1655L113.321 94.5213C113.829 93.7339 114.298 92.9217 114.726 92.0878L112.502 90.9467ZM90.1745 21.3952C96.1681 24.8556 100.592 27.4113 103.967 29.7836C107.322 32.1421 109.565 34.2696 111.221 36.835L113.321 35.4791C111.429 32.5485 108.911 30.2033 105.405 27.7384C101.918 25.2872 97.3801 22.6687 91.4245 19.2302L90.1745 21.3952ZM117.85 65.0002C117.85 58.1232 117.851 52.8843 117.472 48.6389C117.09 44.3697 116.318 41.0162 114.726 37.9126L112.502 39.0537C113.895 41.7705 114.617 44.7766 114.982 48.8614C115.349 52.9701 115.35 58.0794 115.35 65.0002H117.85ZM111.221 36.835C111.684 37.5529 112.112 38.2934 112.502 39.0537L114.726 37.9126C114.298 37.0787 113.829 36.2666 113.321 35.4791L111.221 36.835ZM91.4245 19.2302C85.4688 15.7917 80.9323 13.1712 77.0661 11.3771C73.1781 9.57283 69.888 8.56451 66.4041 8.39155L66.2801 10.8885C69.3298 11.0399 72.2937 11.9185 76.0137 13.6448C79.7555 15.3812 84.1809 17.9348 90.1745 21.3952L91.4245 19.2302ZM39.8238 21.3952C45.8174 17.9348 50.2428 15.3812 53.9845 13.6448C57.7045 11.9185 60.6685 11.0399 63.7181 10.8885L63.5941 8.39155C60.1103 8.56451 56.8201 9.57283 52.9322 11.3771C49.0659 13.1712 44.5294 15.7917 38.5738 19.2302L39.8238 21.3952ZM66.4041 8.39155C65.468 8.34507 64.5302 8.34507 63.5941 8.39155L63.7181 10.8885C64.5716 10.8461 65.4266 10.8461 66.2801 10.8885L66.4041 8.39155ZM48.7491 87.9169H81.2491V85.4169H48.7491V87.9169ZM81.2491 87.9169C90.5066 87.9169 98.3281 94.0793 100.829 102.528L103.226 101.819C100.42 92.3369 91.6441 85.4169 81.2491 85.4169V87.9169ZM91.4245 110.77C96.0792 108.083 99.863 105.899 102.949 103.91L101.595 101.808C98.5715 103.757 94.8477 105.907 90.1745 108.605L91.4245 110.77ZM102.949 103.91C107.774 100.8 111.015 98.0941 113.321 94.5213L111.221 93.1655C109.201 96.2943 106.312 98.7684 101.595 101.808L102.949 103.91ZM100.85 102.593L101.094 103.279L103.449 102.44L103.205 101.754L100.85 102.593ZM48.7491 85.4169C38.3039 85.4169 29.4938 92.404 26.7317 101.957L29.1333 102.651C31.5945 94.1391 39.4468 87.9169 48.7491 87.9169V85.4169ZM39.8238 108.605C35.1961 105.933 31.4993 103.799 28.4916 101.865L27.1397 103.968C30.2087 105.941 33.9641 108.109 38.5738 110.77L39.8238 108.605ZM28.4916 101.865C23.7223 98.799 20.8098 96.3139 18.7775 93.1655L16.6771 94.5213C18.9976 98.1162 22.2645 100.834 27.1397 103.968L28.4916 101.865ZM26.7046 102.07L26.5878 102.682L29.0435 103.151L29.1604 102.538L26.7046 102.07Z" fill="#E0E0E0"/>
</svg>
