<svg width="100" height="100" viewBox="0 0 100 100" fill="none" xmlns="http://www.w3.org/2000/svg">
<path d="M66.6673 37.4999L52.2358 54.8177C49.2689 58.3779 47.7855 60.158 45.8339 60.158C43.8824 60.158 42.3989 58.3779 39.4321 54.8177L33.3339 47.4999M23.3123 20.9123C29.7613 22.5288 36.3296 18.7366 38.1541 12.3434C41.5554 0.425249 58.4458 0.425249 61.8471 12.3434C63.6716 18.7366 70.2399 22.5288 76.6889 20.9123C88.7109 17.8988 97.1561 32.5263 88.5353 41.431C83.9109 46.2077 83.9109 53.7921 88.5353 58.5688C97.1561 67.4735 88.7109 82.1009 76.6889 79.0875C70.2399 77.4709 63.6716 81.2631 61.8471 87.6564C58.4458 99.5745 41.5554 99.5745 38.1541 87.6564C36.3296 81.2631 29.7613 77.4709 23.3123 79.0875C11.2903 82.1009 2.84512 67.4735 11.4659 58.5688C16.0903 53.7921 16.0903 46.2077 11.4659 41.431C2.84512 32.5263 11.2903 17.8988 23.3123 20.9123Z" stroke="#E0E0E0" stroke-width="2.5" stroke-linecap="round"/>
</svg>
