<svg width="100" height="100" viewBox="0 0 100 100" fill="none" xmlns="http://www.w3.org/2000/svg">
<path d="M44.5406 24.9299L43.3482 24.5548L44.5406 24.9299ZM35.7089 39.7511L36.4593 38.7514L35.7089 39.7511ZM37.7938 46.3794L38.9862 46.7544L37.7938 46.3794ZM46.6255 53.0076L45.8751 52.0079L46.6255 53.0076ZM53.3722 53.0076L54.1226 52.0079L53.3722 53.0076ZM62.2039 46.3794L61.0115 46.7544L62.2039 46.3794ZM64.2887 39.7511L63.5384 38.7514L64.2887 39.7511ZM55.4571 24.9299L56.6495 24.5548L55.4571 24.9299ZM41.1358 74.2959L40.0533 73.6709L41.1358 74.2959ZM33.8168 86.9727L34.8994 87.5977L33.8168 86.9727ZM7.62559 71.8512L6.54305 71.2262L7.62559 71.8512ZM14.9446 59.1743L16.0271 59.7993L14.9446 59.1743ZM25.9693 86.3007L24.7865 86.705V86.705L25.9693 86.3007ZM24.9533 83.3285L26.1361 82.9242H26.1361L24.9533 83.3285ZM15.2133 77.7051L14.9721 76.4786H14.9721L15.2133 77.7051ZM12.1313 78.3113L12.3726 79.5378H12.3726L12.1313 78.3113ZM21.8407 77.4729L22.4657 76.3904L21.8407 77.4729ZM5.3226 78.3552L4.29735 79.0703L5.3226 78.3552ZM43.2492 70.5498L42.2505 69.7979L42.1905 69.8776L42.144 69.9658L43.2492 70.5498ZM57.7022 74.2959L58.7847 73.6709L57.7022 74.2959ZM65.0212 86.9727L66.1037 86.3477L65.0212 86.9727ZM91.2124 71.8512L92.295 71.2262L91.2124 71.8512ZM83.8935 59.1743L82.8109 59.7993L83.8935 59.1743ZM72.8687 86.3007L74.0515 86.705V86.705L72.8687 86.3007ZM73.8847 83.3285L72.7019 82.9242L73.8847 83.3285ZM83.6247 77.7051L83.866 76.4786L83.6247 77.7051ZM86.7067 78.3113L86.4655 79.5378L86.7067 78.3113ZM93.5154 78.3552L94.5407 79.0703V79.0703L93.5154 78.3552ZM55.5708 70.5155H54.3208V70.8247L54.4649 71.0982L55.5708 70.5155ZM20.1133 52.2804L18.9933 52.8354L20.1133 52.2804ZM43.5107 70.2024L43.7527 68.976L43.5107 70.2024ZM55.5708 70.3698L55.3633 69.1371L55.5708 70.3698ZM79.6344 52.7746L78.5238 52.201L79.6344 52.7746ZM18.6716 53.3283L17.7323 52.5036L18.6716 53.3283ZM18.7322 53.2716L17.8414 52.3947L18.7322 53.2716ZM19.8214 52.4343L20.4398 53.5206L19.8214 52.4343ZM17.9155 37.5001C17.9155 19.7809 32.2797 5.41675 49.9988 5.41675V2.91675C30.899 2.91675 15.4155 18.4002 15.4155 37.5001H17.9155ZM49.9988 5.41675C67.718 5.41675 82.0822 19.7809 82.0822 37.5001H84.5822C84.5822 18.4002 69.0987 2.91675 49.9988 2.91675V5.41675ZM39.0823 30.2764C42.1367 30.2764 44.8076 28.2469 45.733 25.305L43.3482 24.5548C42.7369 26.4982 41.0006 27.7764 39.0823 27.7764V30.2764ZM36.4593 38.7514C32.8495 36.0422 34.8139 30.2764 39.0823 30.2764V27.7764C32.2314 27.7764 29.5727 36.7087 34.9586 40.7509L36.4593 38.7514ZM38.9862 46.7544C39.9097 43.8186 38.9051 40.587 36.4593 38.7514L34.9586 40.7509C36.5358 41.9346 37.2146 44.0548 36.6014 46.0043L38.9862 46.7544ZM45.8751 52.0079C44.1215 53.324 42.0977 53.1101 40.629 52.0079C39.1545 50.9012 38.3001 48.9358 38.9862 46.7544L36.6014 46.0043C35.5695 49.2849 36.882 52.3215 39.1284 54.0074C41.3805 55.6977 44.6316 56.0669 47.3758 54.0074L45.8751 52.0079ZM54.1226 52.0079C51.6665 50.1646 48.3312 50.1646 45.8751 52.0079L47.3758 54.0074C48.9427 52.8314 51.055 52.8314 52.6219 54.0074L54.1226 52.0079ZM61.0115 46.7544C61.6976 48.9358 60.8432 50.9012 59.3687 52.0079C57.9 53.1101 55.8762 53.324 54.1226 52.0079L52.6219 54.0074C55.3661 56.0669 58.6172 55.6977 60.8693 54.0074C63.1157 52.3215 64.4282 49.2849 63.3963 46.0043L61.0115 46.7544ZM63.5384 38.7514C61.0926 40.587 60.088 43.8186 61.0115 46.7544L63.3963 46.0043C62.7831 44.0548 63.4619 41.9346 65.0391 40.7509L63.5384 38.7514ZM60.9154 30.2764C65.1838 30.2764 67.1482 36.0422 63.5384 38.7514L65.0391 40.7509C70.425 36.7087 67.7663 27.7764 60.9154 27.7764V30.2764ZM54.2647 25.305C55.1901 28.2469 57.861 30.2764 60.9154 30.2764V27.7764C58.9971 27.7764 57.2608 26.4982 56.6495 24.5548L54.2647 25.305ZM56.6495 24.5548C54.5645 17.9263 45.4332 17.9263 43.3482 24.5548L45.733 25.305C47.0841 21.0096 52.9136 21.0096 54.2647 25.305L56.6495 24.5548ZM40.0533 73.6709L32.7343 86.3477L34.8994 87.5977L42.2183 74.9209L40.0533 73.6709ZM8.70812 72.4762L16.0271 59.7993L13.862 58.5493L6.54305 71.2262L8.70812 72.4762ZM27.1521 85.8964L26.1361 82.9242L23.7705 83.7328L24.7865 86.705L27.1521 85.8964ZM14.9721 76.4786L11.8901 77.0848L12.3726 79.5378L15.4545 78.9316L14.9721 76.4786ZM26.1361 82.9242C25.5705 81.2696 25.1106 79.9169 24.6068 78.887C24.0878 77.8261 23.4559 76.9621 22.4657 76.3904L21.2157 78.5555C21.6096 78.7829 21.9578 79.1612 22.3611 79.9855C22.7795 80.8409 23.1838 82.0165 23.7705 83.7328L26.1361 82.9242ZM15.4545 78.9316C17.2343 78.5816 18.4546 78.3439 19.4045 78.2786C20.32 78.2156 20.8218 78.328 21.2157 78.5555L22.4657 76.3904C21.4755 75.8187 20.4113 75.7034 19.233 75.7845C18.0892 75.8631 16.6878 76.1411 14.9721 76.4786L15.4545 78.9316ZM6.54305 71.2262C5.53139 72.9784 4.70024 74.4118 4.24211 75.5508C3.79573 76.6605 3.5129 77.9456 4.29735 79.0703L6.34786 77.6401C6.33784 77.6257 6.17403 77.4471 6.56151 76.4837C6.93725 75.5496 7.65482 74.3006 8.70812 72.4762L6.54305 71.2262ZM11.8901 77.0848C9.84336 77.4874 8.44802 77.7585 7.45925 77.8077C6.44298 77.8582 6.35096 77.6445 6.34786 77.6401L4.29735 79.0703C5.0887 80.2049 6.39629 80.3636 7.5834 80.3046C8.798 80.2442 10.4098 79.9239 12.3726 79.5378L11.8901 77.0848ZM32.7343 86.3477C31.681 88.1721 30.9581 89.418 30.337 90.2105C29.6964 91.0277 29.4598 90.9752 29.4424 90.9737L29.229 93.4646C30.5953 93.5816 31.5667 92.6941 32.3046 91.7527C33.0619 90.7865 33.8877 89.35 34.8994 87.5977L32.7343 86.3477ZM24.7865 86.705C25.4336 88.5979 25.9621 90.1539 26.5171 91.236C27.0595 92.2935 27.8508 93.3466 29.229 93.4646L29.4424 90.9737C29.4369 90.9733 29.2059 91.0004 28.7415 90.095C28.2897 89.2141 27.8269 87.8702 27.1521 85.8964L24.7865 86.705ZM16.0271 59.7993C17.7617 56.7949 18.6855 55.207 19.6109 54.153L17.7323 52.5036C16.6027 53.7901 15.5361 55.6497 13.862 58.5493L16.0271 59.7993ZM42.2183 74.9209C43.1001 73.3936 43.8082 72.1676 44.3544 71.1337L42.144 69.9658C41.6246 70.9488 40.9438 72.1284 40.0533 73.6709L42.2183 74.9209ZM56.6197 74.9209L63.9387 87.5977L66.1037 86.3477L58.7847 73.6709L56.6197 74.9209ZM92.295 71.2262L84.976 58.5493L82.8109 59.7993L90.1299 72.4762L92.295 71.2262ZM74.0515 86.705L75.0675 83.7328L72.7019 82.9242L71.6859 85.8964L74.0515 86.705ZM83.3835 78.9316L86.4655 79.5378L86.948 77.0848L83.866 76.4786L83.3835 78.9316ZM75.0675 83.7328C75.6542 82.0165 76.0586 80.8409 76.477 79.9855C76.8802 79.1612 77.2284 78.7829 77.6223 78.5555L76.3723 76.3904C75.3822 76.9621 74.7502 77.8261 74.2312 78.887C73.7275 79.9169 73.2675 81.2696 72.7019 82.9242L75.0675 83.7328ZM83.866 76.4786C82.1502 76.1411 80.7488 75.8631 79.605 75.7845C78.4267 75.7034 77.3625 75.8187 76.3723 76.3904L77.6223 78.5555C78.0163 78.328 78.518 78.2156 79.4335 78.2786C80.3835 78.3439 81.6037 78.5816 83.3835 78.9316L83.866 76.4786ZM90.1299 72.4762C91.1832 74.3006 91.9008 75.5496 92.2765 76.4837C92.664 77.4471 92.5002 77.6257 92.4902 77.6401L94.5407 79.0703C95.3251 77.9456 95.0423 76.6606 94.5959 75.5508C94.1378 74.4118 93.3066 72.9784 92.295 71.2262L90.1299 72.4762ZM86.4655 79.5378C88.4282 79.9239 90.04 80.2442 91.2546 80.3046C92.4417 80.3636 93.7493 80.2049 94.5407 79.0703L92.4902 77.6401C92.4871 77.6445 92.395 77.8582 91.3788 77.8077C90.39 77.7585 88.9947 77.4874 86.948 77.0848L86.4655 79.5378ZM63.9387 87.5977C64.9503 89.35 65.7761 90.7865 66.5334 91.7527C67.2713 92.6941 68.2427 93.5816 69.609 93.4646L69.3957 90.9737C69.3782 90.9752 69.1416 91.0277 68.5011 90.2105C67.88 89.418 67.157 88.1721 66.1037 86.3477L63.9387 87.5977ZM71.6859 85.8964C71.0112 87.8702 70.5483 89.2141 70.0965 90.095C69.6321 91.0004 69.4011 90.9733 69.3957 90.9737L69.609 93.4646C70.9873 93.3466 71.7785 92.2935 72.321 91.236C72.876 90.1539 73.4044 88.5979 74.0515 86.705L71.6859 85.8964ZM58.7847 73.6709C57.884 72.1108 57.1979 70.922 56.6766 69.9327L54.4649 71.0982C55.0138 72.1399 55.728 73.3764 56.6197 74.9209L58.7847 73.6709ZM21.2333 51.7254C19.1098 47.4399 17.9155 42.6112 17.9155 37.5001H15.4155C15.4155 43.0048 16.7025 48.2125 18.9933 52.8354L21.2333 51.7254ZM49.9988 69.5834C47.8604 69.5834 45.772 69.3744 43.7527 68.976L43.2688 71.4287C45.4467 71.8584 47.6971 72.0834 49.9988 72.0834V69.5834ZM43.7527 68.976C33.8557 67.0235 25.5893 60.5162 21.2333 51.7254L18.9933 52.8354C23.6867 62.3073 32.5933 69.3227 43.2688 71.4287L43.7527 68.976ZM44.2478 71.3016L44.5094 70.9542L42.5121 69.4505L42.2505 69.7979L44.2478 71.3016ZM55.3633 69.1371C53.6197 69.4305 51.8276 69.5834 49.9988 69.5834V72.0834C51.9672 72.0834 53.8981 71.9188 55.7782 71.6025L55.3633 69.1371ZM56.8208 70.5155V70.3698H54.3208V70.5155H56.8208ZM82.0822 37.5001C82.0822 42.801 80.7976 47.7983 78.5238 52.201L80.745 53.3482C83.1977 48.5991 84.5822 43.2095 84.5822 37.5001H82.0822ZM78.5238 52.201C73.9752 61.0082 65.4689 67.4365 55.3633 69.1371L55.7782 71.6025C66.6791 69.768 75.8445 62.837 80.745 53.3482L78.5238 52.201ZM84.976 58.5493C83.0262 55.1722 81.8999 53.195 80.4927 51.8658L78.7761 53.6833C79.8504 54.698 80.7708 56.2657 82.8109 59.7993L84.976 58.5493ZM19.6109 54.153C19.6128 54.1508 19.6135 54.1501 19.6138 54.1497C19.6139 54.1496 19.6134 54.1501 19.6127 54.151C19.6121 54.1516 19.6101 54.1539 19.6074 54.1569C19.606 54.1585 19.6037 54.161 19.6009 54.1641C19.5984 54.1669 19.5936 54.172 19.5876 54.1784C19.5845 54.1817 19.5802 54.1862 19.575 54.1916C19.5701 54.1967 19.5623 54.2045 19.5527 54.214C19.5477 54.2188 19.5414 54.225 19.5339 54.232C19.5266 54.2388 19.5166 54.2481 19.5045 54.2588C19.4994 54.2632 19.4885 54.2726 19.4826 54.2776C19.4757 54.2833 19.4606 54.2956 19.4524 54.3021C19.4425 54.3098 19.4205 54.3265 19.4084 54.3353C19.3932 54.346 19.3586 54.3693 19.3391 54.3817C19.3134 54.3973 19.2526 54.4309 19.2171 54.4486C19.1671 54.4711 19.0421 54.5165 18.9666 54.5369C18.8513 54.5586 18.5596 54.5649 18.3871 54.5362C18.1611 54.4585 17.7653 54.1742 17.6133 53.9748C17.5228 53.7972 17.438 53.4749 17.4286 53.3406C17.4304 53.2506 17.448 53.1001 17.4603 53.0399C17.4711 52.9969 17.4933 52.9232 17.5041 52.8923C17.513 52.8685 17.5302 52.8266 17.5382 52.8084C17.5449 52.7937 17.5576 52.7672 17.5636 52.7553C17.5686 52.7454 17.5783 52.7272 17.5828 52.7189C17.5867 52.7118 17.5942 52.6986 17.5976 52.6926C17.6008 52.6872 17.6067 52.6773 17.6095 52.6727C17.6163 52.6614 17.6223 52.6519 17.6269 52.6448C17.6315 52.6375 17.6357 52.6313 17.639 52.6263C17.6455 52.6166 17.6509 52.6087 17.6545 52.6036C17.6582 52.5983 17.6614 52.5938 17.6637 52.5907C17.6681 52.5845 17.6717 52.5797 17.6734 52.5774C17.6753 52.5748 17.6768 52.5728 17.6775 52.5719C17.6778 52.5714 17.6781 52.571 17.6783 52.5708C17.6785 52.5705 17.6786 52.5703 17.6787 52.5703C17.679 52.5698 17.6776 52.5717 17.6763 52.5735C17.6747 52.5756 17.6722 52.5789 17.6692 52.583C17.6663 52.587 17.6623 52.5925 17.6577 52.599C17.6531 52.6054 17.647 52.6141 17.6399 52.6246C17.6363 52.6299 17.6322 52.6361 17.6276 52.6431C17.6231 52.6501 17.6178 52.6584 17.6119 52.6678C17.6061 52.6772 17.5992 52.6887 17.5915 52.7021C17.5839 52.7153 17.5744 52.7323 17.564 52.7524C17.5587 52.7626 17.5528 52.7744 17.5466 52.7874C17.5404 52.8004 17.5334 52.8155 17.5261 52.8325C17.5188 52.8494 17.5106 52.8696 17.5021 52.8926C17.4936 52.9154 17.484 52.9434 17.4746 52.9757C17.4698 52.992 17.4648 53.0102 17.46 53.0299C17.4552 53.0496 17.4503 53.0716 17.4458 53.0957C17.4413 53.1197 17.4369 53.1467 17.4333 53.1764C17.4297 53.2061 17.4267 53.2396 17.4252 53.2764C17.4237 53.3132 17.4237 53.3549 17.4264 53.4007C17.4291 53.4464 17.4346 53.498 17.4449 53.5539C17.4655 53.6651 17.5065 53.8024 17.5876 53.945C17.6283 54.0166 17.678 54.0876 17.7378 54.1552C17.7605 54.1801 17.808 54.2284 17.8329 54.2517C17.8583 54.2742 17.9109 54.317 17.938 54.3374C18.0111 54.3906 18.0867 54.4336 18.1621 54.4674C18.2372 54.5012 18.3102 54.5251 18.3785 54.5417C18.4465 54.5583 18.5101 54.5677 18.5672 54.5726C18.6243 54.5775 18.6765 54.5781 18.7226 54.5763C18.7687 54.5745 18.8105 54.5703 18.8472 54.5652C18.884 54.5601 18.9173 54.5538 18.9466 54.5472C18.976 54.5407 19.0027 54.5336 19.0263 54.5267C19.05 54.5197 19.0715 54.5126 19.0908 54.5059C19.1288 54.4924 19.1613 54.4789 19.1873 54.4672C19.2135 54.4554 19.2363 54.4441 19.2551 54.4342C19.274 54.4243 19.2907 54.4149 19.3048 54.4067C19.319 54.3984 19.3317 54.3907 19.3426 54.3837C19.3536 54.3768 19.3635 54.3703 19.3723 54.3645C19.3894 54.3529 19.404 54.3425 19.4155 54.3341C19.4272 54.3255 19.4373 54.3178 19.4456 54.3113C19.454 54.3047 19.4615 54.2988 19.4678 54.2936C19.4803 54.2834 19.4907 54.2745 19.4987 54.2676C19.5067 54.2606 19.5138 54.2542 19.5196 54.249C19.5255 54.2437 19.5308 54.2388 19.5355 54.2345C19.5446 54.226 19.5529 54.2181 19.5598 54.2114C19.5669 54.2045 19.5739 54.1977 19.5805 54.1912C19.5936 54.1782 19.6078 54.164 19.6229 54.1486L17.8414 52.3947C17.8315 52.4047 17.8259 52.4104 17.8233 52.4129C17.8198 52.4163 17.824 52.4121 17.8328 52.4039C17.8373 52.3997 17.8467 52.3911 17.8595 52.38C17.866 52.3743 17.8753 52.3663 17.8868 52.357C17.8976 52.3481 17.9147 52.3345 17.9364 52.3186C17.9554 52.3046 17.9938 52.2772 18.0452 52.2472C18.0716 52.2318 18.1116 52.2098 18.1621 52.1871C18.188 52.1754 18.2204 52.1619 18.2584 52.1485C18.2959 52.1353 18.3445 52.1201 18.4023 52.1072C18.4593 52.0945 18.5355 52.0816 18.6262 52.0781C18.7164 52.0747 18.8353 52.0799 18.9701 52.1127C19.1082 52.1463 19.2623 52.209 19.4105 52.317C19.5605 52.4264 19.6774 52.5626 19.7608 52.7093C19.8419 52.8519 19.8829 52.9891 19.9034 53.1003C19.9238 53.2105 19.9261 53.306 19.9232 53.3776C19.9202 53.45 19.9114 53.5114 19.9026 53.5582C19.8937 53.6056 19.8832 53.646 19.8739 53.6779C19.8557 53.74 19.8361 53.7892 19.8225 53.8207C19.8083 53.8537 19.795 53.8807 19.7849 53.9002C19.7654 53.938 19.7479 53.9671 19.7378 53.9834C19.7177 54.0159 19.7005 54.0401 19.6943 54.0489C19.6863 54.0601 19.68 54.0685 19.6781 54.0711C19.6771 54.0724 19.6761 54.0738 19.6767 54.0729C19.6769 54.0727 19.6776 54.0718 19.6784 54.0707C19.6792 54.0696 19.6808 54.0674 19.6829 54.0647C19.6847 54.0622 19.6883 54.0573 19.6928 54.051C19.6963 54.0462 19.706 54.0327 19.7177 54.0151C19.7236 54.0064 19.7345 53.9899 19.7473 53.9686C19.754 53.9577 19.7634 53.9418 19.7741 53.9223C19.7839 53.9044 19.8006 53.8731 19.8187 53.8328C19.8267 53.8146 19.8438 53.7727 19.8527 53.7489C19.8636 53.718 19.8858 53.6443 19.8965 53.6013C19.9088 53.5411 19.9265 53.3906 19.9283 53.3005C19.9189 53.1663 19.834 52.844 19.7435 52.6664C19.5915 52.4669 19.1957 52.1827 18.9697 52.105C18.7972 52.0763 18.5056 52.0826 18.3903 52.1043C18.3147 52.1247 18.1897 52.1701 18.1397 52.1926C18.1043 52.2103 18.0434 52.2439 18.0178 52.2594C17.9641 52.2929 17.9243 52.3234 17.9044 52.3391C17.8818 52.3569 17.8639 52.3723 17.8523 52.3825C17.8296 52.4024 17.8125 52.4191 17.804 52.4273C17.7865 52.4444 17.7734 52.4584 17.7688 52.4632C17.7581 52.4746 17.7498 52.4838 17.748 52.4858C17.7427 52.4917 17.738 52.497 17.7373 52.4978C17.7356 52.4997 17.7337 52.5019 17.7323 52.5036L19.6109 54.153ZM19.5578 51.1606C19.4378 51.2202 19.3574 51.2601 19.2029 51.348L20.4398 53.5206C20.5335 53.4673 20.5649 53.4517 20.6688 53.4002L19.5578 51.1606ZM19.6229 54.1486C19.7722 53.9969 20.2549 53.6259 20.4398 53.5206L19.2029 51.348C18.818 51.5672 18.1521 52.0791 17.8414 52.3947L19.6229 54.1486Z" fill="#E0E0E0"/>
</svg>
