<svg width="130" height="130" viewBox="0 0 130 130" fill="none" xmlns="http://www.w3.org/2000/svg">
<path d="M79.7801 10.8333C85.0153 10.8333 89.2592 15.0772 89.2592 20.3124C89.2592 25.5476 93.5032 29.7916 98.7384 29.7916H101.931C108.492 29.7916 113.907 34.8104 113.656 41.3664C113.218 52.8113 110.991 70.8547 102.314 86.6666C100.025 90.8384 96.916 95.0246 93.4633 99.0137C82.7388 111.404 77.3765 117.6 64.9989 117.6C52.6212 117.6 47.259 111.404 36.5344 99.0137C33.0817 95.0246 29.9727 90.8384 27.6835 86.6666C19.267 71.3282 16.9189 55.0308 16.3854 44.4635C16.0555 37.928 21.4626 32.9513 28.0065 32.9513H29.6795C35.7872 32.9513 40.7385 28 40.7385 21.8923C40.7385 15.7845 45.6898 10.8333 51.7975 10.8333H79.7801Z" stroke="#E0E0E0" stroke-width="2.5"/>
<path d="M57.9029 48.6587C60.1363 41.5581 69.8609 41.5581 72.0943 48.6587C73.0931 51.8342 75.9578 53.9841 79.1901 53.9841C86.4176 53.9841 89.4227 63.5379 83.5755 67.9263C80.9605 69.8888 79.8663 73.3675 80.8651 76.543C83.0986 83.6436 75.2312 89.5481 69.384 85.1597C66.769 83.1972 63.2281 83.1972 60.6132 85.1597C54.766 89.5481 46.8986 83.6436 49.132 76.543C50.1309 73.3675 49.0367 69.8888 46.4217 67.9263C40.5745 63.5379 43.5796 53.9841 50.8071 53.9841C54.0394 53.9841 56.904 51.8342 57.9029 48.6587Z" stroke="#E0E0E0" stroke-width="2.5"/>
</svg>
