<svg width="130" height="130" viewBox="0 0 130 130" fill="none" xmlns="http://www.w3.org/2000/svg">
<mask id="path-1-outside-1_149_1588" maskUnits="userSpaceOnUse" x="14.25" y="13.25" width="102" height="102" fill="black">
<rect fill="white" x="14.25" y="13.25" width="102" height="102"/>
<path d="M102.917 21.6667C102.917 24.6582 105.342 27.0833 108.333 27.0833C111.325 27.0833 113.75 24.6582 113.75 21.6667C113.75 18.6751 111.325 16.25 108.333 16.25C105.342 16.25 102.917 18.6751 102.917 21.6667Z"/>
</mask>
<path d="M81.25 17.5C81.9404 17.5 82.5 16.9404 82.5 16.25C82.5 15.5596 81.9404 15 81.25 15V17.5ZM115 48.75C115 48.0596 114.44 47.5 113.75 47.5C113.06 47.5 112.5 48.0596 112.5 48.75H115ZM27.4141 108.578L26.6794 109.589H26.6794L27.4141 108.578ZM21.4225 102.586L22.4337 101.851H22.4337L21.4225 102.586ZM102.586 108.578L103.321 109.589L102.586 108.578ZM108.578 102.586L109.589 103.321L108.578 102.586ZM21.4225 27.4141L20.4112 26.6794L21.4225 27.4141ZM27.4141 21.4225L26.6794 20.4112L27.4141 21.4225ZM36.7944 79.9257C36.4904 80.5455 36.7464 81.2944 37.3662 81.5984C37.986 81.9025 38.7349 81.6465 39.0389 81.0267L36.7944 79.9257ZM45.8268 64.3505L46.9491 64.901L45.8268 64.3505ZM84.1732 65.6495L85.2954 66.2L84.1732 65.6495ZM93.2056 50.0743C93.5096 49.4545 93.2536 48.7056 92.6338 48.4016C92.014 48.0975 91.2651 48.3535 90.9611 48.9733L93.2056 50.0743ZM65 65L63.8431 65.4733L65 65ZM65 17.5H81.25V15H65V17.5ZM112.5 48.75V65H115V48.75H112.5ZM65 112.5C54.8166 112.5 47.2795 112.498 41.3948 111.861C35.5335 111.226 31.4599 109.972 28.1489 107.566L26.6794 109.589C30.4877 112.356 35.0515 113.688 41.1255 114.346C47.1762 115.002 54.8723 115 65 115V112.5ZM15 65C15 75.1277 14.9983 82.8238 15.6538 88.8745C16.3119 94.9485 17.6443 99.5123 20.4112 103.321L22.4337 101.851C20.0281 98.5401 18.7743 94.4665 18.1393 88.6052C17.5017 82.7205 17.5 75.1834 17.5 65H15ZM28.1489 107.566C25.9558 105.973 24.0271 104.044 22.4337 101.851L20.4112 103.321C22.1588 105.726 24.2741 107.841 26.6794 109.589L28.1489 107.566ZM65 115C75.1277 115 82.8238 115.002 88.8745 114.346C94.9485 113.688 99.5123 112.356 103.321 109.589L101.851 107.566C98.5401 109.972 94.4665 111.226 88.6052 111.861C82.7205 112.498 75.1834 112.5 65 112.5V115ZM112.5 65C112.5 75.1834 112.498 82.7205 111.861 88.6052C111.226 94.4665 109.972 98.5401 107.566 101.851L109.589 103.321C112.356 99.5123 113.688 94.9485 114.346 88.8745C115.002 82.8238 115 75.1277 115 65H112.5ZM103.321 109.589C105.726 107.841 107.841 105.726 109.589 103.321L107.566 101.851C105.973 104.044 104.044 105.973 101.851 107.566L103.321 109.589ZM17.5 65C17.5 54.8166 17.5017 47.2795 18.1393 41.3948C18.7743 35.5335 20.0281 31.4599 22.4337 28.1489L20.4112 26.6794C17.6443 30.4877 16.3119 35.0515 15.6538 41.1255C14.9983 47.1762 15 54.8723 15 65H17.5ZM65 15C54.8723 15 47.1762 14.9983 41.1255 15.6538C35.0515 16.3119 30.4877 17.6443 26.6794 20.4112L28.1489 22.4337C31.4599 20.0281 35.5335 18.7743 41.3948 18.1393C47.2795 17.5017 54.8166 17.5 65 17.5V15ZM22.4337 28.1489C24.0271 25.9558 25.9558 24.0271 28.1489 22.4337L26.6794 20.4112C24.2741 22.1588 22.1588 24.2741 20.4112 26.6794L22.4337 28.1489ZM39.0389 81.0267L46.9491 64.901L44.7045 63.8L36.7944 79.9257L39.0389 81.0267ZM85.2954 66.2L93.2056 50.0743L90.9611 48.9733L83.0509 65.099L85.2954 66.2ZM63.8431 65.4733C67.6864 74.8681 80.8251 75.3132 85.2954 66.2L83.0509 65.099C79.5305 72.2758 69.1836 71.9253 66.1569 64.5267L63.8431 65.4733ZM46.9491 64.901C50.4695 57.7242 60.8164 58.0747 63.8431 65.4733L66.1569 64.5267C62.3136 55.1319 49.1749 54.6868 44.7045 63.8L46.9491 64.901ZM100.417 21.6667C100.417 26.0389 103.961 29.5833 108.333 29.5833V24.5833C106.723 24.5833 105.417 23.2775 105.417 21.6667H100.417ZM108.333 29.5833C112.706 29.5833 116.25 26.0389 116.25 21.6667H111.25C111.25 23.2775 109.944 24.5833 108.333 24.5833V29.5833ZM116.25 21.6667C116.25 17.2944 112.706 13.75 108.333 13.75V18.75C109.944 18.75 111.25 20.0558 111.25 21.6667H116.25ZM108.333 13.75C103.961 13.75 100.417 17.2944 100.417 21.6667H105.417C105.417 20.0558 106.723 18.75 108.333 18.75V13.75Z" fill="#E0E0E0" mask="url(#path-1-outside-1_149_1588)"/>
</svg>
