<svg width="100" height="100" viewBox="0 0 100 100" fill="none" xmlns="http://www.w3.org/2000/svg">
<path d="M29.1677 61.9047L35.2524 49.5004C38.3258 43.235 47.3587 43.541 50.001 50C52.6433 56.459 61.6763 56.765 64.7496 50.4996L70.8344 38.0952M50.001 89.6928C39.3874 89.6928 34.0805 89.6928 29.6033 87.396C28.9901 87.0814 28.393 86.7367 27.814 86.3629C23.5863 83.6339 20.9329 79.0381 15.626 69.8464C10.3192 60.6547 7.66578 56.0588 7.41625 51.033C7.38208 50.3447 7.38208 49.6552 7.41625 48.9669C7.66578 43.9411 10.3192 39.3453 15.626 30.1535C20.9329 20.9618 23.5863 16.366 27.814 13.637C28.393 13.2633 28.9901 12.9185 29.6033 12.6039C34.0805 10.3071 39.3874 10.3071 50.001 10.3071C60.6147 10.3071 65.9215 10.3071 70.3987 12.6039C71.0119 12.9185 71.6091 13.2633 72.1881 13.637C76.4158 16.366 79.0692 20.9618 84.376 30.1535C89.6829 39.3453 92.3363 43.9411 92.5858 48.9669C92.62 49.6552 92.62 50.3447 92.5858 51.033C92.3363 56.0588 89.6829 60.6547 84.376 69.8464C79.0692 79.0381 76.4158 83.6339 72.1881 86.3629C71.6091 86.7367 71.0119 87.0814 70.3988 87.396C65.9215 89.6928 60.6147 89.6928 50.001 89.6928Z" stroke="#E0E0E0" stroke-width="2.5" stroke-linecap="round"/>
</svg>
