<svg width="100" height="100" viewBox="0 0 100 100" fill="none" xmlns="http://www.w3.org/2000/svg">
<path d="M54.1667 55.4168C54.857 55.4168 55.4167 54.8572 55.4167 54.1668C55.4167 53.4765 54.857 52.9168 54.1667 52.9168V55.4168ZM54.1667 88.7502C54.857 88.7502 55.4167 88.1905 55.4167 87.5002C55.4167 86.8098 54.857 86.2502 54.1667 86.2502V88.7502ZM92.598 55.0006C93.0584 54.4863 93.0148 53.696 92.5005 53.2355C91.9861 52.7751 91.1959 52.8187 90.7354 53.333L92.598 55.0006ZM77.6284 69.8467L76.6972 69.013L77.6284 69.8467ZM53.6215 69.8467L54.5528 69.0129H54.5528L53.6215 69.8467ZM50.9313 64.9679C50.4708 64.4535 49.6805 64.4099 49.1662 64.8704C48.6519 65.3309 48.6082 66.1211 49.0687 66.6355L50.9313 64.9679ZM57.0833 25.0002C57.0833 33.5146 50.1811 40.4168 41.6667 40.4168V42.9168C51.5618 42.9168 59.5833 34.8953 59.5833 25.0002H57.0833ZM41.6667 40.4168C33.1523 40.4168 26.25 33.5146 26.25 25.0002H23.75C23.75 34.8953 31.7716 42.9168 41.6667 42.9168V40.4168ZM26.25 25.0002C26.25 16.4858 33.1523 9.5835 41.6667 9.5835V7.0835C31.7716 7.0835 23.75 15.1051 23.75 25.0002H26.25ZM41.6667 9.5835C50.1811 9.5835 57.0833 16.4858 57.0833 25.0002H59.5833C59.5833 15.1051 51.5618 7.0835 41.6667 7.0835V9.5835ZM29.1667 55.4168H54.1667V52.9168H29.1667V55.4168ZM54.1667 86.2502H29.1667V88.7502H54.1667V86.2502ZM29.1667 86.2502C20.6523 86.2502 13.75 79.3479 13.75 70.8335H11.25C11.25 80.7286 19.2716 88.7502 29.1667 88.7502V86.2502ZM29.1667 52.9168C19.2716 52.9168 11.25 60.9384 11.25 70.8335H13.75C13.75 62.3191 20.6523 55.4168 29.1667 55.4168V52.9168ZM90.7354 53.333L76.6972 69.013L78.5597 70.6805L92.598 55.0006L90.7354 53.333ZM54.5528 69.0129L50.9313 64.9679L49.0687 66.6355L52.6903 70.6805L54.5528 69.0129ZM76.6972 69.013C73.8905 72.1479 71.8726 74.3973 70.1086 75.8799C68.3756 77.3365 67.043 77.9168 65.625 77.9168V80.4168C67.8662 80.4168 69.7539 79.4438 71.7171 77.7937C73.6493 76.1697 75.8036 73.759 78.5597 70.6805L76.6972 69.013ZM52.6903 70.6805C55.4464 73.759 57.6007 76.1696 59.5329 77.7937C61.4961 79.4438 63.3838 80.4168 65.625 80.4168V77.9168C64.207 77.9168 62.8744 77.3365 61.1414 75.8799C59.3774 74.3973 57.3595 72.1479 54.5528 69.0129L52.6903 70.6805Z" fill="#E0E0E0"/>
</svg>
