<svg width="100" height="100" viewBox="0 0 100 100" fill="none" xmlns="http://www.w3.org/2000/svg">
<path d="M26.8955 90.6469L27.2817 89.4581L26.8955 90.6469ZM13.5197 77.2711L14.7085 76.8848L13.5197 77.2711ZM86.4803 77.2711L85.2915 76.8848L86.4803 77.2711ZM73.1045 90.6469L72.7182 89.4581L73.1045 90.6469ZM73.1045 34.3529L72.7182 35.5417L73.1045 34.3529ZM86.4803 47.7287L85.2915 48.115L86.4803 47.7287ZM26.8955 34.3529L27.2817 35.5417L26.8955 34.3529ZM13.5197 47.7287L14.7085 48.115L13.5197 47.7287ZM48.75 79.1666C48.75 79.8569 49.3096 80.4166 50 80.4166C50.6904 80.4166 51.25 79.8569 51.25 79.1666H48.75ZM41.6667 34.5833H58.3333V32.0833H41.6667V34.5833ZM58.3333 90.4166H41.6667V92.9166H58.3333V90.4166ZM41.6667 90.4166C33.814 90.4166 30.1842 90.4012 27.2817 89.4581L26.5092 91.8358C29.8831 92.932 34.0086 92.9166 41.6667 92.9166V90.4166ZM11.25 62.4999C11.25 70.158 11.2346 74.2834 12.3308 77.6574L14.7085 76.8848C13.7654 73.9824 13.75 70.3526 13.75 62.4999H11.25ZM27.2817 89.4581C21.3198 87.521 16.6456 82.8467 14.7085 76.8848L12.3308 77.6574C14.5153 84.3804 19.7862 89.6513 26.5092 91.8358L27.2817 89.4581ZM86.25 62.4999C86.25 70.3526 86.2346 73.9824 85.2915 76.8848L87.6692 77.6574C88.7654 74.2834 88.75 70.158 88.75 62.4999H86.25ZM58.3333 92.9166C65.9914 92.9166 70.1169 92.932 73.4908 91.8358L72.7182 89.4581C69.8158 90.4012 66.186 90.4166 58.3333 90.4166V92.9166ZM85.2915 76.8848C83.3544 82.8467 78.6802 87.521 72.7182 89.4581L73.4908 91.8358C80.2138 89.6513 85.4847 84.3804 87.6692 77.6574L85.2915 76.8848ZM88.75 62.4999C88.75 54.8419 88.7654 50.7164 87.6692 47.3425L85.2915 48.115C86.2346 51.0174 86.25 54.6473 86.25 62.4999H88.75ZM72.7182 35.5417C78.6802 37.4789 83.3544 42.1531 85.2915 48.115L87.6692 47.3425C85.4847 40.6195 80.2138 35.3485 73.4908 33.1641L72.7182 35.5417ZM13.75 62.4999C13.75 54.6473 13.7654 51.0174 14.7085 48.115L12.3308 47.3425C11.2346 50.7164 11.25 54.8419 11.25 62.4999H13.75ZM26.5092 33.1641C19.7862 35.3485 14.5153 40.6195 12.3308 47.3425L14.7085 48.115C16.6456 42.1531 21.3198 37.4789 27.2817 35.5417L26.5092 33.1641ZM69.5833 29.1666V33.3333H72.0833V29.1666H69.5833ZM30.4167 33.3333V29.1666H27.9167V33.3333H30.4167ZM50 9.58325C60.8156 9.58325 69.5833 18.351 69.5833 29.1666H72.0833C72.0833 16.9703 62.1963 7.08325 50 7.08325V9.58325ZM50 7.08325C37.8037 7.08325 27.9167 16.9703 27.9167 29.1666H30.4167C30.4167 18.351 39.1844 9.58325 50 9.58325V7.08325ZM48.75 62.4999V79.1666H51.25V62.4999H48.75ZM40.4167 54.1666C40.4167 59.4593 44.7073 63.7499 50 63.7499V61.2499C46.088 61.2499 42.9167 58.0786 42.9167 54.1666H40.4167ZM50 63.7499C55.2927 63.7499 59.5833 59.4593 59.5833 54.1666H57.0833C57.0833 58.0786 53.912 61.2499 50 61.2499V63.7499ZM59.5833 54.1666C59.5833 48.8739 55.2927 44.5833 50 44.5833V47.0833C53.912 47.0833 57.0833 50.2546 57.0833 54.1666H59.5833ZM50 44.5833C44.7073 44.5833 40.4167 48.8739 40.4167 54.1666H42.9167C42.9167 50.2546 46.088 47.0833 50 47.0833V44.5833ZM41.6667 32.0833C35.7101 32.0833 31.9005 32.0789 28.959 32.5744L29.3743 35.0397C32.0578 34.5876 35.6094 34.5833 41.6667 34.5833V32.0833ZM28.959 32.5744C28.0884 32.7211 27.2827 32.9128 26.5092 33.1641L27.2817 35.5417C27.9232 35.3333 28.6077 35.1688 29.3743 35.0397L28.959 32.5744ZM27.9167 33.3333V33.8071H30.4167V33.3333H27.9167ZM58.3333 34.5833C64.3906 34.5833 67.9422 34.5876 70.6257 35.0397L71.041 32.5744C68.0995 32.0789 64.2899 32.0833 58.3333 32.0833V34.5833ZM70.6257 35.0397C71.3923 35.1688 72.0768 35.3333 72.7182 35.5417L73.4908 33.1641C72.7173 32.9128 71.9116 32.7211 71.041 32.5744L70.6257 35.0397ZM69.5833 33.3333V33.8071H72.0833V33.3333H69.5833Z" fill="#E0E0E0"/>
</svg>
