<svg width="100" height="100" viewBox="0 0 100 100" fill="none" xmlns="http://www.w3.org/2000/svg">
<path d="M62.4995 41.6666L54.0766 52.1199C50.7389 56.2621 49.07 58.3333 46.8745 58.3333C44.679 58.3333 43.0102 56.2621 39.6724 52.1199L37.4995 49.4231M78.7039 66.6666C85.378 54.5036 87.0912 40.6241 87.4285 31.8203C87.6217 26.7772 83.4557 22.9166 78.4088 22.9166H75.9532C71.9261 22.9166 68.6616 19.652 68.6616 15.6249C68.6616 11.5978 65.397 8.33325 61.3699 8.33325H39.8449C35.1466 8.33325 31.3379 12.1419 31.3379 16.8402C31.3379 21.5385 27.5292 25.3471 22.831 25.3471H21.544C16.5103 25.3471 12.351 29.1754 12.6048 34.2027C13.0151 42.3313 14.8214 54.8679 21.2956 66.6666C23.0565 69.8757 25.4481 73.0958 28.104 76.1644C36.3537 85.6957 40.4785 90.4613 49.9997 90.4613C59.521 90.4613 63.6458 85.6957 71.8954 76.1644C74.5514 73.0958 76.943 69.8757 78.7039 66.6666Z" stroke="#E0E0E0" stroke-width="2.5" stroke-linecap="round"/>
</svg>
