<svg width="350" height="260" viewBox="0 0 350 260" fill="none" xmlns="http://www.w3.org/2000/svg">
<g clip-path="url(#clip0_281_17306)">
<path d="M128.179 118.562C131.388 118.562 134.404 120.01 136.586 122.248C136.586 121.195 137.292 120.34 138.255 120.34H138.512C140.052 120.34 140.373 121.853 140.373 122.314V139.164C140.245 140.283 141.464 140.876 142.17 140.152C144.802 137.321 148.011 125.803 140.501 119.089C133.506 112.836 124.199 113.889 119.257 117.378C113.994 121.064 110.593 129.357 113.866 137.124C117.46 145.549 127.665 148.116 133.698 145.549C136.779 144.232 138.191 148.511 135.046 149.959C130.232 152.065 116.754 151.868 110.529 140.744C106.293 133.175 106.549 120.01 117.781 113.099C126.381 107.9 137.742 109.348 144.545 116.654C151.733 124.355 151.348 138.703 144.417 144.298C141.207 146.799 136.586 144.364 136.586 140.678L136.522 139.493C134.34 141.731 131.452 143.048 128.179 143.048C121.889 143.048 116.305 137.387 116.305 130.871C116.305 124.289 121.825 118.562 128.179 118.562ZM136.073 130.41C135.88 125.671 132.415 122.841 128.307 122.841H128.114C123.365 122.841 120.733 126.658 120.733 131.068C120.733 135.939 123.943 139.033 128.114 139.033C132.8 139.033 135.88 135.478 136.137 131.397L136.073 130.41Z" fill="#414042"/>
<path d="M225.35 113.823C225.35 114.942 224.259 115.863 222.718 115.863C221.178 115.863 220.215 114.81 220.215 113.757V112.375C220.215 111.322 221.178 110.071 222.718 110.071C224.451 110.071 225.35 111.19 225.35 112.375V113.823Z" fill="#414042"/>
<path d="M178.69 117.97C175.481 117.904 173.106 119.813 171.63 121.063C169.961 119.286 167.843 118.167 165.661 117.97C163.35 117.772 161.232 118.628 159.82 119.747C159.307 118.628 158.729 117.97 157.638 117.97C156.419 117.97 155.199 119.023 155.199 120.734V142.784C155.199 144.101 156.226 145.285 157.766 145.285C159.435 145.285 160.334 143.969 160.334 142.718V126.329C160.334 124.749 162.965 122.841 165.211 122.906C166.623 122.906 168.356 124.354 168.356 126.658V142.784C168.356 144.166 169.704 145.285 171.052 145.285C172.528 145.285 173.683 144.101 173.683 142.784V126.461C173.683 124.486 176.636 122.775 178.69 122.906C180.294 123.038 181.642 124.749 181.642 126.461V142.784C181.642 144.166 182.926 145.285 184.338 145.285C185.557 145.285 186.969 144.43 186.969 142.784V126.592C186.905 120.603 181.193 117.838 178.69 117.97Z" fill="#414042"/>
<path d="M222.718 117.904C221.178 117.904 220.215 119.221 220.215 120.537V142.719C220.215 144.167 221.371 145.286 222.718 145.286C224.323 145.286 225.35 143.969 225.35 142.587V120.537C225.35 119.221 224.066 117.904 222.718 117.904Z" fill="#414042"/>
<path d="M213.733 117.904C212.321 117.904 211.294 119.089 211.294 120.274V121.195C208.984 119.155 206.031 117.904 202.822 117.904C195.762 117.904 189.536 123.96 189.536 131.661C189.536 138.638 195.441 145.351 202.822 145.351C205.774 145.351 208.984 144.167 211.294 142.192V142.85C211.294 144.101 212.257 145.351 213.797 145.351C215.594 145.351 216.364 143.903 216.364 142.719V120.405C216.364 119.352 215.273 117.904 213.733 117.904ZM202.886 140.217C198.201 140.217 194.478 136.334 194.478 131.595C194.478 126.79 198.265 122.972 202.886 122.972C207.571 122.972 211.294 126.856 211.294 131.595C211.294 136.334 207.507 140.217 202.886 140.217Z" fill="#414042"/>
<path d="M240.433 140.02C237.159 140.02 234.207 137.453 234.207 133.635V112.507C234.207 111.059 233.052 110.006 231.64 110.006C229.971 110.006 229.073 111.256 229.073 112.507V133.635C229.073 140.152 234.335 145.351 240.369 145.351C242.166 145.351 243 143.903 243 142.587C243 141.336 242.037 140.02 240.433 140.02Z" fill="#414042"/>
</g>
<defs>
<clipPath id="clip0_281_17306">
<rect width="135" height="41" fill="white" transform="translate(108 110)"/>
</clipPath>
</defs>
</svg>
