<svg width="350" height="260" viewBox="0 0 350 260" fill="none" xmlns="http://www.w3.org/2000/svg">
<rect x="0.5" y="0.5" width="349" height="259" stroke="white" stroke-opacity="0.11"/>
<path d="M95 118.471H104.523L110.052 132.635L115.661 118.471H124.942L110.98 152.045H101.658L105.492 143.167L95 118.471ZM134.586 117.906C127.444 117.906 122.924 124.322 122.924 130.698C122.924 137.881 127.888 143.57 134.465 143.57C139.388 143.57 141.245 140.584 141.245 140.584V142.925H149.557V118.471H141.245V120.69C141.204 120.69 139.146 117.906 134.586 117.906ZM136.362 125.775C139.671 125.775 141.366 128.398 141.366 130.738C141.366 133.28 139.55 135.782 136.362 135.782C133.739 135.782 131.358 133.644 131.358 130.859C131.358 128.035 133.255 125.775 136.362 125.775ZM152.382 142.925V107.656H161.058V120.771C161.058 120.771 163.116 117.906 167.434 117.906C172.72 117.906 175.827 121.861 175.827 127.47V142.925H167.192V129.568C167.192 127.671 166.304 125.815 164.246 125.815C162.148 125.815 161.058 127.671 161.058 129.568V142.925H152.382ZM190.637 117.906C182.445 117.906 177.562 124.12 177.562 130.819C177.562 138.405 183.454 143.611 190.677 143.611C197.658 143.611 203.752 138.647 203.752 130.94C203.752 122.506 197.335 117.906 190.637 117.906ZM190.718 125.815C193.623 125.815 195.6 128.236 195.6 130.779C195.6 132.958 193.744 135.661 190.718 135.661C187.933 135.661 185.875 133.442 185.875 130.738C185.875 128.196 187.57 125.815 190.718 125.815ZM218.198 117.906C210.006 117.906 205.124 124.12 205.124 130.819C205.124 138.405 211.015 143.611 218.238 143.611C225.219 143.611 231.313 138.647 231.313 130.94C231.313 122.506 224.937 117.906 218.198 117.906ZM218.279 125.815C221.184 125.815 223.161 128.236 223.161 130.779C223.161 132.958 221.305 135.661 218.279 135.661C215.494 135.661 213.436 133.442 213.436 130.738C213.436 128.196 215.171 125.815 218.279 125.815ZM238.173 131.908C241.361 131.908 243.943 134.491 243.943 137.679C243.943 140.867 241.361 143.449 238.173 143.449C234.985 143.449 232.402 140.867 232.402 137.679C232.402 134.491 234.985 131.908 238.173 131.908ZM245.84 129.81H235.469L244.67 107.656H255L245.84 129.81Z" fill="#414042"/>
</svg>
