<svg width="180" height="102" viewBox="0 0 180 102" fill="none" xmlns="http://www.w3.org/2000/svg">
<path d="M160 0H20C8.95431 0 0 8.95429 0 20V48.2204V94.0288C0 96.109 2.78104 96.8068 3.7631 94.973L6.34586 90.1501C9.82705 83.6495 16.6028 79.5918 23.9769 79.5918H160C171.046 79.5918 180 70.6375 180 59.5918V20C180 8.9543 171.046 0 160 0Z" fill="#02AAB2"/>
<path d="M20.56 22.586L27.728 15.04H20.616V13.5H30.234V14.9L23.059 22.46H30.276V24H20.56V22.586ZM35.7236 24.196C34.8043 24.196 33.9806 24.021 33.2526 23.671C32.5293 23.321 31.9646 22.831 31.5586 22.201C31.1526 21.5663 30.9496 20.8407 30.9496 20.024C30.9496 19.212 31.1433 18.4933 31.5306 17.868C31.918 17.238 32.457 16.7503 33.1476 16.405C33.8383 16.055 34.6223 15.88 35.4996 15.88C36.3723 15.88 37.1353 16.0783 37.7886 16.475C38.4466 16.8717 38.953 17.434 39.3076 18.162C39.6623 18.8853 39.8396 19.7253 39.8396 20.682H32.8816C33.0403 21.34 33.3973 21.8533 33.9526 22.222C34.5126 22.586 35.2196 22.768 36.0736 22.768C36.685 22.768 37.3056 22.6723 37.9356 22.481C38.5703 22.285 39.1303 22.0167 39.6156 21.676V22.992C39.1256 23.3653 38.533 23.6593 37.8376 23.874C37.147 24.0887 36.4423 24.196 35.7236 24.196ZM37.9496 19.296C37.819 18.666 37.5343 18.1783 37.0956 17.833C36.6616 17.483 36.1156 17.308 35.4576 17.308C35.0003 17.308 34.5896 17.3897 34.2256 17.553C33.8663 17.7117 33.5676 17.9403 33.3296 18.239C33.0916 18.5377 32.933 18.89 32.8536 19.296H37.9496ZM42.7791 16.076L43.1361 18.26C43.3834 17.5227 43.7638 16.9417 44.2771 16.517C44.7951 16.0923 45.4298 15.88 46.1811 15.88C46.3678 15.88 46.5591 15.894 46.7551 15.922C46.9511 15.9453 47.1238 15.978 47.2731 16.02V17.616C47.0678 17.56 46.8438 17.518 46.6011 17.49C46.3631 17.462 46.1344 17.448 45.9151 17.448C45.3971 17.448 44.9374 17.5623 44.5361 17.791C44.1348 18.0197 43.8198 18.358 43.5911 18.806C43.3671 19.2493 43.2551 19.786 43.2551 20.416V24H41.4351V18.61L40.9591 16.076H42.7791ZM52.4867 24.196C51.5347 24.196 50.6923 24.0233 49.9597 23.678C49.2317 23.328 48.6647 22.838 48.2587 22.208C47.8573 21.578 47.6567 20.8547 47.6567 20.038C47.6567 19.2213 47.8573 18.498 48.2587 17.868C48.6647 17.238 49.2317 16.7503 49.9597 16.405C50.6923 16.055 51.5347 15.88 52.4867 15.88C53.4387 15.88 54.2787 16.055 55.0067 16.405C55.7393 16.7503 56.3063 17.238 56.7077 17.868C57.1137 18.498 57.3167 19.2213 57.3167 20.038C57.3167 20.8547 57.1137 21.578 56.7077 22.208C56.3063 22.838 55.7393 23.328 55.0067 23.678C54.2787 24.0233 53.4387 24.196 52.4867 24.196ZM49.5047 20.038C49.5047 20.5933 49.626 21.0763 49.8687 21.487C50.1113 21.8977 50.4567 22.215 50.9047 22.439C51.3527 22.6583 51.88 22.768 52.4867 22.768C53.0933 22.768 53.6207 22.6583 54.0687 22.439C54.5167 22.215 54.862 21.8977 55.1047 21.487C55.3473 21.0763 55.4687 20.5933 55.4687 20.038C55.4687 19.4873 55.3473 19.0067 55.1047 18.596C54.862 18.1853 54.5167 17.868 54.0687 17.644C53.6207 17.42 53.0933 17.308 52.4867 17.308C51.88 17.308 51.3527 17.42 50.9047 17.644C50.4567 17.868 50.1113 18.1853 49.8687 18.596C49.626 19.0067 49.5047 19.4873 49.5047 20.038ZM73.0227 24H71.2587V15.25L66.9467 24H64.9727L60.6607 15.264V24H58.8967V13.5H61.7247L65.9667 22.25L70.1947 13.5H73.0227V24ZM82.2546 22.033C81.8439 22.7143 81.3236 23.2463 80.6936 23.629C80.0636 24.007 79.3683 24.196 78.6076 24.196C77.8423 24.196 77.1586 24.0233 76.5566 23.678C75.9546 23.328 75.4856 22.838 75.1496 22.208C74.8136 21.578 74.6456 20.8547 74.6456 20.038C74.6456 19.2213 74.8136 18.498 75.1496 17.868C75.4856 17.238 75.9546 16.7503 76.5566 16.405C77.1586 16.055 77.8423 15.88 78.6076 15.88C79.3729 15.88 80.0683 16.069 80.6936 16.447C81.3236 16.825 81.8439 17.3547 82.2546 18.036L82.4576 16.076H84.3336L83.9136 20.038L84.3336 24H82.4576L82.2546 22.033ZM76.4936 20.038C76.4936 20.5607 76.6009 21.0273 76.8156 21.438C77.0349 21.8487 77.3383 22.1683 77.7256 22.397C78.1129 22.6257 78.5516 22.74 79.0416 22.74C79.5316 22.74 79.9913 22.628 80.4206 22.404C80.8546 22.1753 81.2373 21.858 81.5686 21.452C81.9046 21.046 82.1729 20.5747 82.3736 20.038C82.1729 19.506 81.9046 19.037 81.5686 18.631C81.2373 18.225 80.8546 17.9077 80.4206 17.679C79.9913 17.4503 79.5316 17.336 79.0416 17.336C78.5516 17.336 78.1129 17.4527 77.7256 17.686C77.3383 17.9147 77.0349 18.2343 76.8156 18.645C76.6009 19.051 76.4936 19.5153 76.4936 20.038ZM88.4721 19.933L85.2591 16.076H87.3451L89.6761 18.841L92.0211 16.076H94.0371L90.7961 19.919L94.2611 24H92.1751L89.6061 20.997L87.0651 24H85.0351L88.4721 19.933ZM112.917 24H111.153V15.25L106.841 24H104.867L100.555 15.264V24H98.7912V13.5H101.619L105.861 22.25L110.089 13.5H112.917V24ZM119.328 24.196C118.376 24.196 117.534 24.0233 116.801 23.678C116.073 23.328 115.506 22.838 115.1 22.208C114.699 21.578 114.498 20.8547 114.498 20.038C114.498 19.2213 114.699 18.498 115.1 17.868C115.506 17.238 116.073 16.7503 116.801 16.405C117.534 16.055 118.376 15.88 119.328 15.88C120.28 15.88 121.12 16.055 121.848 16.405C122.581 16.7503 123.148 17.238 123.549 17.868C123.955 18.498 124.158 19.2213 124.158 20.038C124.158 20.8547 123.955 21.578 123.549 22.208C123.148 22.838 122.581 23.328 121.848 23.678C121.12 24.0233 120.28 24.196 119.328 24.196ZM116.346 20.038C116.346 20.5933 116.468 21.0763 116.71 21.487C116.953 21.8977 117.298 22.215 117.746 22.439C118.194 22.6583 118.722 22.768 119.328 22.768C119.935 22.768 120.462 22.6583 120.91 22.439C121.358 22.215 121.704 21.8977 121.946 21.487C122.189 21.0763 122.31 20.5933 122.31 20.038C122.31 19.4873 122.189 19.0067 121.946 18.596C121.704 18.1853 121.358 17.868 120.91 17.644C120.462 17.42 119.935 17.308 119.328 17.308C118.722 17.308 118.194 17.42 117.746 17.644C117.298 17.868 116.953 18.1853 116.71 18.596C116.468 19.0067 116.346 19.4873 116.346 20.038ZM126.362 16.076L129.288 22.425L132.186 16.076H134.132L130.268 24H128.224L124.36 16.076H126.362ZM136.118 16.188L137.028 16.02V24H135.208V16.02L136.118 16.188ZM134.928 13.99C134.928 13.682 135.038 13.4323 135.257 13.241C135.481 13.0497 135.768 12.954 136.118 12.954C136.468 12.954 136.753 13.0497 136.972 13.241C137.196 13.4323 137.308 13.682 137.308 13.99C137.308 14.298 137.196 14.5477 136.972 14.739C136.753 14.9303 136.468 15.026 136.118 15.026C135.768 15.026 135.481 14.9303 135.257 14.739C135.038 14.5477 134.928 14.298 134.928 13.99ZM140.396 16.076L140.711 17.98C141.038 17.308 141.488 16.79 142.062 16.426C142.641 16.062 143.294 15.88 144.022 15.88C144.764 15.88 145.397 16.0293 145.919 16.328C146.447 16.622 146.848 17.049 147.123 17.609C147.399 18.169 147.536 18.8387 147.536 19.618V24H145.716V19.912C145.716 19.086 145.52 18.4607 145.128 18.036C144.741 17.6067 144.176 17.392 143.434 17.392C142.921 17.392 142.471 17.5063 142.083 17.735C141.696 17.959 141.397 18.2787 141.187 18.694C140.977 19.1093 140.872 19.59 140.872 20.136V24H139.052V18.666L138.576 16.076H140.396ZM156.555 21.445C156.144 22.0097 155.607 22.474 154.945 22.838C154.287 23.202 153.554 23.384 152.747 23.384C152.028 23.384 151.377 23.2277 150.794 22.915C150.21 22.6023 149.751 22.1613 149.415 21.592C149.079 21.0227 148.911 20.3693 148.911 19.632C148.911 18.8947 149.079 18.2413 149.415 17.672C149.751 17.1027 150.21 16.6617 150.794 16.349C151.377 16.0363 152.028 15.88 152.747 15.88C153.549 15.88 154.28 16.069 154.938 16.447C155.6 16.8203 156.139 17.294 156.555 17.868V16.076H158.375V21.886C158.375 22.88 158.162 23.7223 157.738 24.413C157.318 25.1083 156.732 25.631 155.981 25.981C155.234 26.331 154.371 26.506 153.391 26.506C152.686 26.506 152.035 26.4127 151.438 26.226C150.84 26.044 150.259 25.7593 149.695 25.372V23.86C150.721 24.672 151.916 25.078 153.279 25.078C154.338 25.078 155.148 24.8167 155.708 24.294C156.272 23.776 156.555 23.0293 156.555 22.054V21.445ZM150.745 19.632C150.745 20.108 150.845 20.528 151.046 20.892C151.246 21.2513 151.538 21.5337 151.921 21.739C152.308 21.9397 152.77 22.04 153.307 22.04C153.983 22.04 154.597 21.8463 155.148 21.459C155.698 21.067 156.191 20.458 156.625 19.632C156.195 18.7967 155.703 18.1853 155.148 17.798C154.597 17.406 153.983 17.21 153.307 17.21C152.775 17.21 152.315 17.3127 151.928 17.518C151.545 17.7187 151.251 18.0033 151.046 18.372C150.845 18.736 150.745 19.156 150.745 19.632Z" fill="white"/>
</svg>
