<svg width="100" height="100" viewBox="0 0 100 100" fill="none" xmlns="http://www.w3.org/2000/svg">
<path d="M58.3346 27.9165C57.6443 27.9165 57.0846 28.4761 57.0846 29.1665C57.0846 29.8569 57.6443 30.4165 58.3346 30.4165V27.9165ZM83.3346 30.4165C84.025 30.4165 84.5846 29.8569 84.5846 29.1665C84.5846 28.4761 84.025 27.9165 83.3346 27.9165V30.4165ZM69.5846 41.6665C69.5846 42.3569 70.1443 42.9165 70.8346 42.9165C71.525 42.9165 72.0846 42.3569 72.0846 41.6665H69.5846ZM72.0846 16.6665C72.0846 15.9761 71.525 15.4165 70.8346 15.4165C70.1443 15.4165 69.5846 15.9761 69.5846 16.6665H72.0846ZM29.168 40.4165C27.2094 40.4165 25.8032 40.4158 24.6934 40.3401C23.5949 40.2652 22.8786 40.1209 22.2906 39.8773L21.3339 42.187C22.2773 42.5778 23.2975 42.7507 24.5232 42.8343C25.7378 42.9172 27.2436 42.9165 29.168 42.9165V40.4165ZM15.418 29.1665C15.418 31.0908 15.4173 32.5967 15.5002 33.8112C15.5838 35.037 15.7567 36.0571 16.1475 37.0006L18.4572 36.0438C18.2136 35.4558 18.0693 34.7395 17.9944 33.641C17.9186 32.5313 17.918 31.125 17.918 29.1665H15.418ZM22.2906 39.8773C20.555 39.1584 19.1761 37.7795 18.4572 36.0438L16.1475 37.0006C17.1201 39.3487 18.9857 41.2144 21.3339 42.187L22.2906 39.8773ZM40.418 29.1665C40.418 31.125 40.4173 32.5313 40.3416 33.641C40.2666 34.7395 40.1223 35.4558 39.8788 36.0438L42.1885 37.0006C42.5793 36.0571 42.7521 35.037 42.8358 33.8112C42.9186 32.5967 42.918 31.0908 42.918 29.1665H40.418ZM29.168 42.9165C31.0923 42.9165 32.5981 42.9172 33.8127 42.8343C35.0385 42.7507 36.0586 42.5778 37.002 42.187L36.0453 39.8773C35.4573 40.1209 34.741 40.2652 33.6425 40.3401C32.5328 40.4158 31.1265 40.4165 29.168 40.4165V42.9165ZM39.8788 36.0438C39.1599 37.7795 37.7809 39.1584 36.0453 39.8773L37.002 42.187C39.3502 41.2144 41.2158 39.3487 42.1885 37.0006L39.8788 36.0438ZM29.168 17.9165C31.1265 17.9165 32.5328 17.9172 33.6425 17.9929C34.741 18.0678 35.4573 18.2121 36.0453 18.4557L37.002 16.146C36.0586 15.7552 35.0385 15.5823 33.8127 15.4987C32.5981 15.4158 31.0923 15.4165 29.168 15.4165V17.9165ZM42.918 29.1665C42.918 27.2422 42.9186 25.7363 42.8358 24.5218C42.7521 23.296 42.5793 22.2759 42.1885 21.3325L39.8788 22.2892C40.1223 22.8772 40.2666 23.5935 40.3416 24.692C40.4173 25.8017 40.418 27.208 40.418 29.1665H42.918ZM36.0453 18.4557C37.7809 19.1746 39.1599 20.5535 39.8788 22.2892L42.1885 21.3325C41.2158 18.9843 39.3502 17.1186 37.002 16.146L36.0453 18.4557ZM29.168 15.4165C27.2436 15.4165 25.7378 15.4158 24.5232 15.4987C23.2975 15.5823 22.2773 15.7552 21.3339 16.146L22.2906 18.4557C22.8786 18.2121 23.5949 18.0678 24.6934 17.9929C25.8032 17.9172 27.2094 17.9165 29.168 17.9165V15.4165ZM17.918 29.1665C17.918 27.208 17.9186 25.8017 17.9944 24.692C18.0693 23.5935 18.2136 22.8772 18.4572 22.2892L16.1475 21.3325C15.7567 22.2759 15.5838 23.296 15.5002 24.5218C15.4173 25.7363 15.418 27.2422 15.418 29.1665H17.918ZM21.3339 16.146C18.9857 17.1186 17.1201 18.9843 16.1475 21.3325L18.4572 22.2892C19.1761 20.5535 20.555 19.1746 22.2906 18.4557L21.3339 16.146ZM58.3346 30.4165H83.3346V27.9165H58.3346V30.4165ZM72.0846 41.6665V16.6665H69.5846V41.6665H72.0846ZM29.168 82.0832C27.2094 82.0832 25.8032 82.0825 24.6934 82.0068C23.5949 81.9318 22.8786 81.7875 22.2906 81.544L21.3339 83.8537C22.2773 84.2445 23.2975 84.4173 24.5232 84.501C25.7378 84.5838 27.2436 84.5832 29.168 84.5832V82.0832ZM15.418 70.8332C15.418 72.7575 15.4173 74.2633 15.5002 75.4779C15.5838 76.7037 15.7567 77.7238 16.1475 78.6672L18.4572 77.7105C18.2136 77.1225 18.0693 76.4062 17.9944 75.3077C17.9186 74.198 17.918 72.7917 17.918 70.8332H15.418ZM22.2906 81.544C20.555 80.8251 19.1761 79.4461 18.4572 77.7105L16.1475 78.6672C17.1201 81.0154 18.9857 82.881 21.3339 83.8537L22.2906 81.544ZM40.418 70.8332C40.418 72.7917 40.4173 74.198 40.3416 75.3077C40.2666 76.4062 40.1223 77.1225 39.8788 77.7105L42.1885 78.6672C42.5793 77.7238 42.7521 76.7037 42.8358 75.4779C42.9186 74.2633 42.918 72.7575 42.918 70.8332H40.418ZM29.168 84.5832C31.0923 84.5832 32.5981 84.5838 33.8127 84.501C35.0385 84.4173 36.0586 84.2445 37.002 83.8537L36.0453 81.544C35.4573 81.7875 34.741 81.9318 33.6425 82.0068C32.5328 82.0825 31.1265 82.0832 29.168 82.0832V84.5832ZM39.8788 77.7105C39.1599 79.4461 37.7809 80.8251 36.0453 81.544L37.002 83.8537C39.3502 82.881 41.2158 81.0154 42.1885 78.6672L39.8788 77.7105ZM29.168 59.5832C31.1265 59.5832 32.5328 59.5838 33.6425 59.6596C34.741 59.7345 35.4573 59.8788 36.0453 60.1224L37.002 57.8127C36.0586 57.4219 35.0385 57.249 33.8127 57.1654C32.5981 57.0825 31.0923 57.0832 29.168 57.0832V59.5832ZM42.918 70.8332C42.918 68.9088 42.9186 67.403 42.8358 66.1884C42.7521 64.9627 42.5793 63.9425 42.1885 62.9991L39.8788 63.9558C40.1223 64.5438 40.2666 65.2601 40.3416 66.3586C40.4173 67.4683 40.418 68.8746 40.418 70.8332H42.918ZM36.0453 60.1224C37.7809 60.8413 39.1599 62.2202 39.8788 63.9558L42.1885 62.9991C41.2158 60.6509 39.3502 58.7853 37.002 57.8127L36.0453 60.1224ZM29.168 57.0832C27.2436 57.0832 25.7378 57.0825 24.5232 57.1654C23.2975 57.249 22.2773 57.4219 21.3339 57.8127L22.2906 60.1224C22.8786 59.8788 23.5949 59.7345 24.6934 59.6596C25.8032 59.5838 27.2094 59.5832 29.168 59.5832V57.0832ZM17.918 70.8332C17.918 68.8746 17.9186 67.4683 17.9944 66.3586C18.0693 65.2601 18.2136 64.5438 18.4572 63.9558L16.1475 62.9991C15.7567 63.9425 15.5838 64.9627 15.5002 66.1884C15.4173 67.403 15.418 68.9088 15.418 70.8332H17.918ZM21.3339 57.8127C18.9857 58.7853 17.1201 60.6509 16.1475 62.9991L18.4572 63.9558C19.1761 62.2202 20.555 60.8413 22.2906 60.1224L21.3339 57.8127ZM70.8346 82.0832C68.8761 82.0832 67.4698 82.0825 66.3601 82.0068C65.2616 81.9318 64.5453 81.7875 63.9573 81.544L63.0006 83.8537C63.944 84.2445 64.9641 84.4173 66.1899 84.501C67.4045 84.5838 68.9103 84.5832 70.8346 84.5832V82.0832ZM57.0846 70.8332C57.0846 72.7575 57.084 74.2633 57.1668 75.4779C57.2505 76.7037 57.4233 77.7238 57.8141 78.6672L60.1238 77.7105C59.8803 77.1225 59.736 76.4062 59.661 75.3077C59.5853 74.198 59.5846 72.7917 59.5846 70.8332H57.0846ZM63.9573 81.544C62.2217 80.8251 60.8427 79.4461 60.1238 77.7105L57.8141 78.6672C58.7868 81.0154 60.6524 82.881 63.0006 83.8537L63.9573 81.544ZM82.0846 70.8332C82.0846 72.7917 82.084 74.198 82.0082 75.3077C81.9333 76.4062 81.789 77.1225 81.5454 77.7105L83.8551 78.6672C84.2459 77.7238 84.4188 76.7037 84.5024 75.4779C84.5853 74.2633 84.5846 72.7575 84.5846 70.8332H82.0846ZM70.8346 84.5832C72.759 84.5832 74.2648 84.5838 75.4794 84.501C76.7051 84.4173 77.7253 84.2445 78.6687 83.8537L77.712 81.544C77.124 81.7875 76.4077 81.9318 75.3092 82.0068C74.1995 82.0825 72.7932 82.0832 70.8346 82.0832V84.5832ZM81.5454 77.7105C80.8265 79.4461 79.4476 80.8251 77.712 81.544L78.6687 83.8537C81.0169 82.881 82.8825 81.0154 83.8551 78.6672L81.5454 77.7105ZM70.8346 59.5832C72.7932 59.5832 74.1995 59.5838 75.3092 59.6596C76.4077 59.7345 77.124 59.8788 77.712 60.1224L78.6687 57.8127C77.7253 57.4219 76.7051 57.249 75.4794 57.1654C74.2648 57.0825 72.759 57.0832 70.8346 57.0832V59.5832ZM84.5846 70.8332C84.5846 68.9088 84.5853 67.403 84.5024 66.1884C84.4188 64.9627 84.2459 63.9425 83.8551 62.9991L81.5454 63.9558C81.789 64.5438 81.9333 65.2601 82.0082 66.3586C82.084 67.4683 82.0846 68.8746 82.0846 70.8332H84.5846ZM77.712 60.1224C79.4476 60.8413 80.8265 62.2202 81.5454 63.9558L83.8551 62.9991C82.8825 60.6509 81.0169 58.7853 78.6687 57.8127L77.712 60.1224ZM70.8346 57.0832C68.9103 57.0832 67.4045 57.0825 66.1899 57.1654C64.9641 57.249 63.944 57.4219 63.0006 57.8127L63.9573 60.1224C64.5453 59.8788 65.2616 59.7345 66.3601 59.6596C67.4698 59.5838 68.8761 59.5832 70.8346 59.5832V57.0832ZM59.5846 70.8332C59.5846 68.8746 59.5853 67.4683 59.661 66.3586C59.736 65.2601 59.8803 64.5438 60.1238 63.9558L57.8141 62.9991C57.4233 63.9425 57.2505 64.9627 57.1668 66.1884C57.084 67.403 57.0846 68.9088 57.0846 70.8332H59.5846ZM63.0006 57.8127C60.6524 58.7853 58.7868 60.6509 57.8141 62.9991L60.1238 63.9558C60.8427 62.2202 62.2217 60.8413 63.9573 60.1224L63.0006 57.8127Z" fill="#E0E0E0"/>
</svg>
