<svg width="100" height="100" viewBox="0 0 100 100" fill="none" xmlns="http://www.w3.org/2000/svg">
<path d="M62.4995 41.6668L54.0766 52.1201C50.7389 56.2624 49.07 58.3335 46.8745 58.3335C44.679 58.3335 43.0102 56.2624 39.6724 52.1201L37.4995 49.4234M78.7039 66.6668C85.378 54.5038 87.0912 40.6243 87.4285 31.8206C87.6217 26.7774 83.4557 22.9168 78.4088 22.9168H75.9532C71.9261 22.9168 68.6616 19.6522 68.6616 15.6252C68.6616 11.5981 65.397 8.3335 61.3699 8.3335H39.8449C35.1466 8.3335 31.3379 12.1422 31.3379 16.8404C31.3379 21.5387 27.5292 25.3474 22.831 25.3474H21.544C16.5103 25.3474 12.351 29.1756 12.6048 34.203C13.0151 42.3316 14.8214 54.8681 21.2956 66.6668C23.0565 69.8759 25.4481 73.0961 28.104 76.1646C36.3537 85.6959 40.4785 90.4615 49.9997 90.4615C59.521 90.4615 63.6458 85.6959 71.8954 76.1646C74.5514 73.0961 76.943 69.8759 78.7039 66.6668Z" stroke="#E0E0E0" stroke-width="2.5" stroke-linecap="round"/>
</svg>
