<svg width="40" height="40" viewBox="0 0 40 40" fill="none" xmlns="http://www.w3.org/2000/svg">
<path fill-rule="evenodd" clip-rule="evenodd" d="M8.60606 20C8.60606 18.7298 8.81703 17.512 9.19356 16.3698L2.60288 11.3369C1.31839 13.9449 0.594696 16.8835 0.594696 20C0.594696 23.1138 1.3175 26.0507 2.60021 28.6569L9.18733 23.6142C8.81436 22.4773 8.60606 21.264 8.60606 20Z" fill="#FBBC05"/>
<path fill-rule="evenodd" clip-rule="evenodd" d="M20.178 8.44443C22.9375 8.44443 25.4299 9.4222 27.3883 11.0222L33.0852 5.33332C29.6136 2.31109 25.1629 0.444427 20.178 0.444427C12.439 0.444427 5.78784 4.8702 2.60287 11.3369L9.19356 16.3698C10.7122 11.76 15.041 8.44443 20.178 8.44443Z" fill="#EB4335"/>
<path fill-rule="evenodd" clip-rule="evenodd" d="M20.178 31.5555C15.041 31.5555 10.7122 28.24 9.19356 23.6302L2.60287 28.6622C5.78784 35.1297 12.439 39.5555 20.178 39.5555C24.9546 39.5555 29.5148 37.8595 32.9375 34.6817L26.6815 29.8453C24.9163 30.9573 22.6936 31.5555 20.178 31.5555Z" fill="#34A853"/>
<path fill-rule="evenodd" clip-rule="evenodd" d="M38.8712 20C38.8712 18.8444 38.6932 17.6 38.4261 16.4444H20.178V24H30.6818C30.1566 26.576 28.727 28.5564 26.6815 29.8453L32.9375 34.6818C36.5328 31.3449 38.8712 26.3742 38.8712 20Z" fill="#4285F4"/>
</svg>
