<svg alt="" width="19" height="24" viewBox="0 0 19 24" fill="none"><path d="M18.436 3.115L9.8.046a.987.987 0 0 0-.595 0L.567 3.115A.863.863 0 0 0 0 3.909v9.769c0 2.288 1.332 4.174 3.068 5.783 1.737 1.607 3.922 3.003 5.928 4.388a.912.912 0 0 0 1.007 0c2.01-1.385 4.194-2.78 5.93-4.388C17.67 17.854 19 15.966 19 13.678V3.909a.854.854 0 0 0-.564-.794zM10.65 14.577c0 .846-.23 1.677-.665 2.41l-.483.81-.482-.81a4.714 4.714 0 0 1-.665-2.41v-3.868c.569-.767 1.419-1.04 2.295-1.04v4.908zm3.568-5.783H4.784V6.712h9.434v2.082z" fill="#009fd9"></path></svg>