<svg width="749" height="700" viewBox="0 0 749 700" fill="none" xmlns="http://www.w3.org/2000/svg">
<g clip-path="url(#clip0_305_5761)">
<path d="M528.972 175.891L336.516 372.126L260.409 444.454L260.409 197.738L197.958 197.959V551.041H551.04L551.04 488.81L353.727 488.633L304.545 488.589L573.108 220.026L528.972 175.891Z" fill="#116266"/>
<path d="M197.958 197.959L260.409 197.738L336.516 157.278L278.353 157.278L197.958 197.959Z" fill="#319196"/>
<path d="M260.409 197.738L260.409 444.454L336.516 372.126V157.278L260.409 197.738Z" fill="#0A484A"/>
<path d="M528.972 175.891L573.108 220.026L639.795 191.701L598.844 148.969L528.972 175.891Z" fill="#319196"/>
<path d="M551.04 488.81L551.04 551.041L614.868 506.258V444.454L551.04 488.81Z" fill="#0A484A"/>
<path fill-rule="evenodd" clip-rule="evenodd" d="M304.545 488.589L573.108 220.026L639.795 191.701L396.29 444.454L304.545 488.589Z" fill="#0A484A"/>
<path d="M353.727 488.633L551.04 488.81L614.868 444.454L396.29 444.454L304.545 488.589L353.727 488.633Z" fill="#319196"/>
</g>
<defs>
<clipPath id="clip0_305_5761">
<rect width="749" height="700" fill="white"/>
</clipPath>
</defs>
</svg>
