<svg width="151" height="59" viewBox="0 0 151 59" fill="none" xmlns="http://www.w3.org/2000/svg">
<g clip-path="url(#clip0_182_8811)">
<path d="M78.2421 55.9128H76.1167V48.1179L72.4712 55.9128H70.1615L66.5161 48.1505V55.9128H64.3906V46.1366H67.8255L71.3262 53.7946L74.8072 46.1366H78.2421V55.9128ZM84.2534 56.1083C83.3321 56.1083 82.5162 55.9454 81.8055 55.6195C81.0993 55.2936 80.5507 54.8374 80.1604 54.2508C79.7701 53.6598 79.5748 52.9799 79.5748 52.2109C79.5748 51.4374 79.7701 50.7554 80.1604 50.1644C80.5507 49.5734 81.0993 49.1151 81.8055 48.7892C82.5162 48.4634 83.3321 48.3004 84.2534 48.3004C85.1746 48.3004 85.9885 48.4634 86.6946 48.7892C87.4053 49.1151 87.956 49.5734 88.3463 50.1644C88.7366 50.7554 88.9319 51.4374 88.9319 52.2109C88.9319 52.9799 88.7366 53.6598 88.3463 54.2508C87.956 54.8374 87.4053 55.2936 86.6946 55.6195C85.9885 55.9454 85.1746 56.1083 84.2534 56.1083ZM81.7989 52.2109C81.7989 52.6716 81.8976 53.0712 82.095 53.4101C82.2924 53.7445 82.5754 54.0032 82.9439 54.1857C83.3124 54.3682 83.7488 54.4594 84.2534 54.4594C84.758 54.4594 85.1923 54.3682 85.5563 54.1857C85.9247 54.0032 86.2077 53.7445 86.4051 53.4101C86.6025 53.0712 86.7012 52.6716 86.7012 52.2109C86.7012 51.7502 86.6025 51.3506 86.4051 51.0117C86.2077 50.6728 85.9247 50.4121 85.5563 50.2296C85.1878 50.0471 84.7535 49.9559 84.2534 49.9559C83.7488 49.9559 83.3124 50.0471 82.9439 50.2296C82.5754 50.4121 82.2924 50.6728 82.095 51.0117C81.8976 51.3506 81.7989 51.7502 81.7989 52.2109ZM91.4404 48.5025L93.8685 54.0032L96.3032 48.5025H98.6524L95.0793 55.9128H92.5854L89.0123 48.5025H91.4404ZM100.636 48.6263L101.735 48.4177V55.9128H99.5303V48.4177L100.636 48.6263ZM99.2869 46.5212C99.2869 46.1823 99.4095 45.9106 99.6554 45.7065C99.9054 45.4979 100.232 45.3936 100.636 45.3936C101.035 45.3936 101.357 45.4979 101.603 45.7065C101.853 45.9106 101.978 46.1823 101.978 46.5212C101.978 46.8601 101.853 47.1338 101.603 47.3424C101.357 47.5465 101.035 47.6487 100.636 47.6487C100.232 47.6487 99.9054 47.5465 99.6554 47.3424C99.4095 47.1338 99.2869 46.8601 99.2869 46.5212ZM105.235 48.5025L105.511 50.1644C105.823 49.5648 106.244 49.1041 106.775 48.7827C107.31 48.4613 107.906 48.3004 108.564 48.3004C109.271 48.3004 109.874 48.4418 110.374 48.7241C110.879 49.0023 111.262 49.4039 111.525 49.9298C111.789 50.4512 111.92 51.0703 111.92 51.7873V55.9128H109.722V52.1196C109.722 51.4593 109.558 50.9551 109.229 50.6076C108.904 50.2601 108.435 50.0862 107.821 50.0862C107.391 50.0862 107.016 50.1795 106.696 50.3665C106.38 50.5489 106.134 50.8096 105.959 51.1485C105.787 51.483 105.702 51.874 105.702 52.3217V55.9128H103.504V50.9921L103.03 48.5025H105.235ZM120.128 53.6643C119.737 54.1291 119.25 54.5071 118.667 54.7983C118.084 55.0895 117.436 55.235 116.726 55.235C116.037 55.235 115.414 55.0916 114.857 54.8048C114.304 54.5136 113.87 54.1054 113.554 53.5796C113.238 53.0537 113.08 52.45 113.08 51.7677C113.08 51.0854 113.238 50.4817 113.554 49.9559C113.87 49.43 114.304 49.0239 114.857 48.7371C115.414 48.4459 116.037 48.3004 116.726 48.3004C117.436 48.3004 118.081 48.4524 118.66 48.7566C119.244 49.0564 119.733 49.4475 120.128 49.9298V48.5025H122.325V53.938C122.325 54.8505 122.119 55.6305 121.707 56.2778C121.299 56.9295 120.724 57.4228 119.983 57.7572C119.242 58.0917 118.382 58.2591 117.403 58.2591C116.732 58.2591 116.107 58.1723 115.528 57.9984C114.949 57.8289 114.379 57.5638 113.817 57.2032V55.4957C114.817 56.2517 115.967 56.6297 117.265 56.6297C118.2 56.6297 118.91 56.4146 119.397 55.9845C119.884 55.5588 120.128 54.9201 120.128 54.0684V53.6643ZM115.298 51.7677C115.298 52.1543 115.381 52.4932 115.548 52.7844C115.719 53.0757 115.965 53.3014 116.285 53.4622C116.61 53.6231 116.995 53.7034 117.443 53.7034C118.61 53.7034 119.531 53.0582 120.207 51.7677C119.531 50.4728 118.61 49.8255 117.443 49.8255C117 49.8255 116.616 49.9058 116.291 50.0667C115.971 50.2275 115.725 50.4556 115.554 50.751C115.383 51.0422 115.298 51.3811 115.298 51.7677Z" fill="#02AAB2"/>
<path d="M0.921875 38.0214L11.7161 27.1297H1.00067V24.0862H16.815V26.8733L6.03198 37.7761H16.8825V40.8198H0.921875V38.0214ZM25.824 41.1542C24.3082 41.1542 22.95 40.8757 21.7494 40.3179C20.5488 39.7533 19.6108 38.9654 18.9354 37.9548C18.2601 36.9364 17.9224 35.766 17.9224 34.443C17.9224 33.1423 18.2451 31.9904 18.8904 30.987C19.5357 29.9762 20.4325 29.1921 21.5805 28.6347C22.7286 28.0773 24.0268 27.7986 25.475 27.7986C26.9308 27.7986 28.1989 28.1219 29.2795 28.7685C30.36 29.4077 31.1892 30.3218 31.767 31.511C32.3523 32.6927 32.6449 34.0714 32.6449 35.647H21.952C22.2371 36.509 22.7924 37.1741 23.6178 37.6424C24.4432 38.1106 25.49 38.3449 26.7582 38.3449C27.7262 38.3449 28.6979 38.2073 29.6734 37.9322C30.6489 37.6574 31.5231 37.2709 32.296 36.7728V39.27C31.4481 39.8648 30.4613 40.3293 29.3357 40.6637C28.2177 40.9906 27.0471 41.1542 25.824 41.1542ZM28.9868 33.1721C28.7692 32.3322 28.3565 31.6857 27.7487 31.2323C27.1484 30.7715 26.398 30.5411 25.4975 30.5411C24.5445 30.5411 23.7454 30.7789 23.1001 31.2546C22.4622 31.7228 22.042 32.362 21.8394 33.1721H28.9868ZM37.974 28.1442L38.5479 31.5667C38.9607 30.3925 39.5609 29.4708 40.3488 28.802C41.1367 28.1331 42.1237 27.7986 43.3092 27.7986C43.872 27.7986 44.431 27.8655 44.9862 27.9993V31.21C44.2433 31.0391 43.4855 30.9536 42.7125 30.9536C41.9471 30.9536 41.2645 31.1133 40.664 31.4329C40.0638 31.7525 39.591 32.2431 39.2457 32.9045C38.9081 33.5586 38.7394 34.3723 38.7394 35.3458V40.8198H34.98V32.3025L34.1695 28.1442H37.974ZM53.6469 41.1542C52.0711 41.1542 50.6753 40.8757 49.4597 40.3179C48.2517 39.7605 47.3135 38.9801 46.6458 37.9768C45.9781 36.9663 45.6442 35.8031 45.6442 34.4876C45.6442 33.1646 45.9781 31.9978 46.6458 30.987C47.3135 29.9762 48.2517 29.1921 49.4597 28.6347C50.6753 28.0773 52.0711 27.7986 53.6469 27.7986C55.2227 27.7986 56.6146 28.0773 57.8229 28.6347C59.0385 29.1921 59.9802 29.9762 60.6479 30.987C61.3156 31.9978 61.6499 33.1646 61.6499 34.4876C61.6499 35.8031 61.3156 36.9663 60.6479 37.9768C59.9802 38.9801 59.0385 39.7605 57.8229 40.3179C56.6146 40.8757 55.2227 41.1542 53.6469 41.1542ZM49.4486 34.4876C49.4486 35.2755 49.6173 35.9591 49.955 36.5388C50.2926 37.111 50.7768 37.5532 51.4071 37.8653C52.0375 38.1775 52.7838 38.3335 53.6469 38.3335C54.5099 38.3335 55.2528 38.1775 55.8755 37.8653C56.5058 37.5532 56.99 37.111 57.3277 36.5388C57.6653 35.9591 57.834 35.2755 57.834 34.4876C57.834 33.6997 57.6653 33.016 57.3277 32.4363C56.99 31.8566 56.5058 31.4106 55.8755 31.0985C55.2452 30.7863 54.5023 30.6303 53.6469 30.6303C52.7838 30.6303 52.0375 30.7863 51.4071 31.0985C50.7768 31.4106 50.2926 31.8566 49.955 32.4363C49.6173 33.016 49.4486 33.6997 49.4486 34.4876Z" fill="white"/>
<path d="M87.8416 40.8198H84.2062V27.4865L77.9705 40.8198H74.0195L67.7839 27.5422V40.8198H64.1484V24.0974H70.0239L76.012 37.1964L81.9661 24.0974H87.8416V40.8198ZM102.209 37.9658C101.572 38.9767 100.765 39.7605 99.7896 40.3179C98.8216 40.8757 97.7449 41.1542 96.5591 41.1542C95.3209 41.1542 94.2179 40.8757 93.2499 40.3179C92.2819 39.7605 91.5279 38.9767 90.9876 37.9658C90.4546 36.9549 90.1883 35.7955 90.1883 34.4876C90.1883 33.1721 90.4546 32.0089 90.9876 30.9982C91.5279 29.98 92.2781 29.1921 93.2388 28.6347C94.2068 28.0773 95.3137 27.7986 96.5591 27.7986C97.7449 27.7986 98.8216 28.0773 99.7896 28.6347C100.765 29.1847 101.575 29.9651 102.221 30.9759L102.547 28.1442H106.442L105.699 34.4762L106.442 40.8198H102.547L102.209 37.9658ZM94.0042 34.4876C94.0042 35.2158 94.158 35.8662 94.4655 36.4383C94.7734 37.0108 95.1973 37.4568 95.7376 37.7761C96.2851 38.0958 96.9044 38.2557 97.5946 38.2557C98.2924 38.2557 98.9567 38.0958 99.587 37.7761C100.217 37.4568 100.769 37.0146 101.241 36.4496C101.722 35.8775 102.097 35.2233 102.367 34.4876C102.097 33.7518 101.722 33.0977 101.241 32.5255C100.769 31.9532 100.217 31.5073 99.587 31.1877C98.9567 30.8607 98.2924 30.6971 97.5946 30.6971C96.9044 30.6971 96.2851 30.8607 95.7376 31.1877C95.1973 31.5073 94.7734 31.9569 94.4655 32.5366C94.158 33.1089 94.0042 33.7592 94.0042 34.4876ZM112.815 34.3425L107.694 28.1442H111.926L115.281 32.1353L118.635 28.1442H122.777L117.588 34.3092L123.137 40.8198H118.849L115.179 36.5052L111.544 40.8198H107.345L112.815 34.3425Z" fill="#02AAB2"/>
<path fill-rule="evenodd" clip-rule="evenodd" d="M116.02 0.686046C116.02 1.06494 115.71 1.37209 115.327 1.37209C114.945 1.37209 114.635 1.06494 114.635 0.686046C114.635 0.307154 114.945 0 115.327 0C115.71 0 116.02 0.307154 116.02 0.686046ZM104.591 4.11628C104.974 4.11628 105.284 3.80914 105.284 3.43023C105.284 3.05134 104.974 2.74419 104.591 2.74419C104.208 2.74419 103.898 3.05134 103.898 3.43023C103.898 3.80914 104.208 4.11628 104.591 4.11628ZM107.362 7.54651C107.362 8.11487 106.897 8.57558 106.323 8.57558C105.749 8.57558 105.284 8.11487 105.284 7.54651C105.284 6.97816 105.749 6.51744 106.323 6.51744C106.897 6.51744 107.362 6.97816 107.362 7.54651ZM108.054 13.3779C108.819 13.3779 109.44 12.7636 109.44 12.0058C109.44 11.248 108.819 10.6337 108.054 10.6337C107.289 10.6337 106.669 11.248 106.669 12.0058C106.669 12.7636 107.289 13.3779 108.054 13.3779ZM110.132 18.5233C111.089 18.5233 111.864 17.7554 111.864 16.8081C111.864 15.8609 111.089 15.093 110.132 15.093C109.176 15.093 108.401 15.8609 108.401 16.8081C108.401 17.7554 109.176 18.5233 110.132 18.5233ZM125.717 2.40116C126.1 2.40116 126.41 2.09401 126.41 1.71512C126.41 1.33622 126.1 1.02907 125.717 1.02907C125.335 1.02907 125.025 1.33622 125.025 1.71512C125.025 2.09401 125.335 2.40116 125.717 2.40116ZM135.414 5.14535C135.414 5.52425 135.105 5.83139 134.722 5.83139C134.339 5.83139 134.029 5.52425 134.029 5.14535C134.029 4.76644 134.339 4.4593 134.722 4.4593C135.105 4.4593 135.414 4.76644 135.414 5.14535ZM142.687 12.6919C143.07 12.6919 143.38 12.3847 143.38 12.0058C143.38 11.6269 143.07 11.3198 142.687 11.3198C142.305 11.3198 141.995 11.6269 141.995 12.0058C141.995 12.3847 142.305 12.6919 142.687 12.6919ZM148.921 21.2674C148.921 21.6463 148.611 21.9535 148.229 21.9535C147.846 21.9535 147.536 21.6463 147.536 21.2674C147.536 20.8885 147.846 20.5814 148.229 20.5814C148.611 20.5814 148.921 20.8885 148.921 21.2674ZM150.307 32.2442C150.689 32.2442 150.999 31.937 150.999 31.5581C150.999 31.1792 150.689 30.8721 150.307 30.8721C149.924 30.8721 149.614 31.1792 149.614 31.5581C149.614 31.937 149.924 32.2442 150.307 32.2442ZM150.307 40.8198C150.307 41.1988 149.997 41.5058 149.614 41.5058C149.231 41.5058 148.921 41.1988 148.921 40.8198C148.921 40.4407 149.231 40.1337 149.614 40.1337C149.997 40.1337 150.307 40.4407 150.307 40.8198ZM147.19 48.7093C147.572 48.7093 147.882 48.4023 147.882 48.0233C147.882 47.6442 147.572 47.3372 147.19 47.3372C146.807 47.3372 146.497 47.6442 146.497 48.0233C146.497 48.4023 146.807 48.7093 147.19 48.7093ZM116.366 5.14535C116.366 5.7137 115.901 6.17442 115.327 6.17442C114.753 6.17442 114.288 5.7137 114.288 5.14535C114.288 4.57699 114.753 4.11628 115.327 4.11628C115.901 4.11628 116.366 4.57699 116.366 5.14535ZM124.332 6.86046C124.906 6.86046 125.371 6.39975 125.371 5.83139C125.371 5.26304 124.906 4.80232 124.332 4.80232C123.758 4.80232 123.293 5.26304 123.293 5.83139C123.293 6.39975 123.758 6.86046 124.332 6.86046ZM133.337 8.9186C133.337 9.48696 132.871 9.94767 132.298 9.94767C131.724 9.94767 131.259 9.48696 131.259 8.9186C131.259 8.35025 131.724 7.88953 132.298 7.88953C132.871 7.88953 133.337 8.35025 133.337 8.9186ZM139.224 16.1221C139.798 16.1221 140.263 15.6614 140.263 15.093C140.263 14.5247 139.798 14.064 139.224 14.064C138.65 14.064 138.185 14.5247 138.185 15.093C138.185 15.6614 138.65 16.1221 139.224 16.1221ZM144.765 22.9826C144.765 23.5509 144.3 24.0116 143.726 24.0116C143.153 24.0116 142.687 23.5509 142.687 22.9826C142.687 22.4142 143.153 21.9535 143.726 21.9535C144.3 21.9535 144.765 22.4142 144.765 22.9826ZM145.458 32.5872C146.032 32.5872 146.497 32.1265 146.497 31.5581C146.497 30.9898 146.032 30.5291 145.458 30.5291C144.884 30.5291 144.419 30.9898 144.419 31.5581C144.419 32.1265 144.884 32.5872 145.458 32.5872ZM146.151 39.4477C146.151 40.0161 145.686 40.4767 145.112 40.4767C144.538 40.4767 144.073 40.0161 144.073 39.4477C144.073 38.8793 144.538 38.4186 145.112 38.4186C145.686 38.4186 146.151 38.8793 146.151 39.4477ZM142.687 47.3372C143.261 47.3372 143.726 46.8765 143.726 46.3081C143.726 45.7397 143.261 45.2791 142.687 45.2791C142.114 45.2791 141.648 45.7397 141.648 46.3081C141.648 46.8765 142.114 47.3372 142.687 47.3372ZM116.713 9.94767C116.713 10.7054 116.092 11.3198 115.327 11.3198C114.562 11.3198 113.942 10.7054 113.942 9.94767C113.942 9.1899 114.562 8.57558 115.327 8.57558C116.092 8.57558 116.713 9.1899 116.713 9.94767ZM122.947 12.0058C123.712 12.0058 124.332 11.3915 124.332 10.6337C124.332 9.87595 123.712 9.26163 122.947 9.26163C122.182 9.26163 121.561 9.87595 121.561 10.6337C121.561 11.3915 122.182 12.0058 122.947 12.0058ZM131.259 13.0349C131.259 13.7927 130.638 14.407 129.873 14.407C129.108 14.407 128.488 13.7927 128.488 13.0349C128.488 12.2771 129.108 11.6628 129.873 11.6628C130.638 11.6628 131.259 12.2771 131.259 13.0349ZM135.414 19.5523C136.18 19.5523 136.8 18.938 136.8 18.1802C136.8 17.4225 136.18 16.8081 135.414 16.8081C134.649 16.8081 134.029 17.4225 134.029 18.1802C134.029 18.938 134.649 19.5523 135.414 19.5523ZM140.263 24.6977C140.263 25.4554 139.643 26.0698 138.878 26.0698C138.113 26.0698 137.492 25.4554 137.492 24.6977C137.492 23.9399 138.113 23.3256 138.878 23.3256C139.643 23.3256 140.263 23.9399 140.263 24.6977ZM140.609 32.9302C141.374 32.9302 141.995 32.3159 141.995 31.5581C141.995 30.8004 141.374 30.186 140.609 30.186C139.844 30.186 139.224 30.8004 139.224 31.5581C139.224 32.3159 139.844 32.9302 140.609 32.9302ZM141.648 38.4186C141.648 39.1763 141.028 39.7907 140.263 39.7907C139.498 39.7907 138.878 39.1763 138.878 38.4186C138.878 37.6609 139.498 37.0465 140.263 37.0465C141.028 37.0465 141.648 37.6609 141.648 38.4186ZM138.185 45.9651C138.95 45.9651 139.57 45.3508 139.57 44.593C139.57 43.8353 138.95 43.2209 138.185 43.2209C137.42 43.2209 136.8 43.8353 136.8 44.593C136.8 45.3508 137.42 45.9651 138.185 45.9651ZM117.405 15.093C117.405 16.0402 116.63 16.8081 115.674 16.8081C114.717 16.8081 113.942 16.0402 113.942 15.093C113.942 14.1458 114.717 13.3779 115.674 13.3779C116.63 13.3779 117.405 14.1458 117.405 15.093ZM121.215 17.1512C122.171 17.1512 122.947 16.3833 122.947 15.436C122.947 14.4888 122.171 13.7209 121.215 13.7209C120.259 13.7209 119.483 14.4888 119.483 15.436C119.483 16.3833 120.259 17.1512 121.215 17.1512ZM128.834 17.8372C128.834 18.7844 128.059 19.5523 127.103 19.5523C126.146 19.5523 125.371 18.7844 125.371 17.8372C125.371 16.89 126.146 16.1221 127.103 16.1221C128.059 16.1221 128.834 16.89 128.834 17.8372ZM131.605 22.9826C132.561 22.9826 133.337 22.2147 133.337 21.2674C133.337 20.3202 132.561 19.5523 131.605 19.5523C130.649 19.5523 129.873 20.3202 129.873 21.2674C129.873 22.2147 130.649 22.9826 131.605 22.9826ZM135.761 26.4128C135.761 27.36 134.985 28.1279 134.029 28.1279C133.073 28.1279 132.298 27.36 132.298 26.4128C132.298 25.4656 133.073 24.6977 134.029 24.6977C134.985 24.6977 135.761 25.4656 135.761 26.4128ZM135.414 33.6163C136.371 33.6163 137.146 32.8484 137.146 31.9012C137.146 30.9539 136.371 30.186 135.414 30.186C134.458 30.186 133.683 30.9539 133.683 31.9012C133.683 32.8484 134.458 33.6163 135.414 33.6163ZM137.146 37.3895C137.146 38.3366 136.371 39.1046 135.414 39.1046C134.458 39.1046 133.683 38.3366 133.683 37.3895C133.683 36.4424 134.458 35.6744 135.414 35.6744C136.371 35.6744 137.146 36.4424 137.146 37.3895ZM133.337 44.25C134.293 44.25 135.068 43.482 135.068 42.5349C135.068 41.5878 134.293 40.8198 133.337 40.8198C132.38 40.8198 131.605 41.5878 131.605 42.5349C131.605 43.482 132.38 44.25 133.337 44.25Z" fill="url(#paint0_radial_182_8811)"/>
</g>
<defs>
<radialGradient id="paint0_radial_182_8811" cx="0" cy="0" r="1" gradientUnits="userSpaceOnUse" gradientTransform="translate(118.444 31.5581) rotate(-29.369) scale(34.9717 33.3287)">
<stop stop-color="#02AAB2"/>
<stop offset="0.348739" stop-color="#02AAB2"/>
<stop offset="1" stop-color="white"/>
</radialGradient>
<clipPath id="clip0_182_8811">
<rect width="151" height="59" fill="white"/>
</clipPath>
</defs>
</svg>
