<svg width="350" height="260" viewBox="0 0 350 260" fill="none" xmlns="http://www.w3.org/2000/svg">
<g clip-path="url(#clip0_281_17275)">
<path d="M84.0804 116.039H88.2749C92.1086 116.039 93.798 117.253 93.798 119.72C93.798 121.864 92.1086 123.32 88.7175 123.32H84.0804V116.039ZM79 140.295H89.2805C94.6832 140.295 100.086 138.361 100.086 132.132C100.086 128.451 97.5113 125.625 93.9234 125.216V125.131C96.8589 124.249 98.8835 122.106 98.8835 118.871C98.8835 113.654 94.4426 111.675 90.1277 111.675H79V140.295ZM84.0804 127.683H88.9582C93.0703 127.683 95.0126 128.736 95.0126 131.73C95.0126 135.484 91.3752 135.932 88.7555 135.932H84.0804V127.683Z" fill="#414042"/>
<path d="M105.83 140.296V111" stroke="#414042" stroke-width="4.5" stroke-miterlimit="10"/>
<path d="M116.32 130.595C116.32 127.563 118.458 124.776 122.008 124.776C125.557 124.776 127.689 127.564 127.689 130.595C127.689 133.627 125.557 136.415 122.008 136.415C118.458 136.415 116.32 133.627 116.32 130.595ZM111.48 130.595C111.48 136.7 116.155 140.779 122.008 140.779C127.853 140.779 132.535 136.7 132.535 130.595C132.535 124.49 127.854 120.406 122.008 120.406C116.155 120.406 111.48 124.491 111.48 130.595Z" fill="#414042"/>
<path d="M139.557 130.595C139.557 127.563 141.695 124.776 145.244 124.776C148.794 124.776 150.926 127.564 150.926 130.595C150.926 133.627 148.794 136.415 145.244 136.415C141.695 136.415 139.557 133.627 139.557 130.595ZM134.717 130.595C134.717 136.7 139.393 140.779 145.244 140.779C151.09 140.779 155.772 136.7 155.772 130.595C155.772 124.49 151.09 120.406 145.244 120.406C139.392 120.406 134.717 124.491 134.717 130.595Z" fill="#414042"/>
<path d="M158.719 120.892H163.318V123.927H163.394C164.242 122.107 166.096 120.403 169.322 120.403C172.308 120.403 174.371 121.573 175.376 124.003C176.787 121.542 178.843 120.403 181.741 120.403C186.903 120.403 188.72 124.088 188.72 128.737V140.297H183.88V129.302C183.88 126.879 183.159 124.776 180.293 124.776C177.269 124.776 176.136 127.281 176.136 129.784V140.296H171.303V128.737C171.303 126.345 170.335 124.776 167.994 124.776C164.812 124.776 163.559 127.113 163.559 129.704V140.296H158.719V120.892Z" fill="#414042"/>
<path d="M208.692 130.595C208.692 133.63 206.56 136.415 203.004 136.415C199.455 136.415 197.317 133.63 197.317 130.595C197.317 127.563 199.455 124.769 203.004 124.769C206.56 124.769 208.692 127.563 208.692 130.595ZM192.642 140.296H197.241V137.387H197.317C198.733 139.725 201.271 140.778 203.978 140.778C209.938 140.778 213.531 136.331 213.531 130.594C213.531 124.854 209.698 120.405 204.175 120.405C200.549 120.405 198.607 122.099 197.601 123.361H197.481V111H192.641L192.642 140.296Z" fill="#414042"/>
<path d="M220.56 128.655C220.921 125.861 222.698 124.044 225.558 124.044C228.582 124.044 230.436 125.823 230.48 128.655H220.56ZM235.32 132.292V130.96C235.32 124.206 231.651 120.406 226.248 120.406C220.39 120.406 215.72 124.491 215.72 130.595C215.72 136.7 220.39 140.779 226.248 140.779C229.304 140.779 232.175 139.688 234.428 136.903L230.961 134.281C229.753 135.769 228.177 136.903 225.76 136.903C223.059 136.903 220.876 135.162 220.56 132.292H235.32Z" fill="#414042"/>
<path d="M238.47 120.892H243.31V123.965H243.392C244.442 121.742 246.574 120.403 249.117 120.403C249.724 120.403 250.287 120.527 250.85 120.692V125.379C250.047 125.179 249.275 125.017 248.509 125.017C243.954 125.017 243.309 128.861 243.309 129.914V140.297H238.469L238.47 120.892Z" fill="#414042"/>
<path d="M261.676 124.776C265.181 124.776 267.401 127.113 267.401 130.478C267.401 133.706 265.225 136.173 261.638 136.173C258.373 136.173 255.95 133.627 255.95 130.554C255.95 127.113 258.284 124.776 261.676 124.776ZM267.401 120.892V123.803H267.325C265.909 121.456 263.366 120.403 260.664 120.403C254.699 120.403 251.111 124.852 251.111 130.596C251.111 136.088 254.944 140.538 260.747 140.538C263.169 140.538 265.668 139.611 267.086 137.712H267.155V139.13C267.155 142.967 265.712 145.637 261.031 145.637C258.33 145.637 256.311 144.622 254.375 142.834L251.477 146.803C254.21 149.239 257.481 150 261.075 150C268.616 150 272 145.548 272 138.558V120.892H267.401Z" fill="#414042"/>
</g>
<defs>
<clipPath id="clip0_281_17275">
<rect width="193" height="39" fill="white" transform="translate(79 111)"/>
</clipPath>
</defs>
</svg>
